<svg width="30" height="30" viewBox="0 0 30 30" fill="none" xmlns="http://www.w3.org/2000/svg">
<path fill-rule="evenodd" clip-rule="evenodd" d="M15 30C23.2843 30 30 23.2843 30 15C30 6.71573 23.2843 0 15 0C6.71573 0 0 6.71573 0 15C0 23.2843 6.71573 30 15 30ZM4.7874 24.1658C2.60517 21.736 1.27755 18.523 1.27755 15C1.27755 7.4213 7.4213 1.27755 15 1.27755C18.523 1.27755 21.736 2.60517 24.1658 4.7874L4.7874 24.1658ZM5.78143 25.165C8.21743 27.3755 11.4514 28.7224 15 28.7224C22.5787 28.7224 28.7224 22.5787 28.7224 15C28.7224 11.4514 27.3755 8.21743 25.165 5.78143L5.78143 25.165Z" fill="#303636"/>
</svg>
