<svg width="30" height="30" viewBox="0 0 30 30" fill="none" xmlns="http://www.w3.org/2000/svg">
<path fill-rule="evenodd" clip-rule="evenodd" d="M6.43906 7.89555C5.83623 8.0155 5.29146 8.31409 4.8096 8.78871C3.9701 9.6156 3.77153 10.3763 3.77061 12.7687C3.77001 14.2808 3.76646 14.3052 3.50132 14.6149C3.08957 15.0958 2.94976 15.5249 2.88522 16.5058L2.82605 17.4051L3.34175 17.345C4.01813 17.2661 4.5786 16.9752 5.0093 16.4796C5.53685 15.8726 5.59368 15.5508 5.59368 13.17C5.59368 11.996 5.63836 10.8819 5.69297 10.6943C5.7953 10.343 6.2576 9.78925 6.44848 9.78925C6.52335 9.78925 6.55618 11.6324 6.55618 15.8349C6.55618 21.7042 6.56196 21.8846 6.75283 22.0221C7.03368 22.2244 9.62442 22.2245 9.90557 22.0222C10.0874 21.8914 10.1061 21.7108 10.1529 19.6164L10.2035 17.3519L10.4062 17.573C10.5176 17.6945 10.7798 17.88 10.9887 17.985C11.3638 18.1736 11.3687 18.1836 11.3687 18.7727C11.3687 19.2365 11.4139 19.414 11.5713 19.5691C12.0103 20.0015 12.4831 19.7132 12.4831 19.0131V18.5711H13.1417H13.8002V19.0145C13.8002 19.3596 13.8502 19.4924 14.0255 19.6133C14.567 19.987 14.9147 19.6702 14.9147 18.803V18.2023L15.3169 18.0236C15.5382 17.9254 15.796 17.7613 15.8899 17.6591C15.9838 17.557 16.0991 17.4734 16.1462 17.4734C16.1933 17.4734 16.2318 18.397 16.2318 19.5258C16.2318 21.5296 16.2806 21.893 16.5763 22.0874C16.6376 22.1277 17.3059 22.1613 18.0615 22.1622C19.0894 22.1633 19.4846 22.1281 19.6319 22.0222C19.8189 21.8876 19.8299 21.713 19.8577 18.4615L19.887 15.0423L20.4909 15.631L21.0949 16.2197V17.249C21.0949 17.9031 21.1464 18.3995 21.2362 18.611C21.3138 18.7941 21.786 19.5448 22.2856 20.2793C23.2422 21.6858 23.5628 21.9701 24.3558 22.1152C25.0744 22.2467 26.0325 21.7024 26.255 21.0361C26.3929 20.6235 27.1739 16.6304 27.1739 16.3381C27.1739 16.2156 27.0371 15.9029 26.8699 15.6433C26.5663 15.1717 26.566 15.1695 26.566 13.6433C26.566 12.2899 26.5448 12.0966 26.3807 11.9503C26.0439 11.65 25.6839 11.7647 24.9956 12.3914L24.6916 12.6682L23.3745 10.8699C21.9214 8.88601 21.5431 8.49472 20.7018 8.10622L20.1325 7.84326L13.4963 7.82749C9.8464 7.81891 6.67067 7.84955 6.43906 7.89555ZM16.943 10.3391C17.2922 10.5169 17.4476 10.7681 17.4476 11.1544C17.4476 11.3747 17.2704 11.6041 16.6249 12.2197C15.3239 13.4606 14.0441 13.9309 12.5771 13.7072C11.5557 13.5515 10.8522 13.1734 9.88875 12.2623C8.96708 11.3907 8.81947 11.0907 9.11774 10.6947C9.48967 10.2011 9.56799 10.1914 13.2227 10.1899C16.081 10.1886 16.696 10.2134 16.943 10.3391ZM25.1649 17.5388C25.5421 17.875 25.2807 18.5711 24.7773 18.5711C24.4865 18.5711 24.1344 18.2432 24.1344 17.9724C24.1344 17.7083 24.484 17.3736 24.7596 17.3736C24.8806 17.3736 25.063 17.448 25.1649 17.5388Z" fill="#303636"/>
<path fill-rule="evenodd" clip-rule="evenodd" d="M15 30C23.2843 30 30 23.2843 30 15C30 6.71573 23.2843 0 15 0C6.71573 0 0 6.71573 0 15C0 23.2843 6.71573 30 15 30ZM4.78736 24.1657C2.60515 21.7359 1.27755 18.523 1.27755 15C1.27755 7.4213 7.4213 1.27755 15 1.27755C18.523 1.27755 21.7359 2.60515 24.1657 4.78736L4.78736 24.1657ZM5.78138 25.1649C8.21739 27.3755 11.4514 28.7224 15 28.7224C22.5787 28.7224 28.7224 22.5787 28.7224 15C28.7224 11.4514 27.3755 8.21739 25.1649 5.78138L5.78138 25.1649Z" fill="#303636"/>
</svg>
