<svg width="30" height="30" viewBox="0 0 30 30" fill="none" xmlns="http://www.w3.org/2000/svg">
<path d="M30 15C30 23.2843 23.2843 30 15 30C6.71573 30 0 23.2843 0 15C0 6.71573 6.71573 0 15 0C23.2843 0 30 6.71573 30 15ZM1.275 15C1.275 22.5801 7.41989 28.725 15 28.725C22.5801 28.725 28.725 22.5801 28.725 15C28.725 7.41989 22.5801 1.275 15 1.275C7.41989 1.275 1.275 7.41989 1.275 15Z" fill="#303636"/>
<path fill-rule="evenodd" clip-rule="evenodd" d="M15.6488 8.31314C13.558 8.62613 11.6452 9.69266 9.79039 11.5797C9.4405 11.9358 9.12644 12.227 9.09249 12.227C9.05865 12.227 8.23813 11.764 7.2692 11.198C6.30036 10.6321 5.36558 10.1411 5.1921 10.1068C4.77546 10.0246 4.17407 10.2792 3.9352 10.6389C3.5756 11.1804 3.69018 11.577 4.72115 13.3602L5.67474 15.0096L4.72115 16.659C3.69018 18.4422 3.5756 18.8388 3.9352 19.3802C4.17407 19.74 4.77546 19.9946 5.1921 19.9123C5.36558 19.8781 6.30036 19.387 7.2692 18.8211C8.23813 18.2552 9.04737 17.7921 9.06743 17.7921C9.08758 17.7921 9.525 18.2074 10.0394 18.7151C11.5456 20.2012 13.3698 21.2406 15.1266 21.6138C16.0627 21.8126 17.7962 21.7908 18.7822 21.5678C19.7655 21.3454 21.0699 20.7683 22.0653 20.1154C23.8237 18.9619 26.25 15.9958 26.25 14.9996C26.25 14.291 25.0724 12.6158 23.5733 11.1919C21.5497 9.26982 19.5626 8.36014 17.1633 8.25739C16.675 8.23647 15.9935 8.26151 15.6488 8.31314ZM20.6088 13.9269C21.0475 14.1507 21.2366 14.477 21.2366 15.0096C21.2366 15.5422 21.0475 15.8685 20.6088 16.0923C19.7676 16.5215 18.73 15.9236 18.73 15.0096C18.73 14.094 19.7662 13.4969 20.6088 13.9269Z" fill="#303636"/>
</svg>