<svg width="30" height="30" viewBox="0 0 30 30" fill="none" xmlns="http://www.w3.org/2000/svg">
<path d="M30 15C30 23.2843 23.2843 30 15 30C6.71573 30 0 23.2843 0 15C0 6.71573 6.71573 0 15 0C23.2843 0 30 6.71573 30 15ZM1.275 15C1.275 22.5801 7.41989 28.725 15 28.725C22.5801 28.725 28.725 22.5801 28.725 15C28.725 7.41989 22.5801 1.275 15 1.275C7.41989 1.275 1.275 7.41989 1.275 15Z" fill="#303636"/>
<path fill-rule="evenodd" clip-rule="evenodd" d="M11.5077 5.40841C10.941 5.68503 10.8589 5.96653 10.3566 9.35143C9.70444 13.7465 9.66327 14.1991 9.83957 15.0327C10.1746 16.6165 11.5042 18.1142 13.0122 18.6064L13.451 18.7496V21.0124V23.2751H12.503C11.8756 23.2751 11.4547 23.3264 11.2584 23.4268C10.6164 23.7552 10.1341 24.652 10.4177 24.99C10.5271 25.1202 11.1534 25.1385 14.7366 25.1153C18.0994 25.0936 18.9845 25.1087 19.0983 24.8198C19.146 24.6988 19.0584 24.5245 18.9608 24.2718C18.6664 23.5096 18.3218 23.3338 17.0387 23.2916L15.965 23.2563L15.9663 21.0123L15.9676 18.7683L16.7006 18.4747C18.3211 17.826 19.4946 16.2527 19.6889 14.4686C19.7705 13.7197 18.6636 6.16058 18.418 5.78999C18.0897 5.29423 17.7664 5.24751 14.6852 5.2501C12.3548 5.25196 11.7684 5.28118 11.5077 5.40841ZM17.2806 10.2208L17.0733 8.6667L16.866 7.11262H14.7442H12.6225L12.5655 7.44934C12.3829 8.5287 12.194 9.83258 12.194 10.0124C12.194 10.2154 12.2592 10.2208 14.7372 10.2208H17.2806Z" fill="#303636"/>
</svg>