<svg width="30" height="30" viewBox="0 0 30 30" fill="none" xmlns="http://www.w3.org/2000/svg">
<path d="M30 15C30 23.2843 23.2843 30 15 30C6.71573 30 0 23.2843 0 15C0 6.71573 6.71573 0 15 0C23.2843 0 30 6.71573 30 15ZM1.275 15C1.275 22.5801 7.41989 28.725 15 28.725C22.5801 28.725 28.725 22.5801 28.725 15C28.725 7.41989 22.5801 1.275 15 1.275C7.41989 1.275 1.275 7.41989 1.275 15Z" fill="#303636"/>
<path fill-rule="evenodd" clip-rule="evenodd" d="M3.19339 17.9398C3.45811 18.3783 3.54879 18.4225 4.97539 18.8099L6.16866 19.1339L6.21479 18.9018C6.24024 18.7741 6.28882 18.3135 6.32276 17.8783C6.71973 12.7995 9.89291 8.60713 14.547 7.01261C15.4545 6.70166 17.2995 6.30297 17.9045 6.28711C18.8174 6.26323 18.806 6.29247 18.424 4.95888C18.015 3.53157 17.9228 3.35002 17.493 3.12561C17.0631 2.9011 16.146 2.97704 14.6981 3.35698C11.9543 4.0769 9.6161 5.46297 7.48782 7.63098C5.20745 9.95399 3.80821 12.6132 3.20495 15.7701C2.9345 17.1855 2.93281 17.5082 3.19339 17.9398ZM7.56132 19.5224C8.16331 19.7392 22.4596 23.4363 22.6961 23.4363C22.8653 23.4363 23.0845 23.3406 23.1931 23.2195C23.3828 23.0077 23.342 22.8371 21.4445 15.9089C20.376 12.0073 19.4299 8.53365 19.3422 8.18981C19.2545 7.84597 19.1105 7.53651 19.022 7.50223C18.7553 7.39886 16.6757 7.6974 15.7175 7.97665C11.4135 9.23086 8.50661 12.4828 7.71467 16.9292C7.45483 18.3882 7.39141 19.4612 7.56132 19.5224ZM11.4264 15.8823C11.604 15.5046 12.1198 15.1884 12.5587 15.1884C12.9791 15.1884 13.5236 15.6297 13.6748 16.0929C14.0337 17.1928 12.9196 18.1333 11.893 17.5971C11.3054 17.2903 11.1072 16.5617 11.4264 15.8823ZM15.2898 11.8919C15.7546 11.1221 17.0055 11.157 17.4267 11.9517C17.6148 12.3069 17.5834 12.9806 17.363 13.3206C17.1279 13.6829 16.5187 13.9387 16.0863 13.8568C15.7592 13.7948 15.2682 13.3687 15.1519 13.0461C15.0295 12.7063 15.0866 12.2286 15.2898 11.8919ZM17.2178 17.7266C17.3538 17.4645 17.9376 17.1173 18.243 17.1169C19.5083 17.1149 20.0071 18.946 18.8989 19.5248C17.7462 20.1267 16.6054 18.9065 17.2178 17.7266Z" fill="#303636"/>
</svg>