<svg width="30" height="30" viewBox="0 0 30 30" fill="none" xmlns="http://www.w3.org/2000/svg">
<path d="M30 15C30 23.2843 23.2843 30 15 30C6.71573 30 0 23.2843 0 15C0 6.71573 6.71573 0 15 0C23.2843 0 30 6.71573 30 15ZM1.275 15C1.275 22.5801 7.41989 28.725 15 28.725C22.5801 28.725 28.725 22.5801 28.725 15C28.725 7.41989 22.5801 1.275 15 1.275C7.41989 1.275 1.275 7.41989 1.275 15Z" fill="#303636"/>
<path fill-rule="evenodd" clip-rule="evenodd" d="M13.7103 5.39728C11.2536 5.98545 9.45322 8.20168 9.41258 10.6876L9.40032 11.4353L9.03369 11.5037C8.50732 11.6019 8.12718 11.8529 7.80224 12.3166C7.18504 13.1976 7.55115 14.488 8.55467 14.9685C8.98205 15.1731 9.17406 15.1793 15.0638 15.1791C21.8499 15.179 21.5314 15.2124 22.1583 14.436C22.9896 13.4065 22.3419 11.7384 21.0154 11.4922L20.6611 11.4264L20.6595 10.7905C20.656 9.33814 20.0828 7.97427 19.0398 6.93676C18.2548 6.15588 17.4635 5.70468 16.4127 5.43883C15.4752 5.20167 14.5844 5.188 13.7103 5.39728ZM11.9758 20.4891C13.1679 22.9347 14.0643 24.6483 14.2244 24.788C14.7415 25.2392 15.3047 25.2207 15.8433 24.7348C16.0579 24.5411 16.7672 23.1987 18.0946 20.4735C19.1605 18.2853 20.0326 16.4788 20.0326 16.4588C20.0326 16.4389 17.7738 16.4226 15.0131 16.4226H9.99353L11.9758 20.4891Z" fill="#303636"/>
</svg>