<svg width="30" height="30" viewBox="0 0 30 30" fill="none" xmlns="http://www.w3.org/2000/svg">
<path d="M30 15C30 23.2843 23.2843 30 15 30C6.71573 30 0 23.2843 0 15C0 6.71573 6.71573 0 15 0C23.2843 0 30 6.71573 30 15ZM1.275 15C1.275 22.5801 7.41989 28.725 15 28.725C22.5801 28.725 28.725 22.5801 28.725 15C28.725 7.41989 22.5801 1.275 15 1.275C7.41989 1.275 1.275 7.41989 1.275 15Z" fill="#F9F0DC"/>
<path d="M3.85718 8.31682V8.86051C12.4354 9.02168 17.2205 8.96574 25.7143 8.86051V8.31682C17.2906 8.09764 12.4976 8.07235 3.85718 8.31682Z" fill="#F9F0DC"/>
<path fill-rule="evenodd" clip-rule="evenodd" d="M20.5122 24.0219C16.0369 24.7431 13.6244 24.6833 9.44866 24.0219C7.70907 18.3033 7.17572 15.1902 6.75024 9.75C12.9649 9.94849 16.5685 9.9655 23.2106 9.75C22.4537 15.5199 21.9173 18.6807 20.5122 24.0219ZM18.3007 17.4631C19.0029 18.1959 19.4675 19.0354 19.5936 19.7991C19.7969 21.0301 19.3871 21.9501 18.4357 22.3988C17.521 22.8302 16.1693 22.5666 15.0942 21.7472C14.264 21.1143 13.7986 20.4343 13.6648 19.6587C13.5825 19.1818 13.6273 18.8671 13.8368 18.4494L14.0001 18.1234L11.5445 15.6413C10.1939 14.2761 9.04849 13.0779 8.99906 12.9786C8.94964 12.8793 8.90922 12.735 8.90922 12.6579C8.90922 12.2968 9.19222 11.9238 9.53713 11.8301C9.60956 11.8105 9.66979 11.7935 9.73084 11.7897C10.0525 11.7701 10.3968 12.1202 12.6659 14.4068L15.1657 16.9257L15.5167 16.7489C15.8182 16.597 15.9277 16.5722 16.2926 16.5728C17.1183 16.5741 17.693 16.8289 18.3007 17.4631Z" fill="#F9F0DC"/>
</svg>