<svg width="30" height="30" viewBox="0 0 30 30" fill="none" xmlns="http://www.w3.org/2000/svg">
<path d="M30 15C30 23.2843 23.2843 30 15 30C6.71573 30 0 23.2843 0 15C0 6.71573 6.71573 0 15 0C23.2843 0 30 6.71573 30 15ZM1.275 15C1.275 22.5801 7.41989 28.725 15 28.725C22.5801 28.725 28.725 22.5801 28.725 15C28.725 7.41989 22.5801 1.275 15 1.275C7.41989 1.275 1.275 7.41989 1.275 15Z" fill="#F9F0DC"/>
<path fill-rule="evenodd" clip-rule="evenodd" d="M12.965 4.75484C12.7292 4.99026 12.6533 5.25008 12.7062 5.64184C12.7177 5.72747 12.9123 6.01854 13.1387 6.28853C13.5802 6.81502 13.8986 7.45704 13.7986 7.61867C13.7648 7.67327 13.621 7.7179 13.479 7.7179C12.5333 7.7179 10.5884 8.32131 9.51339 8.94807C8.61672 9.47103 8.435 9.7239 8.73825 10.0267C8.92985 10.218 8.99805 10.2252 9.61486 10.1178C10.7224 9.92528 10.7003 9.90171 10.221 10.7689C9.70697 11.6985 9.75281 11.9662 10.4104 11.8746C10.4894 11.8636 11.5132 11.4334 12.6855 10.9187L14.8169 9.98268L16.9791 10.9339C19.2355 11.9266 19.6959 12.0371 19.7583 11.601C19.7753 11.4815 19.6026 11.0623 19.3744 10.6694C19.1461 10.2767 18.9726 9.94189 18.9889 9.92569C19.0051 9.9094 19.3596 9.96057 19.7767 10.0393C20.6231 10.1991 20.8887 10.1685 20.9737 9.9012C21.0784 9.57172 20.906 9.37408 20.104 8.90396C19.1829 8.36397 18.1486 8.0154 16.7731 7.78122C16.2348 7.68956 15.778 7.59811 15.7579 7.57808C15.7379 7.55815 15.6506 7.26605 15.5637 6.9291C15.2506 5.71284 14.2346 4.5 13.5287 4.5C13.3397 4.5 13.1213 4.59872 12.965 4.75484ZM6.75207 11.3678C5.64124 12.4984 5.1233 13.6462 4.9212 15.4253C4.73968 17.0232 5.10376 18.9316 5.82504 20.1629C6.23569 20.8639 7.54301 22.1862 8.36472 22.7316C9.22625 23.3035 10.4673 23.8227 11.7271 24.1382C12.5337 24.3403 12.9351 24.3719 14.737 24.3749C17.1067 24.3788 17.7803 24.268 19.4959 23.5918C23.0841 22.1776 24.9393 19.4417 24.7347 15.8665C24.6308 14.0496 24.1221 12.7428 23.0748 11.6016C22.252 10.7052 22.1195 10.6405 21.7698 10.9657C21.6185 11.1066 21.3957 11.2724 21.2749 11.3344C21.138 11.4045 21.0326 11.5857 20.9953 11.8151C20.8608 12.6431 19.9587 13.3023 19.1216 13.1845C18.8829 13.1509 17.8384 12.748 16.8006 12.2891C15.7628 11.8303 14.8559 11.4548 14.7853 11.4548C14.7146 11.4548 13.8094 11.8348 12.7736 12.2994C11.7379 12.7639 10.6987 13.1662 10.4642 13.1934C9.56225 13.2983 8.74012 12.6613 8.58876 11.7403C8.55185 11.5161 8.46577 11.351 8.38562 11.351C8.309 11.351 8.07851 11.1835 7.8734 10.9786L7.50049 10.6062L6.75207 11.3678Z" fill="#F9F0DC"/>
</svg>
