<svg width="18" height="28" viewBox="0 0 18 28" fill="none" xmlns="http://www.w3.org/2000/svg">
<path d="M1 5.99397L0.786609 5.54179L0.5 5.67705V5.99397H1ZM1 26.9686H0.5V27.4455L0.97632 27.4681L1 26.9686ZM16.4444 26.9686L16.0075 26.7254L16.4444 26.9686ZM11.5823 1H12.0823V0.21116L11.3689 0.547823L11.5823 1ZM0.5 5.99397V26.9686H1.5V5.99397H0.5ZM1 26.9686C0.97632 27.4681 0.97639 27.4681 0.976516 27.4681C0.976635 27.4681 0.976818 27.4681 0.977055 27.4681C0.977528 27.4681 0.978229 27.4682 0.979157 27.4682C0.981012 27.4683 0.983771 27.4684 0.98742 27.4686C0.994719 27.4689 1.00558 27.4695 1.01989 27.4701C1.04851 27.4715 1.09092 27.4734 1.14621 27.476C1.2568 27.481 1.41894 27.4883 1.62538 27.4974C2.03825 27.5156 2.62835 27.5407 3.33767 27.5686C4.75605 27.6244 6.65222 27.6914 8.56153 27.736C10.4692 27.7807 12.3966 27.8032 13.875 27.7695C14.6123 27.7527 15.2497 27.7217 15.7206 27.6705C15.9539 27.6452 16.1636 27.6133 16.33 27.5704C16.4123 27.5493 16.5018 27.5211 16.5843 27.4808C16.6518 27.4478 16.7929 27.3705 16.8812 27.2119L16.0075 26.7254C16.0424 26.6628 16.0836 26.6258 16.1053 26.6086C16.1278 26.5908 16.144 26.5829 16.1459 26.582C16.1482 26.5809 16.1307 26.5892 16.0809 26.602C15.9833 26.6271 15.8289 26.6529 15.6128 26.6764C15.1848 26.7228 14.5814 26.7531 13.8522 26.7697C12.3975 26.8029 10.4887 26.7809 8.58492 26.7363C6.68279 26.6918 4.79234 26.625 3.37698 26.5693C2.66941 26.5415 2.08086 26.5165 1.66928 26.4984C1.4635 26.4893 1.30197 26.482 1.19196 26.477C1.13695 26.4745 1.09481 26.4725 1.06647 26.4712C1.05229 26.4705 1.04156 26.47 1.03439 26.4697C1.03081 26.4695 1.02812 26.4694 1.02633 26.4693C1.02543 26.4693 1.02476 26.4692 1.02432 26.4692C1.0241 26.4692 1.02394 26.4692 1.02383 26.4692C1.02373 26.4692 1.02368 26.4692 1 26.9686ZM16.8812 27.2119C16.9702 27.052 17.023 26.8272 17.0617 26.6191C17.1043 26.39 17.1423 26.1039 17.1766 25.7745C17.2453 25.1143 17.3023 24.2501 17.3483 23.2574C17.4403 21.2704 17.4896 18.7435 17.4985 16.2512C17.5075 13.759 17.4762 11.2949 17.4065 9.43317C17.3718 8.50367 17.3272 7.71686 17.2725 7.14955C17.2453 6.86791 17.2144 6.62743 17.1782 6.44642C17.1604 6.35789 17.138 6.26577 17.1074 6.18427C17.0922 6.14386 17.0693 6.09053 17.0348 6.03667C17.005 5.9902 16.9363 5.89462 16.8106 5.83193L16.3642 6.72675C16.2564 6.67297 16.2052 6.59551 16.1927 6.57607C16.1756 6.54924 16.1697 6.53186 16.1713 6.53603C16.1742 6.5437 16.1841 6.5753 16.1976 6.64279C16.2239 6.77384 16.2509 6.97465 16.2771 7.24564C16.329 7.78358 16.3727 8.54734 16.4072 9.47053C16.4762 11.3142 16.5074 13.7638 16.4985 16.2476C16.4896 18.7315 16.4405 21.2432 16.3493 23.2112C16.3037 24.196 16.2478 25.0385 16.182 25.6709C16.149 25.9877 16.1142 26.2443 16.0785 26.4365C16.0607 26.5326 16.0436 26.6065 16.0283 26.6606C16.0115 26.7199 16.0023 26.7347 16.0075 26.7254L16.8812 27.2119ZM1.21339 6.44615L11.7956 1.45218L11.3689 0.547823L0.786609 5.54179L1.21339 6.44615ZM16.8106 5.83193C16.661 5.75728 16.4567 5.71775 16.2848 5.69106C16.0916 5.66109 15.858 5.63651 15.6043 5.61599C15.0958 5.57485 14.4783 5.5478 13.8854 5.52987C13.2912 5.5119 12.7157 5.50293 12.2891 5.49846C12.0757 5.49621 11.8993 5.49509 11.7761 5.49453C11.7145 5.49425 11.6662 5.49411 11.6332 5.49404C11.6168 5.494 11.6041 5.49399 11.5955 5.49398C11.5912 5.49397 11.5879 5.49397 11.5857 5.49397C11.5846 5.49397 11.5838 5.49397 11.5832 5.49397C11.5829 5.49397 11.5827 5.49397 11.5825 5.49397C11.5824 5.49397 11.5824 5.49397 11.5823 5.49397C11.5823 5.49397 11.5823 5.49397 11.5823 5.99397C11.5823 6.49397 11.5823 6.49397 11.5823 6.49397C11.5823 6.49397 11.5823 6.49397 11.5824 6.49397C11.5825 6.49397 11.5827 6.49397 11.5829 6.49397C11.5834 6.49397 11.5842 6.49397 11.5852 6.49397C11.5873 6.49397 11.5904 6.49397 11.5945 6.49398C11.6027 6.49399 11.615 6.494 11.6311 6.49404C11.6633 6.49411 11.7108 6.49424 11.7716 6.49452C11.8931 6.49507 12.0675 6.49618 12.2786 6.4984C12.7012 6.50284 13.2697 6.51171 13.8552 6.52941C14.4421 6.54716 15.0401 6.57361 15.5237 6.61273C15.7661 6.63234 15.9726 6.65458 16.1314 6.67923C16.3114 6.70716 16.3708 6.73005 16.3642 6.72675L16.8106 5.83193ZM11.5823 5.49397H1V6.49397H11.5823V5.49397ZM11.0823 1V5.99397H12.0823V1H11.0823Z" fill="#F9F0DC"/>
<path fill-rule="evenodd" clip-rule="evenodd" d="M3.7281 9.70474C3.55641 9.89662 2.71335 13.7093 2.71423 14.2903C2.71497 14.7922 2.85722 15.2708 3.12995 15.6887C3.34167 16.0132 3.96786 16.4621 4.35797 16.5693L4.63166 16.6445L4.65234 19.8731L4.67294 23.1016L4.90181 23.3876C5.3307 23.9235 5.94651 23.9894 6.43891 23.5521C6.58021 23.4267 6.72643 23.2051 6.76809 23.0534C6.81335 22.8886 6.84322 21.5682 6.84344 19.7202L6.84389 16.6599L7.27866 16.4996C7.82177 16.2993 8.39372 15.7723 8.6209 15.263C8.89686 14.6442 8.8544 14.0013 8.40233 11.9509C7.94231 9.86469 7.90522 9.74002 7.71425 9.63663C7.49966 9.52052 7.21788 9.61788 7.13568 9.83655C7.09645 9.9409 7.06466 10.9245 7.06466 12.0348V14.0444L6.82821 14.021L6.59176 13.9977L6.35274 11.9881C6.2213 10.8828 6.09539 9.90361 6.07294 9.81214C6.02033 9.59771 5.69674 9.50653 5.54235 9.66268C5.46184 9.74411 5.37169 10.3011 5.21862 11.6634C4.92992 14.2316 4.9754 14.0349 4.66963 14.0349H4.41537V11.9509C4.41537 9.96606 4.40838 9.85977 4.26819 9.71799C4.08502 9.53273 3.8864 9.52789 3.7281 9.70474ZM13.3567 9.88292C12.5048 10.3304 11.6211 11.2413 11.2061 12.0997C10.6887 13.1701 10.6567 13.367 10.6174 15.7113C10.5764 18.1478 10.5958 18.272 11.0978 18.7956C11.4676 19.1813 11.9726 19.3939 12.519 19.3939H12.7953L12.8185 21.1988C12.8441 23.1983 12.8679 23.3105 13.3372 23.6491C13.8287 24.0036 14.4576 23.8436 14.8469 23.2649L15.0125 23.0189L15.0114 16.6475C15.0106 11.7004 14.9898 10.2351 14.9184 10.0924C14.7965 9.84876 14.3761 9.56853 14.1369 9.57143C14.0316 9.5727 13.6805 9.71292 13.3567 9.88292Z" fill="#F9F0DC"/>
</svg>