<svg width="13" height="13" viewBox="0 0 13 13" fill="none" xmlns="http://www.w3.org/2000/svg">
<path d="M10.9777 6.35552C10.3277 5.66941 9.46107 5.19996 8.55829 5.01941C8.16107 4.91107 7.76385 4.83885 7.36662 4.80274C8.37774 3.61107 8.19718 1.80552 7.00551 0.794406C5.81385 -0.216705 4.00829 -0.0361493 2.99718 1.15552C1.98607 2.34718 2.16662 4.15274 3.35829 5.16385C3.57496 5.34441 3.79162 5.48885 4.00829 5.56107V6.35552L3.43051 5.81385C2.92496 5.3083 2.0944 5.3083 1.55273 5.81385C1.04718 6.31941 1.01107 7.11385 1.51662 7.61941L3.17774 9.56941C3.24996 10.075 3.43051 10.5444 3.68329 10.9777C3.86385 11.3027 4.11662 11.6277 4.3694 11.8805V12.5666C4.3694 12.7833 4.51385 12.9277 4.73051 12.9277H9.64163C9.82218 12.9277 10.0027 12.7472 10.0027 12.5666V11.6277C10.6888 10.7972 11.05 9.74996 11.05 8.70274V6.6083C11.0861 6.46385 11.05 6.39163 10.9777 6.35552V6.35552ZM3.03329 2.96107C3.03329 1.76941 4.00829 0.830517 5.19996 0.866629C6.39162 0.866629 7.33051 1.84163 7.2944 3.0333C7.2944 3.6833 7.00551 4.26107 6.49996 4.6583V2.85274C6.48152 2.53979 6.34407 2.24575 6.11578 2.03089C5.8875 1.81604 5.58567 1.69664 5.27218 1.69718C4.62218 1.66107 4.0444 2.20274 4.0444 2.85274V4.73052C3.43051 4.36941 3.0694 3.6833 3.03329 2.96107ZM10.3638 8.66663C10.4 9.60552 10.075 10.5083 9.46107 11.2305C9.38885 11.3027 9.31662 11.375 9.31662 11.4833V12.2416H5.12774V11.7361C5.12774 11.6277 5.05551 11.5194 4.98329 11.4472C4.73051 11.2305 4.51385 10.9777 4.33329 10.6527C4.11662 10.2916 3.97218 9.8583 3.89996 9.42496C3.89996 9.35274 3.86385 9.28052 3.82774 9.2083L2.0944 7.14996C1.98607 7.04163 1.91385 6.89719 1.91385 6.71663C1.91385 6.57219 1.98607 6.39163 2.0944 6.2833C2.34718 6.06663 2.70829 6.06663 2.96107 6.2833L4.00829 7.33052V8.41385L4.6944 8.05274V2.85274C4.73051 2.59996 4.94718 2.3833 5.23607 2.41941C5.48885 2.41941 5.74162 2.59996 5.74162 2.85274V7.00552L6.46385 7.14996V5.48885C6.49996 5.45274 6.53607 5.45274 6.57218 5.41663C6.82496 5.41663 7.07774 5.45274 7.33051 5.48885V7.33052L7.90829 7.43885V5.56107L8.34162 5.66941C8.52218 5.70552 8.70274 5.77774 8.88329 5.84996V7.65552L9.46107 7.76385V6.10274C9.78607 6.24719 10.075 6.46385 10.3277 6.71663L10.3638 8.66663V8.66663Z" fill="#F9F0DC"/>
</svg>
