<svg width="11" height="13" viewBox="0 0 11 13" fill="none" xmlns="http://www.w3.org/2000/svg">
<path fill-rule="evenodd" clip-rule="evenodd" d="M8.1457 5.50042C9.06236 5.67164 9.94236 6.11682 10.6024 6.76748C10.6757 6.80172 10.7124 6.87021 10.6757 7.00719V8.99339C10.6757 9.9865 10.309 10.9796 9.61236 11.7672V12.6576C9.61236 12.8288 9.42903 13 9.2457 13H4.25903C4.03903 13 3.89236 12.8631 3.89236 12.6576V12.0069C3.6357 11.7672 3.37903 11.459 3.1957 11.1508C2.93903 10.7399 2.7557 10.2947 2.68236 9.81527L0.995697 7.96605C0.482364 7.48662 0.519031 6.73323 1.03236 6.2538C1.58236 5.77437 2.4257 5.77437 2.93903 6.2538L3.5257 6.76748V6.01409L3.56236 5.22646V3.44572C3.56236 2.82931 4.14903 2.31564 4.80903 2.34989C5.12735 2.34937 5.43381 2.4626 5.66561 2.66635C5.89741 2.8701 6.03697 3.14895 6.0557 3.44572V5.15797L6.9357 5.29495C7.33903 5.32919 7.74236 5.39768 8.1457 5.50042ZM9.06236 11.3905C9.6857 10.7056 10.0157 9.84952 9.97903 8.95915L9.94236 7.10993C9.6857 6.87021 9.39236 6.66474 9.06236 6.52776V8.10303L8.4757 8.00029V6.28805C8.29236 6.21956 8.10903 6.15107 7.9257 6.11682L7.4857 6.01409V7.79482L6.89903 7.69209V5.9456C6.64236 5.91135 6.3857 5.87711 6.12903 5.87711C6.1107 5.89423 6.09236 5.90279 6.07403 5.91135C6.0557 5.91991 6.03736 5.92848 6.01903 5.9456V7.52086L5.2857 7.38388V3.44572C5.2857 3.20601 5.02903 3.03478 4.77236 3.03478C4.47903 3.00054 4.25903 3.20601 4.22236 3.44572V8.37699L3.5257 8.71943V7.69209L2.46236 6.69899C2.2057 6.49352 1.83903 6.49352 1.58236 6.69899C1.47236 6.80172 1.39903 6.97295 1.39903 7.10993C1.39903 7.28115 1.47236 7.41813 1.58236 7.52086L3.34236 9.47282C3.37903 9.54131 3.4157 9.6098 3.4157 9.67829C3.48903 10.0892 3.6357 10.5002 3.8557 10.8426C4.03903 11.1508 4.25903 11.3905 4.5157 11.596C4.58903 11.6645 4.66236 11.7672 4.66236 11.87V12.3494H8.9157V11.6303C8.9157 11.5275 8.98903 11.459 9.06236 11.3905Z" fill="#F9F0DC"/>
<path d="M10.175 0.513673V1.55129C8.899 0.580451 7.271 0 5.5 0C3.729 0 2.101 0.580451 0.825 1.55129V0.513673H0V3.08204H2.75V2.31153H1.1495C2.31 1.3561 3.8335 0.77051 5.5 0.77051C7.1665 0.77051 8.6845 1.3561 9.8505 2.31153H8.25V3.08204H11V0.513673H10.175Z" fill="#F9F0DC"/>
</svg>
