<svg width="30" height="48" viewBox="0 0 30 48" fill="none" xmlns="http://www.w3.org/2000/svg">
<path d="M1 9.73944V46.4451C1 46.4451 27.3325 47.6936 28.0276 46.4451C29.2789 44.1978 29.2789 10.7382 28.2779 10.2388C27.2769 9.73944 19.5189 9.73944 19.5189 9.73944H1Z" fill="#303636"/>
<path d="M19.5189 1L1 9.73944H19.5189V1Z" fill="#9E9E9E"/>
<path d="M1 9.73944L0.893304 9.51336L0.75 9.58098V9.73944H1ZM1 46.4451H0.75V46.6835L0.98816 46.6948L1 46.4451ZM28.0276 46.4451L27.8092 46.3235L28.0276 46.4451ZM19.5189 1H19.7689V0.60558L19.4122 0.773911L19.5189 1ZM0.75 9.73944V46.4451H1.25V9.73944H0.75ZM1 46.4451C0.98816 46.6948 0.988267 46.6948 0.988473 46.6948C0.988675 46.6949 0.988982 46.6949 0.989386 46.6949C0.990195 46.6949 0.991402 46.695 0.993005 46.6951C0.99621 46.6952 1.001 46.6954 1.00734 46.6957C1.02004 46.6963 1.03896 46.6972 1.06392 46.6984C1.11383 46.7007 1.18787 46.7041 1.28446 46.7086C1.47764 46.7174 1.761 46.7302 2.12186 46.7461C2.84357 46.7778 3.87528 46.8217 5.11549 46.8705C7.59577 46.9681 10.9105 47.0852 14.2473 47.1632C17.5833 47.2413 20.9447 47.2804 23.517 47.2218C24.8023 47.1924 25.8964 47.1386 26.6937 47.0521C27.0913 47.009 27.4236 46.9568 27.6718 46.893C27.7955 46.8612 27.9071 46.8243 27.9986 46.7796C28.0825 46.7387 28.1864 46.6739 28.2461 46.5667L27.8092 46.3235C27.8255 46.2943 27.8359 46.3027 27.7793 46.3303C27.7303 46.3542 27.6547 46.3811 27.5473 46.4087C27.3334 46.4638 27.0287 46.5128 26.6397 46.555C25.8639 46.6392 24.7868 46.6927 23.5056 46.7219C20.9451 46.7803 17.593 46.7414 14.259 46.6634C10.9258 46.5854 7.61392 46.4684 5.13514 46.3709C3.89581 46.3221 2.86487 46.2782 2.14381 46.2466C1.78328 46.2307 1.50022 46.2179 1.30733 46.2091C1.21089 46.2047 1.13698 46.2012 1.0872 46.1989C1.06232 46.1978 1.04346 46.1969 1.03083 46.1963C1.02452 46.196 1.01976 46.1958 1.01659 46.1956C1.015 46.1955 1.01381 46.1955 1.01302 46.1954C1.01262 46.1954 1.01233 46.1954 1.01213 46.1954C1.01193 46.1954 1.01184 46.1954 1 46.4451ZM28.2461 46.5667C28.3464 46.3865 28.4252 46.0867 28.4935 45.7193C28.5637 45.3414 28.6281 44.8592 28.6874 44.2905C28.8059 43.1526 28.9049 41.6539 28.9851 39.9216C29.1457 36.4562 29.2317 32.0436 29.2474 27.6874C29.263 23.3312 29.2083 19.0281 29.0869 15.7814C29.0262 14.1587 28.9488 12.7962 28.8547 11.8218C28.8078 11.3356 28.7561 10.9395 28.6989 10.654C28.6705 10.5122 28.6391 10.3888 28.6028 10.2923C28.5848 10.2443 28.5627 10.1951 28.5346 10.1513C28.5089 10.1112 28.4635 10.0521 28.3895 10.0151L28.1663 10.4625C28.1236 10.4412 28.109 10.4138 28.1136 10.421C28.1158 10.4245 28.1235 10.4383 28.1348 10.4682C28.1572 10.5278 28.1824 10.6209 28.2087 10.7522C28.2608 11.0127 28.3106 11.3889 28.357 11.8698C28.4497 12.8296 28.5267 14.1806 28.5872 15.8001C28.7083 19.0377 28.763 23.3336 28.7474 27.6856C28.7318 32.0376 28.6458 36.4426 28.4857 39.8985C28.4056 41.6268 28.3071 43.1147 28.1901 44.2387C28.1315 44.8011 28.0686 45.2686 28.0019 45.628C27.9331 45.9979 27.8653 46.2228 27.8092 46.3235L28.2461 46.5667ZM1.1067 9.96553L19.6256 1.22609L19.4122 0.773911L0.893304 9.51336L1.1067 9.96553ZM28.3895 10.0151C28.2253 9.93322 27.9584 9.87444 27.6525 9.82696C27.336 9.77783 26.944 9.73628 26.5072 9.70094C25.6329 9.63021 24.5644 9.58324 23.5306 9.55198C22.4961 9.52071 21.4933 9.50507 20.7494 9.49726C20.3773 9.49335 20.0699 9.4914 19.8554 9.49042C19.7481 9.48993 19.6641 9.48969 19.6068 9.48957C19.5782 9.48951 19.5563 9.48948 19.5415 9.48946C19.5341 9.48945 19.5285 9.48945 19.5247 9.48945C19.5228 9.48945 19.5214 9.48945 19.5204 9.48944C19.5199 9.48944 19.5196 9.48944 19.5193 9.48944C19.5192 9.48944 19.5191 9.48944 19.519 9.48944C19.519 9.48944 19.5189 9.48944 19.5189 9.73944C19.5189 9.98944 19.519 9.98944 19.519 9.98944C19.5191 9.98944 19.5192 9.98944 19.5193 9.98944C19.5195 9.98944 19.5198 9.98944 19.5203 9.98944C19.5212 9.98945 19.5226 9.98945 19.5244 9.98945C19.5281 9.98945 19.5337 9.98945 19.541 9.98946C19.5556 9.98947 19.5773 9.98951 19.6058 9.98957C19.6627 9.98969 19.7463 9.98993 19.8531 9.99042C20.0668 9.99139 20.3732 9.99334 20.7441 9.99723C21.4861 10.005 22.4854 10.0206 23.5155 10.0518C24.5463 10.0829 25.605 10.1296 26.4668 10.1993C26.8981 10.2342 27.2764 10.2746 27.5758 10.321C27.8857 10.3691 28.0802 10.4196 28.1663 10.4625L28.3895 10.0151ZM19.5189 9.48944H1V9.98944H19.5189V9.48944ZM19.2689 1V9.73944H19.7689V1H19.2689Z" fill="#303636"/>
<path fill-rule="evenodd" clip-rule="evenodd" d="M5.27683 15.7159C4.97638 16.0517 3.50102 22.7238 3.50256 23.7406C3.50385 24.619 3.75279 25.4565 4.23007 26.1877C4.60058 26.7556 5.69641 27.5413 6.3791 27.7289L6.85805 27.8604L6.89424 33.5105L6.9303 39.1604L7.33082 39.6609C8.08138 40.5987 9.15905 40.714 10.0208 39.9487C10.268 39.7293 10.5239 39.3415 10.5968 39.076C10.676 38.7875 10.7283 36.4769 10.7287 33.2428L10.7295 27.8874L11.4903 27.6068C12.4407 27.2563 13.4417 26.3341 13.8392 25.4428C14.3222 24.3599 14.2479 23.2348 13.4567 19.6466C12.6517 15.9958 12.5868 15.7776 12.2526 15.5967C11.8771 15.3935 11.3839 15.5639 11.2401 15.9465C11.1714 16.1292 11.1158 17.8504 11.1158 19.7935V23.3102L10.702 23.2693L10.2882 23.2285L9.86995 19.7117C9.63994 17.7775 9.41958 16.0639 9.38031 15.9038C9.28822 15.5286 8.72196 15.369 8.45177 15.6423C8.31088 15.7848 8.15312 16.7596 7.88524 19.1434C7.38002 23.6379 7.45961 23.2937 6.92451 23.2937H6.47956V19.6466C6.47956 16.1732 6.46732 15.9872 6.22199 15.739C5.90144 15.4149 5.55385 15.4064 5.27683 15.7159ZM22.1269 16.0277C20.636 16.8108 19.0895 18.4049 18.3633 19.9071C17.458 21.7803 17.4018 22.1248 17.333 26.2273C17.2614 30.4913 17.2953 30.7087 18.1739 31.6248C18.8209 32.2998 19.7047 32.6718 20.661 32.6718H21.1444L21.185 35.8304C21.2298 39.3296 21.2714 39.5259 22.0928 40.1185C22.9528 40.7388 24.0534 40.4588 24.7348 39.4462L25.0246 39.0156L25.0226 27.8658C25.0212 19.2083 24.9848 16.644 24.8599 16.3942C24.6466 15.9679 23.9108 15.4775 23.4923 15.4826C23.308 15.4848 22.6936 15.7302 22.1269 16.0277Z" fill="#F9F0DC"/>
</svg>
