<svg width="26" height="26" viewBox="0 0 26 26" fill="none" xmlns="http://www.w3.org/2000/svg">
<path fill-rule="evenodd" clip-rule="evenodd" d="M1.53433 0.38644C0.980652 0.661452 0.647454 0.962464 0.378225 1.43108L0 2.08929V13V23.9107L0.378225 24.5689C0.647454 25.0375 0.980652 25.3385 1.53433 25.6136L2.31236 26L12.9562 25.9932C24.1891 25.9861 24.319 25.9785 25.1074 25.2796C25.2847 25.1225 25.558 24.7155 25.7148 24.375C25.9829 23.7931 26 23.1095 26 13C26 2.89049 25.9829 2.2069 25.7148 1.625C25.558 1.28452 25.2847 0.8775 25.1074 0.720417C24.319 0.021512 24.1891 0.0139285 12.9562 0.00680947L2.31236 0L1.53433 0.38644ZM17.7564 3.87632C19.6418 4.18136 20.9655 5.17477 21.7678 6.88691L22.2028 7.81548V13V18.1845L21.7678 19.1131C20.9449 20.8693 19.627 21.8315 17.6187 22.1421C16.9192 22.2503 14.908 22.2916 12.2117 22.2534C8.28027 22.1975 7.84909 22.1647 7.09482 21.8638C5.25043 21.1279 4.07942 19.5604 3.806 17.4613C3.61503 15.9946 3.61503 10.0054 3.806 8.53868C4.13501 6.01265 5.75209 4.27499 8.1514 3.86889C9.21372 3.68921 16.6343 3.69494 17.7564 3.87632ZM8.20217 5.57313C7.15894 5.78701 6.34924 6.42262 5.86326 7.40923L5.43426 8.27976V13V17.7202L5.86326 18.5908C6.38138 19.6425 7.17043 20.2179 8.40665 20.4457C8.91266 20.5391 11.0479 20.584 13.5628 20.5542C17.282 20.5104 17.9382 20.4666 18.4743 20.2266C19.2635 19.8733 19.7405 19.427 20.1607 18.6488C20.4833 18.0514 20.4949 17.8538 20.4949 13C20.4949 8.1462 20.4833 7.94857 20.1607 7.35119C19.7407 6.57336 19.2638 6.12702 18.4743 5.77293C17.9303 5.52887 17.3112 5.49188 13.3528 5.46774C10.8763 5.45257 8.5585 5.50008 8.20217 5.57313ZM18.7889 7.27582C19.4419 7.995 18.9142 9.13095 17.9272 9.13095C17.4536 9.13095 16.8462 8.52227 16.8462 8.04762C16.8462 7.90029 16.9911 7.59633 17.1681 7.37208C17.5707 6.86183 18.3698 6.81432 18.7889 7.27582ZM15.0556 8.73476C15.9781 9.18466 16.8055 10.0117 17.3414 11.0198C17.8433 11.9637 17.843 13.8385 17.341 14.9345C16.2547 17.3064 13.4237 18.3854 11.1014 17.3129C9.96318 16.7873 9.38746 16.278 8.87974 15.3482C7.90297 13.5596 8.08727 11.5022 9.36013 9.98214C10.7915 8.2728 13.0804 7.77152 15.0556 8.73476ZM12.2552 10.0501C10.0801 10.5688 9.20425 13.2858 10.6741 14.9546C13.0081 17.6042 17.2404 14.887 15.778 11.6782C15.1647 10.3324 13.7715 9.68841 12.2552 10.0501Z" fill="#9E9E9E"/>
</svg>
