<svg width="26" height="25" viewBox="0 0 26 25" fill="none" xmlns="http://www.w3.org/2000/svg">
<path fill-rule="evenodd" clip-rule="evenodd" d="M1.53433 0.371577C0.980652 0.636012 0.647454 0.925446 0.378225 1.37604L0 2.00893V12.5V22.9911L0.378225 23.624C0.647454 24.0746 0.980652 24.364 1.53433 24.6284C2.30677 24.9973 2.34232 25 6.55155 25H10.7909V20.7589V16.5179H8.92772H7.06454V14.5089V12.5H8.92772H10.7909L10.7926 10.3795C10.7948 7.63125 11.0253 6.8256 12.1524 5.63006C13.4781 4.22366 15.8448 3.75089 18.9811 4.26577L19.4857 4.34866V6.0433V7.7381L18.2824 7.74643C16.7568 7.75714 16.0982 7.97455 15.6484 8.61577C15.3307 9.0686 15.2936 9.29807 15.2936 10.8107V12.5H17.3224C19.18 12.5 19.345 12.522 19.276 12.7604C19.2345 12.9037 19.0809 13.8076 18.9348 14.7693L18.669 16.5179H16.9813H15.2936V20.7589V25L19.4469 24.9935C24.5768 24.9854 25.0266 24.8738 25.7148 23.4375C25.9829 22.878 26 22.2207 26 12.5C26 2.77932 25.9829 2.12202 25.7148 1.5625C25.558 1.23512 25.2847 0.84375 25.1074 0.692708C24.319 0.0206847 24.1891 0.0133928 12.9562 0.00654757L2.31236 0L1.53433 0.371577Z" fill="#9E9E9E"/>
</svg>
