<svg width="42" height="42" viewBox="0 0 42 42" fill="none" xmlns="http://www.w3.org/2000/svg">
<path fill-rule="evenodd" clip-rule="evenodd" d="M2.47853 0.62425C1.58413 1.0685 1.04589 1.55475 0.610978 2.31175L0 3.375V21V38.625L0.610978 39.6883C1.04589 40.4453 1.58413 40.9315 2.47853 41.3758L3.73535 42L20.9293 41.989C39.0748 41.9775 39.2845 41.9653 40.5581 40.8363C40.8445 40.5825 41.2859 39.925 41.5393 39.375C41.9724 38.435 42 37.3307 42 21C42 4.66925 41.9724 3.565 41.5393 2.625C41.2859 2.075 40.8445 1.4175 40.5581 1.16375C39.2845 0.0347502 39.0748 0.0224999 20.9293 0.0109999L3.73535 0L2.47853 0.62425ZM28.6834 6.26175C31.729 6.7545 33.8674 8.35925 35.1634 11.125L35.8661 12.625V21V29.375L35.1634 30.875C33.8341 33.712 31.7052 35.2663 28.4609 35.768C27.331 35.9428 24.0822 36.0095 19.7266 35.9478C13.3758 35.8575 12.6793 35.8045 11.4609 35.3185C8.48146 34.1298 6.58984 31.5975 6.14816 28.2068C5.83966 25.8375 5.83966 16.1625 6.14816 13.7932C6.67963 9.71275 9.29184 6.90575 13.1676 6.24975C14.8837 5.9595 26.8708 5.96875 28.6834 6.26175ZM13.2497 9.00275C11.5644 9.34825 10.2565 10.375 9.47142 11.9688L8.77843 13.375V21V28.625L9.47142 30.0312C10.3084 31.7303 11.583 32.6597 13.58 33.0277C14.3974 33.1785 17.8465 33.251 21.9092 33.203C27.9171 33.1322 28.9771 33.0615 29.8431 32.6738C31.118 32.103 31.8885 31.382 32.5672 30.125C33.0884 29.16 33.1072 28.8408 33.1072 21C33.1072 13.1592 33.0884 12.84 32.5672 11.875C31.8888 10.6185 31.1185 9.8975 29.8431 9.3255C28.9643 8.93125 27.9643 8.8715 21.5698 8.8325C17.5694 8.808 13.8253 8.88475 13.2497 9.00275ZM30.3513 11.7533C31.4062 12.915 30.5537 14.75 28.9593 14.75C28.1943 14.75 27.2131 13.7667 27.2131 13C27.2131 12.762 27.4471 12.271 27.7331 11.9087C28.3834 11.0845 29.6743 11.0078 30.3513 11.7533ZM24.3205 14.11C25.8108 14.8368 27.1474 16.1728 28.013 17.8013C28.8238 19.326 28.8233 22.3545 28.0125 24.125C26.2575 27.9565 21.6845 29.6995 17.9331 27.967C16.0944 27.118 15.1644 26.2952 14.3442 24.7932C12.7663 21.904 13.0641 18.5805 15.1202 16.125C17.4324 13.3637 21.1299 12.554 24.3205 14.11ZM19.7969 16.2348C16.2832 17.0728 14.8684 21.4617 17.2428 24.1575C21.013 28.4375 27.8499 24.0482 25.4875 18.8647C24.4968 16.6907 22.2463 15.6505 19.7969 16.2348Z" fill="#F9F0DC"/>
</svg>
