<svg width="57" height="30" viewBox="0 0 57 30" fill="none" xmlns="http://www.w3.org/2000/svg">
<path d="M47.9301 27.5436C48.1761 27.5436 48.376 27.3499 48.3705 27.1112C48.3193 24.8761 47.8718 22.6662 47.0477 20.5787C46.9596 20.3557 46.6991 20.25 46.4715 20.3404L43.5865 21.4864C43.3589 21.5768 43.2505 21.8291 43.3372 22.0525C43.9659 23.6717 44.3121 25.3814 44.3616 27.1112C44.3684 27.3499 44.5671 27.5436 44.8131 27.5436H47.9301Z" fill="#9E9E9E"/>
<path d="M46.0205 19.3511C46.2425 19.2483 46.337 18.99 46.2262 18.7768C45.1888 16.7809 43.8049 14.9735 42.1353 13.4341C41.957 13.2696 41.675 13.2832 41.5097 13.4599L39.414 15.7005C39.2487 15.8773 39.2627 16.1503 39.4401 16.3157C40.7256 17.5142 41.7963 18.9125 42.608 20.453C42.7201 20.6656 42.9853 20.7573 43.2073 20.6545L46.0205 19.3511Z" fill="#9E9E9E"/>
<path d="M40.7099 12.7919C40.8652 12.6068 40.8369 12.334 40.6428 12.1874C38.8256 10.8144 36.7784 9.75585 34.591 9.05812C34.3573 8.98359 34.1084 9.11296 34.0369 9.34143L33.1301 12.2372C33.0585 12.4657 33.1915 12.7066 33.4247 12.7824C35.1147 13.3316 36.6986 14.1506 38.1112 15.2057C38.3061 15.3513 38.5862 15.324 38.7415 15.1388L40.7099 12.7919Z" fill="#9E9E9E"/>
<path d="M32.6898 8.99403C32.7444 8.76119 32.5944 8.52894 32.3534 8.48108C30.0977 8.03298 27.7793 7.96572 25.5001 8.28225C25.2567 8.31606 25.0926 8.5392 25.1329 8.77479L25.6426 11.7607C25.6828 11.9963 25.9121 12.155 26.1557 12.1225C27.9213 11.887 29.7149 11.9391 31.4629 12.2765C31.7041 12.323 31.9427 12.1779 31.9973 11.9451L32.6898 8.99403Z" fill="#9E9E9E"/>
<path d="M23.6947 9.06041C23.6364 8.82841 23.3953 8.68573 23.1578 8.74745C20.9336 9.32531 18.8286 10.2711 16.9352 11.5432C16.733 11.6791 16.6889 11.9499 16.8333 12.1432L18.6635 14.5932C18.8079 14.7865 19.086 14.829 19.289 14.6943C20.7601 13.7175 22.3887 12.9858 24.1077 12.5293C24.3449 12.4663 24.4915 12.2329 24.4333 12.0009L23.6947 9.06041Z" fill="#9E9E9E"/>
<path d="M15.9212 12.8262C15.7653 12.6415 15.4844 12.614 15.2977 12.7694C13.5494 14.2242 12.0724 15.9608 10.9316 17.9027C10.8098 18.1101 10.8906 18.3728 11.1069 18.4865L13.8481 19.9274C14.0643 20.041 14.334 19.9626 14.4571 19.7559C15.3487 18.2575 16.4914 16.914 17.8381 15.7807C18.0239 15.6243 18.0523 15.3523 17.8964 15.1676L15.9212 12.8262Z" fill="#9E9E9E"/>
<path d="M10.4823 19.7097C10.2582 19.6114 9.9939 19.7079 9.89764 19.9277C8.99644 21.985 8.46712 24.1777 8.33293 26.4096C8.3186 26.648 8.51116 26.8485 8.75693 26.8571L11.872 26.9663C12.1177 26.9749 12.3235 26.7884 12.3392 26.5501C12.453 24.8231 12.8625 23.1267 13.5509 21.5305C13.6459 21.3103 13.5469 21.0544 13.3228 20.956L10.4823 19.7097Z" fill="#9E9E9E"/>
<path d="M56.5581 27.6877C56.8041 27.6877 57.0038 27.4941 56.9999 27.2553C56.9759 25.761 56.8273 24.271 56.5557 22.7999C56.5122 22.5648 56.278 22.412 56.0366 22.4579L49.9136 23.6201C49.6723 23.666 49.5154 23.893 49.5575 24.1283C49.7426 25.1615 49.8468 26.2068 49.8693 27.2553C49.8745 27.4941 50.0733 27.6877 50.3193 27.6877H56.5581Z" fill="#9E9E9E"/>
<path d="M55.7604 21.2358C55.9994 21.1793 56.1463 20.9453 56.0843 20.7142C55.2273 17.516 53.7875 14.4926 51.8333 11.7871C51.6921 11.5916 51.4133 11.5487 51.2142 11.6888L46.163 15.2444C45.9639 15.3846 45.9199 15.6547 46.06 15.8509C47.4722 17.8278 48.5199 20.0279 49.1563 22.353C49.2195 22.5838 49.4599 22.7262 49.6989 22.6697L55.7604 21.2358Z" fill="#9E9E9E"/>
<path d="M50.4811 10.7503C50.6738 10.6019 50.7064 10.3297 50.5506 10.1449C48.3946 7.58802 45.7845 5.42648 42.844 3.76263C42.6316 3.6424 42.3599 3.7166 42.2394 3.92478L39.1827 9.20587C39.0622 9.41404 39.1386 9.67725 39.3505 9.79856C41.4847 11.0207 43.384 12.5936 44.9636 14.4471C45.1204 14.6311 45.4001 14.6628 45.5928 14.5145L50.4811 10.7503Z" fill="#9E9E9E"/>
<path d="M40.7787 3.18162C40.8864 2.96694 40.7946 2.70779 40.5719 2.60659C37.4893 1.20603 34.1734 0.352543 30.7812 0.0865359C30.536 0.0673138 30.3241 0.248272 30.3081 0.486568L29.9031 6.53177C29.8871 6.77006 30.0732 6.97534 30.3182 6.9958C32.7868 7.20194 35.1998 7.82302 37.4494 8.8313C37.6726 8.93138 37.939 8.84256 38.0467 8.62787L40.7787 3.18162Z" fill="#9E9E9E"/>
<path d="M28.4856 0.429062C28.4856 0.190263 28.2862 -0.00367567 28.0403 5.28771e-05C24.6374 0.0516507 21.2714 0.694303 18.1017 1.89758C17.8727 1.98454 17.7638 2.23734 17.8569 2.45836L20.219 8.06535C20.3121 8.28637 20.572 8.3918 20.8015 8.30601C23.1138 7.44167 25.5632 6.97401 28.0403 6.92393C28.2862 6.91896 28.4856 6.72584 28.4856 6.48704V0.429062Z" fill="#9E9E9E"/>
<path d="M16.7689 2.91678C16.6663 2.69977 16.4017 2.60434 16.1799 2.70739C13.1097 4.13337 10.3272 6.08149 7.96398 8.45954C7.79321 8.63138 7.80288 8.90526 7.9825 9.06837L12.5391 13.2063C12.7187 13.3695 13.0002 13.36 13.1719 13.189C14.9016 11.4664 16.9265 10.0488 19.156 8.99936C19.3773 8.8952 19.4755 8.63889 19.3729 8.42189L16.7689 2.91678Z" fill="#9E9E9E"/>
<path d="M6.96553 10.1838C6.777 10.0305 6.49585 10.0544 6.34089 10.2398C4.19649 12.8059 2.54243 15.7241 1.45701 18.8562C1.37857 19.0825 1.50821 19.3259 1.74249 19.3985L7.6859 21.2407C7.92018 21.3133 8.17029 21.1876 8.24993 20.9617C9.05235 18.6855 10.256 16.562 11.8071 14.6859C11.9611 14.4997 11.9367 14.2273 11.7482 14.0739L6.96553 10.1838Z" fill="#9E9E9E"/>
<path d="M1.40139 20.5184C1.16412 20.4556 0.918987 20.5914 0.858017 20.8227C0.380174 22.6359 0.0928702 24.4914 0.000511817 26.3608C-0.0112724 26.5993 0.18191 26.7991 0.427711 26.8068L6.66332 27.0026C6.90912 27.0103 7.11434 26.823 7.1274 26.5846C7.20023 25.255 7.40457 23.9353 7.73759 22.6437C7.79732 22.4121 7.65788 22.1745 7.42061 22.1117L1.40139 20.5184Z" fill="#9E9E9E"/>
<path d="M21.4862 23.2898L36.3275 27.1513C36.8447 28.1185 36.8962 29.1497 35.5414 30L20.7001 26.1386C19.7648 25.0625 20.2505 23.7085 21.4862 23.2898Z" fill="#9E9E9E"/>
<path d="M22.2602 23.8506L27.486 25.2102L27.4383 25.3829L22.2125 24.0232L22.2602 23.8506Z" fill="#9E9E9E"/>
<path d="M25.6231 25.4658L32.9393 27.3693L32.8916 27.5419L25.5755 25.6384L25.6231 25.4658Z" fill="#9E9E9E"/>
<path d="M22.0404 25.4588L27.2662 26.8185L27.2186 26.9911L21.9928 25.6315L22.0404 25.4588Z" fill="#9E9E9E"/>
<path d="M30.4017 27.6343L35.6275 28.9939L35.5799 29.1666L30.354 27.8069L30.4017 27.6343Z" fill="#9E9E9E"/>
<path d="M30.8305 26.0804L36.0563 27.4401L36.0086 27.6127L30.7828 26.2531L30.8305 26.0804Z" fill="#9E9E9E"/>
<path d="M20.7001 26.8234L35.5413 22.962C36.4873 23.5486 37.0629 24.4166 36.3275 25.8107L21.4862 29.6722C20.1221 29.1944 19.8455 27.786 20.7001 26.8234Z" fill="#9E9E9E"/>
<path d="M21.8074 27.183L27.0332 25.8233L27.0809 25.996L21.8551 27.3556L21.8074 27.183Z" fill="#9E9E9E"/>
<path d="M25.5516 26.949L32.8677 25.0455L32.9153 25.2181L25.5992 27.1217L25.5516 26.949Z" fill="#9E9E9E"/>
<path d="M22.4453 28.6824L27.6711 27.3228L27.7187 27.4954L22.4929 28.8551L22.4453 28.6824Z" fill="#9E9E9E"/>
<path d="M30.8066 26.507L36.0324 25.1473L36.08 25.32L30.8542 26.6796L30.8066 26.507Z" fill="#9E9E9E"/>
<path d="M30.3778 24.9531L35.6036 23.5935L35.6512 23.7661L30.4254 25.1258L30.3778 24.9531Z" fill="#9E9E9E"/>
<path d="M28.8235 26.4952C28.2487 26.4984 28.0126 26.5049 27.9702 26.511C27.9594 26.5095 27.9478 26.5081 27.9358 26.5068C27.7167 26.4825 27.3752 26.3967 27.1446 26.3079C26.4409 26.037 25.8443 25.4722 25.6154 24.8603C25.3735 24.2135 25.4443 23.6031 25.8603 22.7504C26.2209 22.011 26.9088 21.0432 27.7431 20.1018C27.8605 19.9693 27.9779 19.8507 28.004 19.8382C28.0696 19.8069 28.1874 19.8342 28.2266 19.8898C28.249 19.9217 28.2632 20.046 28.272 20.2892C28.2868 20.6978 28.3305 20.9403 28.4442 21.2452C28.594 21.6471 28.7944 21.9386 29.1003 22.1995C29.4314 22.4821 29.6086 22.5566 29.7251 22.4625C29.7869 22.4126 29.8882 22.2022 29.9335 22.0298C29.9872 21.8253 30.0951 21.7444 30.2288 21.8083C30.2836 21.8345 30.5103 22.1929 30.7299 22.6006C31.2605 23.5856 31.3342 24.3166 30.9759 25.0415C30.8404 25.3157 30.6835 25.5153 30.4111 25.7599C29.9652 26.1604 29.477 26.3865 28.8235 26.4952Z" fill="#9E9E9E"/>
<path d="M28.9659 15.8538C30.9944 18.0746 32.3677 20.1628 32.7924 21.6727C33.0514 22.5931 32.9671 23.4245 32.5323 24.2378C32.3111 24.6518 32.094 24.9327 31.7401 25.263C31.0113 25.9434 30.0326 26.3795 28.9522 26.5055C28.7529 26.5287 28.2011 26.5268 28.0209 26.5186C28.0066 26.5161 27.9894 26.5135 27.9702 26.511C28.0126 26.5049 28.2487 26.4984 28.8235 26.4952C29.477 26.3865 29.9652 26.1604 30.4111 25.7599C30.6835 25.5153 30.8404 25.3157 30.9759 25.0415C31.3342 24.3166 31.2605 23.5856 30.7299 22.6006C30.5103 22.1929 30.2836 21.8345 30.2288 21.8083C30.0951 21.7444 29.9872 21.8253 29.9335 22.0298C29.8882 22.2022 29.7869 22.4126 29.7251 22.4625C29.6086 22.5566 29.4314 22.4821 29.1003 22.1995C28.7944 21.9386 28.594 21.6471 28.4442 21.2452C28.3305 20.9403 28.2868 20.6978 28.272 20.2892C28.2632 20.046 28.249 19.9217 28.2266 19.8898C28.1874 19.8342 28.0696 19.8069 28.004 19.8382C27.9779 19.8507 27.8605 19.9693 27.7431 20.1018C26.9088 21.0432 26.2209 22.011 25.8603 22.7504C25.4443 23.6031 25.3735 24.2135 25.6154 24.8603C25.8443 25.4722 26.4409 26.037 27.1446 26.3079C27.3752 26.3967 27.7167 26.4825 27.9358 26.5068C27.9478 26.5081 27.9594 26.5095 27.9702 26.511C27.9508 26.5137 27.9723 26.5164 28.0209 26.5186C28.0503 26.5238 28.0674 26.5287 28.0641 26.5317C28.0465 26.5474 27.5983 26.4973 27.3415 26.451C26.6489 26.3259 25.905 26.0105 25.3371 25.6009C25.0851 25.4192 24.713 25.066 24.5192 24.8246C24.2128 24.443 23.9234 23.8577 23.821 23.4128C23.5878 22.3993 23.8252 21.3844 24.6318 19.9468C24.8776 19.5088 25.2929 18.85 25.3706 18.7751C25.4379 18.7101 25.5637 18.7105 25.6371 18.7761C25.6805 18.8148 25.698 18.8661 25.7197 19.0171C25.7678 19.3521 25.8829 19.6624 26.05 19.9081C26.1426 20.0441 26.2096 20.0966 26.291 20.0966C26.3958 20.0966 26.8503 19.7986 27.1384 19.5411C27.473 19.2418 27.6856 18.9786 27.8909 18.6092C28.0707 18.2857 28.1599 18.0666 28.2615 17.6978C28.3948 17.2144 28.415 17.0419 28.4226 16.3222C28.4305 15.57 28.4277 15.5809 28.614 15.5809C28.7165 15.5809 28.7171 15.5814 28.9659 15.8538Z" fill="#9E9E9E"/>
<path fill-rule="evenodd" clip-rule="evenodd" d="M27.9231 20.1261C26.5873 21.4581 25.6829 22.7106 25.4032 23.6162C25.2327 24.1682 25.2882 24.6669 25.5745 25.1547C25.7202 25.403 25.8631 25.5715 26.0962 25.7696C26.5761 26.1777 27.2206 26.4393 27.9322 26.5148C28.1112 26.5338 28.7022 26.5344 28.5382 26.5239C28.4794 26.5201 28.3235 26.5149 28.0169 26.5086C27.5865 26.4434 27.265 26.3078 26.9714 26.0676C26.792 25.9209 26.6886 25.8012 26.5994 25.6367C26.3635 25.202 26.412 24.7635 26.7614 24.1727C26.9061 23.9282 27.0553 23.7132 27.0914 23.6975C27.1795 23.6592 27.2505 23.7077 27.2859 23.8304C27.3157 23.9337 27.3825 24.0599 27.4231 24.0899C27.4999 24.1463 27.6165 24.1016 27.8346 23.9322C28.036 23.7757 28.168 23.6008 28.2667 23.3598C28.3415 23.1769 28.3703 23.0314 28.3801 22.7864C28.3859 22.6405 28.3952 22.5659 28.41 22.5468C28.4358 22.5134 28.5134 22.4971 28.5566 22.5159C28.5737 22.5233 28.6511 22.5945 28.7284 22.674C29.2778 23.2386 29.7308 23.8191 29.9683 24.2625C30.2422 24.774 30.2888 25.1401 30.1295 25.528C29.9788 25.8951 29.5859 26.2338 29.1225 26.3963C28.9706 26.4495 28.7458 26.501 28.6014 26.5156C28.5759 26.5182 28.5535 26.5212 28.5382 26.5239C28.5233 26.5266 28.5151 26.529 28.517 26.5305C28.5286 26.54 28.6602 26.5368 28.9928 26.4821C29.449 26.4071 29.9388 26.2179 30.3128 25.9723C30.4788 25.8633 30.7238 25.6515 30.8514 25.5066C31.0532 25.2777 31.2438 24.9267 31.3112 24.6599C31.4648 24.052 31.3084 23.4433 30.7772 22.581C30.6154 22.3183 30.3419 21.9232 30.2908 21.8782C30.2464 21.8392 30.1636 21.8395 30.1152 21.8788C30.0867 21.9021 30.0751 21.9328 30.0608 22.0234C30.0292 22.2243 29.9534 22.4105 29.8433 22.5578C29.7824 22.6394 29.7382 22.6709 29.6847 22.6709C29.6156 22.6709 29.3163 22.4921 29.1266 22.3376C28.9063 22.1582 28.7662 22.0003 28.631 21.7787C28.5126 21.5847 28.4539 21.4533 28.387 21.2321C28.2992 20.9422 28.2859 20.8387 28.2809 20.407C28.2757 19.9559 28.2775 19.9624 28.1548 19.9624C28.0873 19.9624 28.087 19.9627 27.9231 20.1261Z" fill="#9E9E9E"/>
<path d="M28.0169 26.5086C28.3235 26.5149 28.4794 26.5201 28.5382 26.5239C28.5535 26.5212 28.5759 26.5182 28.6014 26.5156C28.7458 26.501 28.9706 26.4495 29.1225 26.3963C29.5859 26.2338 29.9788 25.8951 30.1295 25.528C30.2888 25.1401 30.2422 24.774 29.9683 24.2625C29.7308 23.8191 29.2778 23.2386 28.7284 22.674C28.6511 22.5945 28.5737 22.5233 28.5566 22.5159C28.5134 22.4971 28.4358 22.5134 28.41 22.5468C28.3952 22.5659 28.3859 22.6405 28.3801 22.7864C28.3703 23.0314 28.3415 23.1769 28.2667 23.3598C28.168 23.6008 28.036 23.7757 27.8346 23.9322C27.6165 24.1016 27.4999 24.1463 27.4231 24.0899C27.3825 24.0599 27.3157 23.9337 27.2859 23.8304C27.2505 23.7077 27.1795 23.6592 27.0914 23.6975C27.0553 23.7132 26.9061 23.9282 26.7614 24.1727C26.412 24.7635 26.3635 25.202 26.5994 25.6367C26.6886 25.8012 26.792 25.9209 26.9714 26.0676C27.265 26.3078 27.5865 26.4434 28.0169 26.5086Z" fill="#9E9E9E"/>
</svg>
