<svg width="30" height="40" viewBox="0 0 30 40" fill="none" xmlns="http://www.w3.org/2000/svg">
<path d="M1.96647 1V36.9863C1.96647 36.9863 27.39 38.2103 28.0612 36.9863C29.2693 34.783 29.2693 1.97922 28.3028 1.48961C27.3364 1 19.8462 1 19.8462 1H1.96647Z" fill="#303636"/>
<path d="M1.96647 1V0.75H1.71647V1H1.96647ZM1.96647 36.9863H1.71647V37.2245L1.95445 37.236L1.96647 36.9863ZM28.0612 36.9863L27.842 36.8661L28.0612 36.9863ZM1.71647 1V36.9863H2.21647V1H1.71647ZM1.96647 36.9863C1.95445 37.236 1.95455 37.236 1.95475 37.236C1.95494 37.236 1.95524 37.236 1.95563 37.236C1.95641 37.2361 1.95758 37.2361 1.95913 37.2362C1.96222 37.2363 1.96685 37.2366 1.97297 37.2369C1.98523 37.2374 2.0035 37.2383 2.0276 37.2395C2.07579 37.2417 2.14728 37.2451 2.24054 37.2494C2.42706 37.2581 2.70064 37.2707 3.04905 37.2862C3.74587 37.3173 4.74199 37.3604 5.93941 37.4082C8.33412 37.5038 11.5345 37.6187 14.7562 37.6952C17.9771 37.7717 21.2227 37.8101 23.7065 37.7526C24.9475 37.7238 26.0043 37.6711 26.7746 37.5862C27.1587 37.5439 27.4802 37.4927 27.7207 37.4299C27.8405 37.3986 27.9491 37.3621 28.0383 37.318C28.1202 37.2774 28.222 37.2129 28.2804 37.1065L27.842 36.8661C27.8584 36.8361 27.8699 36.8434 27.8163 36.8699C27.7699 36.8929 27.6976 36.9191 27.5944 36.9461C27.3887 36.9998 27.0952 37.0478 26.7199 37.0892C25.9714 37.1717 24.9318 37.2241 23.695 37.2527C21.2231 37.3099 17.987 37.2718 14.7681 37.1953C11.55 37.1189 8.35255 37.0042 5.95937 36.9086C4.76284 36.8608 3.7675 36.8178 3.07134 36.7867C2.72327 36.7712 2.44999 36.7586 2.26376 36.75C2.17065 36.7456 2.0993 36.7423 2.05124 36.74C2.02722 36.7389 2.00901 36.738 1.99682 36.7374C1.99073 36.7371 1.98614 36.7369 1.98307 36.7368C1.98154 36.7367 1.98039 36.7366 1.97963 36.7366C1.97925 36.7366 1.97896 36.7366 1.97877 36.7366C1.97858 36.7366 1.97849 36.7365 1.96647 36.9863ZM28.2804 37.1065C28.3776 36.9293 28.4537 36.635 28.5195 36.2749C28.5873 35.9044 28.6496 35.4315 28.7068 34.874C28.8212 33.7584 28.9168 32.289 28.9943 30.5907C29.1493 27.1931 29.2324 22.867 29.2475 18.5962C29.2626 14.3254 29.2097 10.1066 29.0925 6.92348C29.0339 5.33262 28.9592 3.99677 28.8684 3.0414C28.823 2.56471 28.7732 2.17637 28.7179 1.89636C28.6905 1.75733 28.6601 1.63625 28.6251 1.5415C28.6076 1.4943 28.5862 1.44589 28.5589 1.4026C28.534 1.36321 28.4894 1.30389 28.4158 1.26659L28.1898 1.71262C28.1464 1.69063 28.1316 1.66239 28.136 1.66937C28.1379 1.67246 28.1453 1.68573 28.1561 1.71502C28.1777 1.77326 28.202 1.86444 28.2274 1.99311C28.2777 2.24848 28.3258 2.61727 28.3706 3.08872C28.46 4.02962 28.5344 5.35412 28.5929 6.94188C28.7097 10.1161 28.7626 14.3277 28.7475 18.5944C28.7324 22.8612 28.6494 27.1797 28.4948 30.5679C28.4175 32.2624 28.3224 33.7211 28.2094 34.823C28.1528 35.3743 28.0922 35.8326 28.0277 36.1849C27.9613 36.5477 27.8958 36.7679 27.842 36.8661L28.2804 37.1065ZM28.4158 1.26659C28.2556 1.18543 27.9962 1.1276 27.7009 1.08105C27.3949 1.03282 27.0161 0.992054 26.5942 0.957393C25.7498 0.888023 24.718 0.841967 23.7198 0.811319C22.7209 0.78065 21.7526 0.765325 21.0343 0.757664C20.6751 0.753833 20.3782 0.751917 20.1711 0.750959C20.0675 0.75048 19.9864 0.75024 19.9311 0.75012C19.9034 0.75006 19.8823 0.75003 19.868 0.750015C19.8608 0.750008 19.8554 0.750004 19.8518 0.750002C19.8499 0.750001 19.8486 0.75 19.8476 0.75C19.8472 0.75 19.8468 0.75 19.8466 0.75C19.8465 0.75 19.8464 0.75 19.8463 0.75C19.8462 0.75 19.8462 0.75 19.8462 1C19.8462 1.25 19.8462 1.25 19.8463 1.25C19.8463 1.25 19.8464 1.25 19.8465 1.25C19.8467 1.25 19.8471 1.25 19.8475 1.25C19.8484 1.25 19.8497 1.25 19.8515 1.25C19.8551 1.25 19.8604 1.25001 19.8674 1.25001C19.8816 1.25003 19.9026 1.25006 19.93 1.25012C19.9849 1.25024 20.0656 1.25048 20.1688 1.25095C20.375 1.25191 20.6709 1.25382 21.029 1.25764C21.7453 1.26528 22.71 1.28055 23.7044 1.31108C24.6995 1.34164 25.7215 1.38738 26.5533 1.45571C26.9695 1.48991 27.3345 1.52947 27.623 1.57495C27.9223 1.62212 28.1084 1.67138 28.1898 1.71262L28.4158 1.26659ZM19.8462 0.75H1.96647V1.25H19.8462V0.75Z" fill="#303636"/>
<path d="M1 2.71362V38.6999C1 38.6999 26.4236 39.9239 27.0947 38.6999C28.3028 36.4966 28.3028 3.69284 27.3364 3.20323C26.3699 2.71362 18.8797 2.71362 18.8797 2.71362H1Z" fill="#F9F0DC"/>
<path d="M1 2.71362V2.46362H0.75V2.71362H1ZM1 38.6999H0.75V38.9381L0.987978 38.9496L1 38.6999ZM27.0947 38.6999L26.8755 38.5797L27.0947 38.6999ZM0.75 2.71362V38.6999H1.25V2.71362H0.75ZM1 38.6999C0.987978 38.9496 0.988081 38.9496 0.98828 38.9496C0.988476 38.9496 0.988772 38.9496 0.989163 38.9496C0.989944 38.9497 0.991109 38.9497 0.992657 38.9498C0.995753 38.95 1.00038 38.9502 1.0065 38.9505C1.01876 38.9511 1.03703 38.9519 1.06113 38.9531C1.10932 38.9554 1.18081 38.9587 1.27407 38.9631C1.46059 38.9717 1.73418 38.9843 2.08259 38.9998C2.7794 39.0309 3.77552 39.074 4.97294 39.1218C7.36766 39.2175 10.568 39.3323 13.7897 39.4088C17.0106 39.4853 20.2562 39.5237 22.7401 39.4662C23.9811 39.4375 25.0378 39.3847 25.8082 39.2998C26.1922 39.2575 26.5138 39.2063 26.7543 39.1435C26.874 39.1122 26.9826 39.0758 27.0718 39.0316C27.1538 38.991 27.2556 38.9265 27.3139 38.8201L26.8755 38.5797C26.892 38.5497 26.9035 38.557 26.8499 38.5836C26.8035 38.6065 26.7312 38.6327 26.6279 38.6597C26.4222 38.7134 26.1287 38.7615 25.7534 38.8028C25.0049 38.8853 23.9654 38.9377 22.7285 38.9663C20.2567 39.0236 17.0205 38.9854 13.8016 38.909C10.5836 38.8325 7.38608 38.7178 4.9929 38.6222C3.79637 38.5744 2.80103 38.5314 2.10487 38.5003C1.7568 38.4848 1.48352 38.4723 1.29729 38.4636C1.20418 38.4593 1.13283 38.4559 1.08478 38.4536C1.06075 38.4525 1.04254 38.4516 1.03035 38.451C1.02426 38.4508 1.01967 38.4505 1.01661 38.4504C1.01507 38.4503 1.01392 38.4503 1.01316 38.4502C1.01278 38.4502 1.01249 38.4502 1.0123 38.4502C1.01211 38.4502 1.01202 38.4502 1 38.6999ZM27.3139 38.8201C27.4111 38.6429 27.4872 38.3486 27.5531 37.9885C27.6209 37.618 27.6831 37.1452 27.7403 36.5877C27.8547 35.472 27.9503 34.0026 28.0278 32.3043C28.1828 28.9067 28.2659 24.5807 28.281 20.3098C28.2961 16.039 28.2432 11.8202 28.1261 8.63711C28.0675 7.04624 27.9927 5.7104 27.9019 4.75502C27.8566 4.27833 27.8067 3.88999 27.7515 3.60998C27.724 3.47096 27.6936 3.34988 27.6586 3.25512C27.6411 3.20792 27.6197 3.15952 27.5924 3.11622C27.5675 3.07683 27.5229 3.01751 27.4493 2.98022L27.2234 3.42625C27.18 3.40426 27.1651 3.37601 27.1695 3.383C27.1715 3.38608 27.1788 3.39935 27.1897 3.42865C27.2112 3.48688 27.2355 3.57806 27.2609 3.70673C27.3113 3.96211 27.3593 4.33089 27.4041 4.80234C27.4936 5.74325 27.5679 7.06774 27.6264 8.6555C27.7433 11.8297 27.7961 16.0414 27.781 20.3081C27.7659 24.5748 27.6829 28.8934 27.5283 32.2815C27.451 33.976 27.3559 35.4347 27.2429 36.5366C27.1864 37.0879 27.1257 37.5463 27.0612 37.8985C26.9949 38.2613 26.9294 38.4815 26.8755 38.5797L27.3139 38.8201ZM27.4493 2.98022C27.2891 2.89906 27.0298 2.84122 26.7344 2.79467C26.4284 2.74644 26.0497 2.70568 25.6277 2.67102C24.7833 2.60165 23.7515 2.55559 22.7533 2.52494C21.7544 2.49427 20.7861 2.47895 20.0678 2.47129C19.7086 2.46746 19.4117 2.46554 19.2046 2.46458C19.101 2.4641 19.0199 2.46386 18.9646 2.46374C18.937 2.46368 18.9158 2.46365 18.9015 2.46364C18.8944 2.46363 18.8889 2.46363 18.8853 2.46362C18.8835 2.46362 18.8821 2.46362 18.8812 2.46362C18.8807 2.46362 18.8803 2.46362 18.8801 2.46362C18.88 2.46362 18.8799 2.46362 18.8798 2.46362C18.8798 2.46362 18.8797 2.46362 18.8797 2.71362C18.8797 2.96362 18.8797 2.96362 18.8798 2.96362C18.8799 2.96362 18.8799 2.96362 18.88 2.96362C18.8803 2.96362 18.8806 2.96362 18.881 2.96362C18.8819 2.96362 18.8832 2.96362 18.885 2.96362C18.8886 2.96363 18.8939 2.96363 18.901 2.96364C18.9151 2.96365 18.9361 2.96368 18.9635 2.96374C19.0184 2.96386 19.0992 2.9641 19.2023 2.96458C19.4086 2.96553 19.7044 2.96744 20.0625 2.97126C20.7788 2.9789 21.7435 2.99417 22.7379 3.02471C23.7331 3.05526 24.755 3.101 25.5868 3.16934C26.003 3.20353 26.368 3.24309 26.6566 3.28857C26.9558 3.33574 27.142 3.38501 27.2234 3.42625L27.4493 2.98022ZM18.8797 2.46362H1V2.96362H18.8797V2.46362Z" fill="#303636"/>
<path fill-rule="evenodd" clip-rule="evenodd" d="M12.8507 7.99927C8.4157 8.92935 5.31693 13.0109 5.34937 17.8794C5.37015 20.9883 7.47391 25.5889 11.732 31.837C13.3409 34.1978 13.6322 34.5404 14.1767 34.7121C14.935 34.9512 15.339 34.6431 16.5612 32.8943C18.9634 29.4573 21.6409 24.8131 22.6971 22.2515C23.2364 20.9434 23.7148 18.8247 23.7121 17.7556C23.7026 14.0831 21.6983 10.5838 18.6282 8.8793C17.0309 7.9925 14.6281 7.62651 12.8507 7.99927ZM15.7773 14.9001C17.712 15.9169 18.167 18.6956 16.6623 20.3049C15.9994 21.0138 15.4259 21.2639 14.481 21.2566C13.0419 21.2453 11.9883 20.3569 11.5758 18.8069C11.0031 16.6552 12.6231 14.4605 14.6734 14.6102C15.026 14.6359 15.5227 14.7664 15.7773 14.9001Z" fill="#303636"/>
</svg>
