<svg width="71" height="63" viewBox="0 0 71 63" fill="none" xmlns="http://www.w3.org/2000/svg">
<path d="M49.7943 21.3624C49.9626 21.3624 50.0993 21.2333 50.0956 21.0741C50.0606 19.5841 49.7544 18.1108 49.1905 16.7191C49.1303 16.5705 48.952 16.5 48.7963 16.5603L46.8223 17.3242C46.6666 17.3845 46.5924 17.5527 46.6518 17.7017C47.0819 18.7811 47.3188 19.9209 47.3527 21.0741C47.3573 21.2333 47.4933 21.3624 47.6616 21.3624H49.7943Z" fill="#F9F0DC"/>
<path d="M48.4877 15.9007C48.6396 15.8322 48.7043 15.66 48.6285 15.5179C47.9187 14.1873 46.9718 12.9824 45.8294 11.9561C45.7074 11.8464 45.5145 11.8554 45.4013 11.9733L43.9675 13.467C43.8544 13.5849 43.864 13.7669 43.9853 13.8771C44.8649 14.6762 45.5974 15.6084 46.1529 16.6354C46.2295 16.7771 46.411 16.8382 46.5629 16.7696L48.4877 15.9007Z" fill="#F9F0DC"/>
<path d="M44.8542 11.528C44.9604 11.4045 44.941 11.2227 44.8082 11.1249C43.5649 10.2096 42.1642 9.5039 40.6675 9.03874C40.5076 8.98906 40.3373 9.07531 40.2884 9.22762L39.668 11.1581C39.619 11.3105 39.71 11.4711 39.8696 11.5216C41.0259 11.8877 42.1096 12.4337 43.0761 13.1371C43.2095 13.2342 43.4011 13.216 43.5074 13.0925L44.8542 11.528Z" fill="#F9F0DC"/>
<path d="M39.3667 8.99602C39.4041 8.8408 39.3014 8.68596 39.1366 8.65405C37.5932 8.35532 36.0069 8.31048 34.4474 8.5215C34.2809 8.54404 34.1686 8.6928 34.1962 8.84986L34.545 10.8405C34.5725 10.9975 34.7293 11.1033 34.896 11.0817C36.104 10.9247 37.3313 10.9594 38.5272 11.1843C38.6923 11.2154 38.8555 11.1186 38.8929 10.9634L39.3667 8.99602Z" fill="#F9F0DC"/>
<path d="M33.2122 9.04027C33.1723 8.88561 33.0073 8.79049 32.8448 8.83164C31.323 9.21688 29.8827 9.84739 28.5873 10.6955C28.4489 10.786 28.4187 10.9666 28.5175 11.0954L29.7698 12.7288C29.8686 12.8577 30.0588 12.886 30.1977 12.7962C31.2043 12.145 32.3186 11.6572 33.4947 11.3528C33.657 11.3108 33.7574 11.1553 33.7175 11.0006L33.2122 9.04027Z" fill="#F9F0DC"/>
<path d="M27.8934 11.5508C27.7868 11.4277 27.5946 11.4094 27.4668 11.513C26.2707 12.4828 25.2601 13.6405 24.4795 14.9351C24.3962 15.0734 24.4515 15.2485 24.5994 15.3243L26.475 16.2849C26.623 16.3607 26.8075 16.3084 26.8917 16.1706C27.5017 15.1717 28.2836 14.276 29.205 13.5205C29.3322 13.4162 29.3516 13.2349 29.2449 13.1117L27.8934 11.5508Z" fill="#F9F0DC"/>
<path d="M24.1721 16.1398C24.0187 16.0743 23.8379 16.1386 23.7721 16.2851C23.1555 17.6566 22.7933 19.1185 22.7015 20.6064C22.6917 20.7653 22.8234 20.899 22.9916 20.9047L25.1229 20.9775C25.2911 20.9833 25.4319 20.8589 25.4426 20.7C25.5204 19.5487 25.8006 18.4178 26.2717 17.3537C26.3367 17.2068 26.269 17.0362 26.1156 16.9707L24.1721 16.1398Z" fill="#F9F0DC"/>
<path d="M55.6977 21.4585C55.8659 21.4585 56.0026 21.3294 56 21.1702C55.9835 20.174 55.8819 19.1806 55.696 18.1999C55.6663 18.0432 55.506 17.9414 55.3408 17.9719L51.1514 18.7468C50.9863 18.7773 50.8789 18.9287 50.9078 19.0855C51.0344 19.7743 51.1057 20.4712 51.1211 21.1702C51.1246 21.3294 51.2607 21.4585 51.429 21.4585H55.6977Z" fill="#F9F0DC"/>
<path d="M55.1519 17.1572C55.3154 17.1195 55.4159 16.9635 55.3735 16.8094C54.7871 14.6773 53.802 12.6617 52.4649 10.8581C52.3683 10.7277 52.1775 10.6991 52.0413 10.7925L48.5852 13.1629C48.449 13.2564 48.4189 13.4365 48.5148 13.5673C49.481 14.8852 50.1978 16.3519 50.6333 17.902C50.6765 18.0559 50.841 18.1508 51.0045 18.1131L55.1519 17.1572Z" fill="#F9F0DC"/>
<path d="M51.5397 10.1668C51.6716 10.0679 51.6939 9.88645 51.5873 9.76327C50.1121 8.05868 48.3262 6.61765 46.3144 5.50842C46.169 5.42826 45.9831 5.47773 45.9006 5.61652L43.8092 9.13724C43.7268 9.27603 43.7791 9.4515 43.924 9.53237C45.3842 10.3471 46.6838 11.3958 47.7646 12.6314C47.8719 12.7541 48.0632 12.7752 48.1951 12.6763L51.5397 10.1668Z" fill="#F9F0DC"/>
<path d="M44.9012 5.12108C44.9749 4.97796 44.9121 4.8052 44.7597 4.73773C42.6506 3.80402 40.3818 3.23503 38.0608 3.05769C37.8931 3.04488 37.7481 3.16551 37.7371 3.32438L37.46 7.35451C37.4491 7.51338 37.5764 7.65023 37.744 7.66387C39.4331 7.80129 41.084 8.21535 42.6232 8.88753C42.776 8.95425 42.9583 8.89504 43.032 8.75191L44.9012 5.12108Z" fill="#F9F0DC"/>
<path d="M36.4901 3.28604C36.4901 3.12684 36.3537 2.99755 36.1855 3.00004C33.8572 3.03443 31.5541 3.46287 29.3854 4.26506C29.2287 4.32302 29.1541 4.49156 29.2179 4.63891L30.8341 8.3769C30.8978 8.52425 31.0756 8.59453 31.2326 8.53734C32.8147 7.96111 34.4906 7.64934 36.1855 7.61595C36.3537 7.61264 36.4901 7.48389 36.4901 7.32469V3.28604Z" fill="#F9F0DC"/>
<path d="M28.4735 4.94452C28.4033 4.79985 28.2222 4.73623 28.0704 4.80493C25.9698 5.75558 24.066 7.05433 22.449 8.63969C22.3322 8.75425 22.3388 8.93684 22.4617 9.04558L25.5794 11.8042C25.7023 11.913 25.8949 11.9066 26.0123 11.7927C27.1958 10.6443 28.5813 9.69919 30.1067 8.99957C30.2582 8.93013 30.3253 8.75926 30.2551 8.61459L28.4735 4.94452Z" fill="#F9F0DC"/>
<path d="M21.7659 9.78922C21.6369 9.687 21.4445 9.70292 21.3385 9.82655C19.8713 11.5373 18.7396 13.4827 17.9969 15.5708C17.9432 15.7217 18.0319 15.884 18.1922 15.9324L22.2588 17.1605C22.4191 17.2089 22.5902 17.1251 22.6447 16.9745C23.1937 15.457 24.0173 14.0413 25.0786 12.7906C25.1839 12.6665 25.1672 12.4848 25.0382 12.3826L21.7659 9.78922Z" fill="#F9F0DC"/>
<path d="M17.9588 16.6789C17.7965 16.6371 17.6288 16.7276 17.5871 16.8818C17.2601 18.0906 17.0635 19.3276 17.0004 20.5739C16.9923 20.7329 17.1245 20.8661 17.2926 20.8712L21.5591 21.0017C21.7273 21.0069 21.8677 20.882 21.8766 20.723C21.9265 19.8367 22.0663 18.9569 22.2941 18.0958C22.335 17.9414 22.2396 17.783 22.0773 17.7411L17.9588 16.6789Z" fill="#F9F0DC"/>
<path d="M31.7011 18.5266L41.8557 21.1008C42.2096 21.7457 42.2448 22.4331 41.3178 23L31.1632 20.4257C30.5233 19.7084 30.8556 18.8057 31.7011 18.5266Z" fill="#F9F0DC"/>
<path d="M32.2306 18.9004L35.8062 19.8068L35.7736 19.9219L32.198 19.0155L32.2306 18.9004Z" fill="#F9F0DC"/>
<path d="M34.5316 19.9772L39.5374 21.2462L39.5048 21.3613L34.499 20.0923L34.5316 19.9772Z" fill="#F9F0DC"/>
<path d="M32.0803 19.9726L35.6558 20.879L35.6232 20.9941L32.0477 20.0877L32.0803 19.9726Z" fill="#F9F0DC"/>
<path d="M37.8012 21.4229L41.3767 22.3293L41.3441 22.4444L37.7686 21.538L37.8012 21.4229Z" fill="#F9F0DC"/>
<path d="M38.0945 20.3869L41.6701 21.2934L41.6375 21.4085L38.0619 20.502L38.0945 20.3869Z" fill="#F9F0DC"/>
<path d="M31.1632 20.8823L41.3178 18.308C41.965 18.6991 42.3588 19.2777 41.8556 20.2072L31.7011 22.7814C30.7677 22.4629 30.5785 21.524 31.1632 20.8823Z" fill="#F9F0DC"/>
<path d="M31.9209 21.122L35.4964 20.2155L35.529 20.3306L31.9535 21.2371L31.9209 21.122Z" fill="#F9F0DC"/>
<path d="M34.4826 20.966L39.4884 19.697L39.521 19.8121L34.5152 21.0811L34.4826 20.966Z" fill="#F9F0DC"/>
<path d="M32.3573 22.1216L35.9328 21.2152L35.9654 21.3303L32.3899 22.2367L32.3573 22.1216Z" fill="#F9F0DC"/>
<path d="M38.0782 20.6713L41.6537 19.7649L41.6863 19.88L38.1108 20.7864L38.0782 20.6713Z" fill="#F9F0DC"/>
<path d="M37.7848 19.6354L41.3603 18.729L41.3929 18.8441L37.8174 19.7505L37.7848 19.6354Z" fill="#F9F0DC"/>
<path d="M36.7214 20.6635C36.3281 20.6656 36.1665 20.6699 36.1375 20.674C36.1301 20.673 36.1222 20.6721 36.114 20.6712C35.964 20.655 35.7304 20.5978 35.5726 20.5386C35.0912 20.358 34.683 19.9815 34.5263 19.5735C34.3608 19.1423 34.4093 18.7354 34.6939 18.1669C34.9406 17.674 35.4113 17.0288 35.9821 16.4012C36.0624 16.3128 36.1428 16.2338 36.1606 16.2255C36.2055 16.2046 36.2861 16.2228 36.3129 16.2599C36.3283 16.2811 36.338 16.364 36.344 16.5261C36.3542 16.7985 36.3841 16.9602 36.4618 17.1635C36.5643 17.4314 36.7014 17.6257 36.9107 17.7997C37.1373 17.988 37.2585 18.0377 37.3382 17.975C37.3805 17.9417 37.4498 17.8015 37.4808 17.6865C37.5176 17.5502 37.5914 17.4963 37.6829 17.5389C37.7204 17.5563 37.8755 17.7952 38.0257 18.067C38.3888 18.7237 38.4392 19.2111 38.1941 19.6943C38.1014 19.8771 37.994 20.0102 37.8076 20.1733C37.5025 20.4403 37.1685 20.591 36.7214 20.6635Z" fill="#F9F0DC"/>
<path d="M36.8188 13.5692C38.2067 15.0497 39.1463 16.4419 39.4369 17.4485C39.6141 18.0621 39.5564 18.6163 39.259 19.1585C39.1076 19.4345 38.9591 19.6218 38.7169 19.842C38.2183 20.2956 37.5486 20.5864 36.8094 20.6703C36.673 20.6858 36.2955 20.6846 36.1722 20.6791C36.1624 20.6774 36.1506 20.6756 36.1375 20.674C36.1665 20.6699 36.3281 20.6656 36.7214 20.6635C37.1685 20.591 37.5025 20.4403 37.8076 20.1733C37.994 20.0102 38.1014 19.8771 38.1941 19.6943C38.4392 19.2111 38.3888 18.7237 38.0257 18.067C37.8755 17.7952 37.7204 17.5563 37.6829 17.5389C37.5914 17.4963 37.5176 17.5502 37.4808 17.6865C37.4498 17.8015 37.3805 17.9417 37.3382 17.975C37.2585 18.0377 37.1373 17.988 36.9107 17.7997C36.7014 17.6257 36.5643 17.4314 36.4618 17.1635C36.3841 16.9602 36.3542 16.7985 36.344 16.5261C36.338 16.364 36.3283 16.2811 36.3129 16.2599C36.2861 16.2228 36.2055 16.2046 36.1606 16.2255C36.1428 16.2338 36.0624 16.3128 35.9821 16.4012C35.4113 17.0288 34.9406 17.674 34.6939 18.1669C34.4093 18.7354 34.3608 19.1423 34.5263 19.5735C34.683 19.9815 35.0912 20.358 35.5726 20.5386C35.7304 20.5978 35.964 20.655 36.114 20.6712C36.1222 20.6721 36.1301 20.673 36.1375 20.674C36.1242 20.6758 36.139 20.6776 36.1722 20.6791C36.1923 20.6826 36.204 20.6858 36.2017 20.6878C36.1897 20.6983 35.8831 20.6649 35.7074 20.634C35.2334 20.5506 34.7245 20.3403 34.3359 20.0673C34.1635 19.9461 33.9089 19.7107 33.7763 19.5497C33.5666 19.2953 33.3686 18.9051 33.2986 18.6086C33.139 17.9329 33.3015 17.2563 33.8534 16.2979C34.0215 16.0059 34.3057 15.5667 34.3588 15.5167C34.4049 15.4734 34.4909 15.4737 34.5412 15.5174C34.5708 15.5432 34.5829 15.5774 34.5977 15.6781C34.6306 15.9014 34.7093 16.1083 34.8237 16.2721C34.887 16.3628 34.9329 16.3977 34.9886 16.3977C35.0603 16.3977 35.3713 16.1991 35.5684 16.0274C35.7973 15.8279 35.9428 15.6524 36.0833 15.4061C36.2063 15.1905 36.2673 15.0444 36.3368 14.7985C36.428 14.4763 36.4418 14.3613 36.447 13.8815C36.4525 13.38 36.4506 13.3873 36.578 13.3873C36.6481 13.3873 36.6485 13.3876 36.8188 13.5692Z" fill="#F9F0DC"/>
<path fill-rule="evenodd" clip-rule="evenodd" d="M36.1053 16.4174C35.1913 17.3054 34.5725 18.1404 34.3811 18.7441C34.2645 19.1122 34.3025 19.4446 34.4983 19.7698C34.598 19.9353 34.6958 20.0476 34.8553 20.1797C35.1837 20.4518 35.6246 20.6262 36.1115 20.6765C36.234 20.6892 36.6383 20.6896 36.5261 20.6826C36.4859 20.6801 36.3793 20.6766 36.1694 20.6724C35.875 20.6289 35.655 20.5385 35.4541 20.3784C35.3314 20.2806 35.2607 20.2008 35.1996 20.0912C35.0382 19.8013 35.0714 19.509 35.3105 19.1151C35.4094 18.9521 35.5116 18.8088 35.5362 18.7983C35.5965 18.7728 35.6451 18.8051 35.6693 18.8869C35.6897 18.9558 35.7354 19.04 35.7632 19.0599C35.8157 19.0976 35.8955 19.0677 36.0447 18.9548C36.1825 18.8504 36.2729 18.7339 36.3403 18.5732C36.3916 18.4512 36.4112 18.3543 36.4179 18.1909C36.4219 18.0937 36.4283 18.044 36.4384 18.0312C36.456 18.009 36.5091 17.998 36.5387 18.0106C36.5505 18.0156 36.6034 18.063 36.6563 18.116C37.0321 18.4924 37.3421 18.8794 37.5046 19.175C37.692 19.516 37.7239 19.7601 37.6149 20.0187C37.5118 20.2634 37.243 20.4892 36.9259 20.5975C36.822 20.633 36.6682 20.6674 36.5694 20.6771C36.5519 20.6788 36.5366 20.6808 36.5261 20.6826C36.516 20.6844 36.5103 20.686 36.5116 20.687C36.5195 20.6933 36.6096 20.6912 36.8372 20.6547C37.1493 20.6047 37.4845 20.4786 37.7404 20.3148C37.8539 20.2422 38.0215 20.101 38.1089 20.0044C38.2469 19.8518 38.3773 19.6178 38.4235 19.4399C38.5285 19.0347 38.4216 18.6288 38.0581 18.054C37.9474 17.8789 37.7602 17.6155 37.7253 17.5855C37.6949 17.5595 37.6382 17.5597 37.6052 17.5859C37.5856 17.6014 37.5777 17.6219 37.5679 17.6823C37.5463 17.8162 37.4944 17.9403 37.4191 18.0385C37.3774 18.0929 37.3472 18.1139 37.3106 18.1139C37.2633 18.1139 37.0585 17.9948 36.9287 17.8918C36.778 17.7721 36.6822 17.6669 36.5897 17.5192C36.5086 17.3898 36.4685 17.3022 36.4227 17.1547C36.3626 16.9614 36.3535 16.8925 36.3501 16.6047C36.3465 16.3039 36.3478 16.3083 36.2638 16.3083C36.2177 16.3083 36.2174 16.3085 36.1053 16.4174Z" fill="#F9F0DC"/>
<path d="M36.1694 20.6724C36.3793 20.6766 36.4859 20.6801 36.5261 20.6826C36.5366 20.6808 36.5519 20.6788 36.5694 20.6771C36.6682 20.6674 36.822 20.633 36.9259 20.5975C37.243 20.4892 37.5118 20.2634 37.6149 20.0187C37.7239 19.7601 37.692 19.516 37.5046 19.175C37.3421 18.8794 37.0321 18.4924 36.6563 18.116C36.6034 18.063 36.5505 18.0156 36.5387 18.0106C36.5091 17.998 36.456 18.009 36.4384 18.0312C36.4283 18.044 36.4219 18.0937 36.4179 18.1909C36.4112 18.3543 36.3916 18.4512 36.3403 18.5732C36.2729 18.7339 36.1825 18.8504 36.0447 18.9548C35.8955 19.0677 35.8157 19.0976 35.7632 19.0599C35.7354 19.04 35.6897 18.9558 35.6693 18.8869C35.6451 18.8051 35.5965 18.7728 35.5362 18.7983C35.5116 18.8088 35.4094 18.9521 35.3105 19.1151C35.0714 19.509 35.0382 19.8013 35.1996 20.0912C35.2607 20.2008 35.3314 20.2806 35.4541 20.3784C35.655 20.5385 35.875 20.6289 36.1694 20.6724Z" fill="#F9F0DC"/>
<path d="M6.87806 26.744C7.48606 26.488 8.01406 26.36 8.46206 26.36C8.91006 26.36 9.30473 26.4027 9.64606 26.488C9.9874 26.5733 10.3341 26.7173 10.6861 26.92C11.0487 27.112 11.3847 27.352 11.6941 27.64C12.2914 28.2053 12.7981 28.8453 13.2141 29.56L16.4141 35.56L21.0541 27.576H21.1981L22.8621 36.984C23.1181 38.4347 23.5607 39.5867 24.1901 40.44C24.8194 41.304 25.6834 41.736 26.7821 41.736C26.8567 41.736 26.9261 41.736 26.9901 41.736V41.896C26.4034 42.056 25.8274 42.136 25.2621 42.136C24.1101 42.136 23.0594 41.6827 22.1101 40.776C21.1927 39.912 20.5687 38.648 20.2381 36.984L19.4541 32.328L16.4461 37.544C16.0407 38.216 15.8327 38.808 15.8221 39.32H15.6781L11.6941 31.768L10.9101 38.168C10.8781 38.4133 10.9847 38.6107 11.2301 38.76C11.3261 38.824 11.4274 38.856 11.5341 38.856H11.7901V39H8.44606V38.84H8.70206C8.9794 38.84 9.22473 38.76 9.43806 38.6C9.66206 38.4293 9.80073 38.2 9.85406 37.912L10.9421 30.28C10.4621 29.4267 9.91273 28.6693 9.29406 28.008C8.60073 27.2613 7.8754 26.888 7.11806 26.888C7.0434 26.888 6.97406 26.8933 6.91006 26.904L6.87806 26.744ZM24.7784 38.84C25.0558 38.84 25.2904 38.744 25.4824 38.552C25.6851 38.3493 25.7918 38.1093 25.8024 37.832V28.92C25.7704 28.5467 25.5944 28.2693 25.2744 28.088C25.1144 28.0027 24.9491 27.96 24.7784 27.96H24.5704V27.8H29.0664C29.5358 27.8 29.9464 27.7627 30.2984 27.688C30.6504 27.6133 30.8798 27.5547 30.9864 27.512V30.312H30.8104V30.12C30.8211 29.64 30.6824 29.256 30.3944 28.968C30.1171 28.6693 29.7384 28.5093 29.2584 28.488H28.2024V33.144H30.7464C31.1411 33.1333 31.4664 33 31.7224 32.744C31.9784 32.4773 32.1064 32.152 32.1064 31.768V31.624H32.2504V35.32H32.1064V35.192C32.1064 34.7973 31.9784 34.472 31.7224 34.216C31.4664 33.96 31.1464 33.8267 30.7624 33.816H28.2024V38.312H31.3224C32.1011 38.312 32.7518 38.088 33.2744 37.64C33.8078 37.192 34.2024 36.5573 34.4584 35.736H34.6184L33.8664 39H24.5704V38.84H24.7784ZM49.4987 40.664C49.68 40.7707 49.8827 40.8667 50.1067 40.952C50.3307 41.048 50.544 41.112 50.7467 41.144C50.96 41.1867 51.1894 41.208 51.4347 41.208C51.6907 41.208 51.952 41.176 52.2187 41.112L52.2827 41.272C51.6854 41.56 51.0827 41.704 50.4747 41.704C49.0774 41.704 47.6534 40.9307 46.2027 39.384L38.6187 31.336V37.88C38.6187 38.1467 38.7147 38.376 38.9067 38.568C39.0987 38.7493 39.328 38.84 39.5947 38.84H39.8987V39H35.0507V38.84H35.3387C35.616 38.84 35.8507 38.7493 36.0427 38.568C36.2347 38.376 36.3307 38.1413 36.3307 37.864V28.888C35.808 28.2907 35.4134 27.8747 35.1467 27.64C34.88 27.3947 34.6454 27.192 34.4427 27.032C34.2294 26.872 34.0267 26.7387 33.8347 26.632C33.3867 26.376 33.0294 26.2267 32.7627 26.184C32.4854 26.1413 32.2294 26.12 31.9947 26.12C31.7494 26.12 31.488 26.168 31.2107 26.264L31.1467 26.104C31.7334 25.7627 32.336 25.592 32.9547 25.592C34.2987 25.592 35.7227 26.392 37.2267 27.992L44.3787 35.592V28.936C44.368 28.6587 44.2667 28.4293 44.0747 28.248C43.8827 28.056 43.6534 27.96 43.3867 27.96H43.0987V27.8H47.9467V27.96H47.6427C47.376 27.96 47.1467 28.056 46.9547 28.248C46.7627 28.4293 46.6614 28.6533 46.6507 28.92V38.024L46.9067 38.28C46.9707 38.344 47.0667 38.456 47.1947 38.616C47.3334 38.7653 47.456 38.8933 47.5627 39C47.6694 39.1173 47.8027 39.2613 47.9627 39.432C48.1334 39.6027 48.288 39.752 48.4267 39.88C48.576 40.008 48.7467 40.1467 48.9387 40.296C49.1414 40.4453 49.328 40.568 49.4987 40.664ZM62.9584 24.552C63.0971 24.552 63.2411 24.5573 63.3904 24.568V24.728C62.1318 24.824 61.2251 25.4213 60.6704 26.52C60.3078 27.2347 60.1264 28.1413 60.1264 29.24V34.952C60.1051 36.296 59.6731 37.3467 58.8304 38.104C57.9878 38.8507 56.7824 39.224 55.2144 39.224C53.6571 39.224 52.4144 38.84 51.4864 38.072C50.5584 37.2933 50.0998 36.2587 50.1104 34.968V28.744C50.1104 28.52 50.0251 28.3333 49.8544 28.184C49.6944 28.0347 49.4971 27.96 49.2624 27.96H49.0064V27.8H53.6144V27.96H53.3584C53.0278 27.96 52.7824 28.088 52.6224 28.344C52.5478 28.4613 52.5104 28.5893 52.5104 28.728V34.84C52.5104 35.9707 52.8038 36.8667 53.3904 37.528C53.9771 38.1893 54.7504 38.52 55.7104 38.52C55.7211 38.52 55.7264 38.52 55.7264 38.52C55.7264 38.52 55.7318 38.52 55.7424 38.52C56.6918 38.52 57.4704 38.2107 58.0784 37.592C58.6864 36.9733 58.9904 36.1253 58.9904 35.048V29.24C58.9904 27.8 59.3691 26.6587 60.1264 25.816C60.8944 24.9733 61.8384 24.552 62.9584 24.552Z" fill="#F9F0DC"/>
</svg>
