<svg width="47" height="43" viewBox="0 0 47 43" fill="none" xmlns="http://www.w3.org/2000/svg">
<path fill-rule="evenodd" clip-rule="evenodd" d="M2.77359 0.639113C1.77272 1.09394 1.1704 1.59177 0.683714 2.36679L0 3.45536V21.5V39.5446L0.683714 40.6332C1.1704 41.4082 1.77272 41.9061 2.77359 42.3609C4.16993 42.9954 4.2342 43 11.8432 43H19.5066V35.7054V28.4107H16.1386H12.7705V24.9554V21.5H16.1386H19.5066L19.5097 17.8527C19.5136 13.1258 19.9304 11.74 21.9678 9.6837C24.3642 7.2647 28.6425 6.45154 34.312 7.33713L35.2242 7.4797V10.3945V13.3095L33.049 13.3239C30.2911 13.3423 29.1005 13.7162 28.2874 14.8191C27.7132 15.598 27.6461 15.9927 27.6461 18.5944V21.5H31.3136C34.6715 21.5 34.9699 21.5379 34.845 21.9479C34.7701 22.1944 34.4925 23.7491 34.2284 25.4033L33.7479 28.4107H30.697H27.6461V35.7054V43L35.154 42.9887C44.4274 42.9749 45.2405 42.783 46.4844 40.3125C46.9691 39.3501 47 38.2196 47 21.5C47 4.78042 46.9691 3.64988 46.4844 2.6875C46.2009 2.1244 45.707 1.45125 45.3864 1.19146C43.9612 0.0355776 43.7265 0.0230356 23.4209 0.0112618L4.18003 0L2.77359 0.639113Z" fill="#F9F0DC"/>
</svg>
