<svg width="343" height="146" viewBox="0 0 343 146" fill="none" xmlns="http://www.w3.org/2000/svg">
<path d="M52.0589 131.844L52.0589 144.972H50.8608V131.844H52.0589ZM57.0358 144.39V144.972H52.0036V144.39H57.0358ZM58.1602 141.934L57.0911 144.972H54.0312L54.6948 144.39C55.3461 144.39 55.8745 144.29 56.2801 144.09C56.6979 143.878 57.0358 143.584 57.2939 143.209C57.5519 142.834 57.7793 142.409 57.9759 141.934H58.1602ZM50.9161 143.603V144.972H49.4414V144.784C49.4414 144.784 49.4783 144.784 49.552 144.784C49.6381 144.784 49.6811 144.784 49.6811 144.784C50.0006 144.784 50.2709 144.672 50.4921 144.447C50.7256 144.209 50.8485 143.928 50.8608 143.603H50.9161ZM50.9161 133.213H50.8608C50.8485 132.888 50.7256 132.613 50.4921 132.388C50.2709 132.15 50.0006 132.031 49.6811 132.031C49.6811 132.031 49.6381 132.031 49.552 132.031C49.4783 132.031 49.4414 132.031 49.4414 132.031V131.844H50.9161V133.213ZM52.0036 133.213V131.844L53.4783 131.844V132.031C53.466 132.031 53.423 132.031 53.3492 132.031C53.2755 132.031 53.2386 132.031 53.2386 132.031C52.9191 132.031 52.6426 132.15 52.4091 132.388C52.1879 132.613 52.0712 132.888 52.0589 133.213H52.0036Z" fill="#F9EFD9"/>
<path d="M66.0776 133.457L71.1466 144.859H69.6904L65.7642 135.126L66.0776 133.457ZM62.52 143.603C62.3849 143.978 62.4033 144.272 62.5753 144.484C62.7474 144.684 62.944 144.784 63.1652 144.784H63.3126V144.972H59.792V144.784C59.792 144.784 59.8165 144.784 59.8657 144.784C59.9148 144.784 59.9394 144.784 59.9394 144.784C60.1975 144.784 60.4617 144.697 60.732 144.522C61.0024 144.334 61.2359 144.028 61.4325 143.603H62.52ZM66.0776 133.457L66.2066 134.751L61.9855 144.915H60.8242L65.1928 135.388C65.1928 135.388 65.2235 135.313 65.285 135.163C65.3587 135.013 65.4386 134.832 65.5246 134.619C65.6229 134.394 65.7089 134.176 65.7827 133.963C65.8564 133.751 65.8994 133.582 65.9117 133.457H66.0776ZM68.2527 140.602V141.165H63.3679V140.602L68.2527 140.602ZM69.1928 143.603H70.5937C70.778 144.028 71.0053 144.334 71.2757 144.522C71.546 144.697 71.8041 144.784 72.0499 144.784C72.0499 144.784 72.0744 144.784 72.1236 144.784C72.1727 144.784 72.1973 144.784 72.1973 144.784V144.972H68.4186V144.784H68.566C68.7749 144.784 68.9654 144.684 69.1375 144.484C69.3095 144.272 69.3279 143.978 69.1928 143.603Z" fill="#F9EFD9"/>
<path d="M82.3923 133.719H84.4384C85.2986 133.719 86.042 133.851 86.6688 134.113C87.2955 134.363 87.7809 134.732 88.125 135.22C88.469 135.695 88.6411 136.264 88.6411 136.926C88.6411 137.639 88.4813 138.252 88.1618 138.764C87.8546 139.264 87.4429 139.652 86.9268 139.927C86.4107 140.189 85.8393 140.321 85.2126 140.321C84.5858 140.308 83.9591 140.146 83.3324 139.833V139.646C83.3324 139.646 83.4307 139.664 83.6273 139.702C83.8362 139.739 84.1004 139.758 84.4199 139.758C84.7394 139.746 85.0774 139.689 85.4338 139.589C85.7901 139.477 86.1219 139.277 86.4291 138.989C86.7486 138.702 87.0005 138.289 87.1849 137.751C87.234 137.614 87.2648 137.451 87.277 137.264C87.3016 137.076 87.3139 136.901 87.3139 136.739C87.3139 135.976 87.0558 135.376 86.5397 134.938C86.0236 134.501 85.3109 134.282 84.4015 134.282H82.5951C82.5951 134.282 82.5766 134.238 82.5398 134.151C82.5152 134.051 82.4845 133.957 82.4476 133.869C82.4108 133.769 82.3923 133.719 82.3923 133.719ZM82.6319 133.719V144.972H81.4522V133.719H82.6319ZM81.4891 143.771L81.7287 144.972H80.1251V144.784C80.1251 144.784 80.1681 144.784 80.2541 144.784C80.3401 144.784 80.3831 144.784 80.3831 144.784C80.6781 144.784 80.9238 144.684 81.1204 144.484C81.3294 144.284 81.44 144.046 81.4522 143.771H81.4891ZM81.4891 134.901H81.4522C81.44 134.613 81.3294 134.376 81.1204 134.188C80.9238 134.001 80.6781 133.907 80.3831 133.907C80.3831 133.907 80.3401 133.907 80.2541 133.907C80.1681 133.907 80.1251 133.907 80.1251 133.907V133.719H81.7287L81.4891 134.901ZM82.5766 143.771H82.6135C82.6258 144.046 82.7303 144.284 82.9269 144.484C83.1358 144.684 83.3877 144.784 83.6826 144.784C83.6949 144.784 83.7379 144.784 83.8116 144.784C83.8977 144.784 83.9407 144.784 83.9407 144.784V144.972H82.337L82.5766 143.771Z" fill="#F9EFD9"/>
<path d="M94.1845 133.719V144.972H93.0232L93.0232 133.719H94.1845ZM93.0785 143.771V144.972H91.5117V144.784C91.5117 144.784 91.5547 144.784 91.6408 144.784C91.7268 144.784 91.7698 144.784 91.7698 144.784C92.1139 144.784 92.4026 144.684 92.6361 144.484C92.8819 144.284 93.0109 144.046 93.0232 143.771H93.0785ZM94.1292 143.771H94.1845C94.1968 144.046 94.3197 144.284 94.5532 144.484C94.7989 144.684 95.0939 144.784 95.4379 144.784C95.4379 144.784 95.4748 144.784 95.5485 144.784C95.6346 144.784 95.6776 144.784 95.6776 144.784L95.696 144.972H94.1292V143.771ZM94.1292 134.92V133.719H95.696L95.6776 133.907C95.6776 133.907 95.6346 133.907 95.5485 133.907C95.4748 133.907 95.4379 133.907 95.4379 133.907C95.0939 133.907 94.7989 134.007 94.5532 134.207C94.3197 134.394 94.1968 134.632 94.1845 134.92H94.1292ZM93.0785 134.92H93.0232C93.0109 134.632 92.8819 134.394 92.6361 134.207C92.4026 134.007 92.1139 133.907 91.7698 133.907C91.7575 133.907 91.7083 133.907 91.6223 133.907C91.5486 133.907 91.5117 133.907 91.5117 133.907V133.719H93.0785V134.92Z" fill="#F9EFD9"/>
<path d="M107.473 133.457C107.473 133.457 107.473 133.488 107.473 133.551C107.473 133.601 107.473 133.626 107.473 133.626L100.1 144.972H98.81V144.803L105.685 134.263H99.0865V133.701H105.391C105.649 133.701 105.925 133.688 106.22 133.663C106.515 133.638 106.779 133.607 107.013 133.569C107.246 133.532 107.4 133.494 107.473 133.457ZM107.639 144.409L107.51 144.972H100.008V144.409H107.639ZM108.635 142.29L107.639 144.972H104.874L105.501 144.409C106.103 144.397 106.583 144.303 106.939 144.128C107.308 143.953 107.609 143.709 107.842 143.396C108.076 143.071 108.278 142.702 108.45 142.29H108.635ZM99.0865 134.226H100.211V134.263C99.9406 134.276 99.7194 134.376 99.5473 134.563C99.3753 134.738 99.2893 134.963 99.2893 135.238V135.52H99.0865V134.226ZM99.0865 133.4C99.1971 133.438 99.3691 133.482 99.6026 133.532C99.8361 133.569 100.088 133.607 100.358 133.644C100.641 133.669 100.905 133.688 101.151 133.701L99.0865 133.888V133.4Z" fill="#F9EFD9"/>
<path d="M119.886 133.457C119.886 133.457 119.886 133.488 119.886 133.551C119.886 133.601 119.886 133.626 119.886 133.626L112.513 144.972H111.223V144.803L118.098 134.263L111.499 134.263V133.701H117.803C118.061 133.701 118.338 133.688 118.633 133.663C118.928 133.638 119.192 133.607 119.425 133.569C119.659 133.532 119.812 133.494 119.886 133.457ZM120.052 144.409L119.923 144.972H112.421V144.409H120.052ZM121.047 142.29L120.052 144.972H117.287L117.914 144.409C118.516 144.397 118.995 144.303 119.352 144.128C119.72 143.953 120.021 143.709 120.255 143.396C120.488 143.071 120.691 142.702 120.863 142.29H121.047ZM111.499 134.226H112.624V134.263C112.353 134.276 112.132 134.376 111.96 134.563C111.788 134.738 111.702 134.963 111.702 135.238V135.52H111.499V134.226ZM111.499 133.4C111.61 133.438 111.782 133.482 112.015 133.532C112.249 133.569 112.501 133.607 112.771 133.644C113.054 133.669 113.318 133.688 113.564 133.701L111.499 133.888V133.4Z" fill="#F9EFD9"/>
<path d="M128.907 133.457L133.976 144.859H132.52L128.594 135.126L128.907 133.457ZM125.35 143.603C125.215 143.978 125.233 144.272 125.405 144.484C125.577 144.684 125.774 144.784 125.995 144.784H126.142V144.972H122.622V144.784C122.622 144.784 122.646 144.784 122.695 144.784C122.744 144.784 122.769 144.784 122.769 144.784C123.027 144.784 123.291 144.697 123.562 144.522C123.832 144.334 124.066 144.028 124.262 143.603H125.35ZM128.907 133.457L129.036 134.751L124.815 144.915H123.654L128.022 135.388C128.022 135.388 128.053 135.313 128.115 135.163C128.188 135.013 128.268 134.832 128.354 134.619C128.453 134.394 128.539 134.176 128.612 133.963C128.686 133.751 128.729 133.582 128.741 133.457H128.907ZM131.082 140.602V141.165H126.198V140.602H131.082ZM132.022 143.603H133.423C133.608 144.028 133.835 144.334 134.105 144.522C134.376 144.697 134.634 144.784 134.88 144.784C134.88 144.784 134.904 144.784 134.953 144.784C135.002 144.784 135.027 144.784 135.027 144.784V144.972H131.248V144.784H131.396C131.605 144.784 131.795 144.684 131.967 144.484C132.139 144.272 132.158 143.978 132.022 143.603Z" fill="#F9EFD9"/>
<path d="M148.134 133.457L153.203 144.859H151.747L147.821 135.126L148.134 133.457ZM144.577 143.603C144.442 143.978 144.46 144.272 144.632 144.484C144.804 144.684 145.001 144.784 145.222 144.784H145.369V144.972H141.849V144.784C141.849 144.784 141.873 144.784 141.922 144.784C141.972 144.784 141.996 144.784 141.996 144.784C142.254 144.784 142.518 144.697 142.789 144.522C143.059 144.334 143.293 144.028 143.489 143.603H144.577ZM148.134 133.457L148.263 134.751L144.042 144.915H142.881L147.25 135.388C147.25 135.388 147.28 135.313 147.342 135.163C147.415 135.013 147.495 134.832 147.581 134.619C147.68 134.394 147.766 134.176 147.839 133.963C147.913 133.751 147.956 133.582 147.968 133.457H148.134ZM150.309 140.602V141.165H145.425V140.602H150.309ZM151.25 143.603H152.65C152.835 144.028 153.062 144.334 153.332 144.522C153.603 144.697 153.861 144.784 154.107 144.784C154.107 144.784 154.131 144.784 154.18 144.784C154.23 144.784 154.254 144.784 154.254 144.784V144.972H150.475V144.784H150.623C150.832 144.784 151.022 144.684 151.194 144.484C151.366 144.272 151.385 143.978 151.25 143.603Z" fill="#F9EFD9"/>
<path d="M157.702 133.719V140.808C157.702 142.021 158.003 142.978 158.605 143.678C159.22 144.378 160.055 144.728 161.112 144.728C162.279 144.728 163.195 144.397 163.859 143.734C164.534 143.071 164.872 142.165 164.872 141.015V133.719H165.72V141.015C165.72 142.315 165.309 143.346 164.485 144.109C163.674 144.859 162.556 145.234 161.13 145.234C159.717 145.234 158.593 144.859 157.757 144.109C156.934 143.359 156.522 142.334 156.522 141.033V133.719H157.702ZM156.559 133.719V134.713H156.522C156.51 134.488 156.418 134.301 156.246 134.151C156.086 133.988 155.883 133.907 155.637 133.907C155.637 133.907 155.588 133.907 155.49 133.907C155.404 133.907 155.361 133.907 155.361 133.907V133.719H156.559ZM158.863 133.719V133.907C158.863 133.907 158.814 133.907 158.716 133.907C158.63 133.907 158.587 133.907 158.587 133.907C158.353 133.907 158.144 133.988 157.96 134.151C157.788 134.301 157.702 134.488 157.702 134.713H157.665V133.719H158.863ZM164.909 133.719V134.713H164.872C164.872 134.488 164.786 134.301 164.614 134.151C164.442 133.988 164.233 133.907 163.988 133.907C163.988 133.907 163.938 133.907 163.84 133.907C163.754 133.907 163.711 133.907 163.711 133.907V133.719H164.909ZM166.882 133.719V133.907C166.882 133.907 166.832 133.907 166.734 133.907C166.648 133.907 166.605 133.907 166.605 133.907C166.372 133.907 166.169 133.988 165.997 134.151C165.825 134.301 165.733 134.488 165.72 134.713H165.683V133.719H166.882Z" fill="#F9EFD9"/>
<path d="M178.055 133.719V144.972H176.894V133.719H178.055ZM182.203 139.064V139.627H178.019V139.064H182.203ZM183.069 133.719V134.301H178.019V133.719H183.069ZM182.203 139.589V140.658H182V140.414C182 140.202 181.939 140.021 181.816 139.871C181.705 139.708 181.515 139.627 181.244 139.627V139.589H182.203ZM182.203 138.033V139.102H181.244V139.064C181.515 139.064 181.705 138.989 181.816 138.839C181.939 138.677 182 138.489 182 138.277V138.033H182.203ZM183.069 134.244V135.538H182.866V135.257C182.866 134.995 182.78 134.77 182.608 134.582C182.449 134.394 182.227 134.301 181.945 134.301V134.244H183.069ZM183.069 133.419V133.907L180.949 133.719C181.208 133.719 181.478 133.707 181.76 133.682C182.043 133.644 182.301 133.601 182.535 133.551C182.78 133.5 182.959 133.457 183.069 133.419ZM176.931 143.771L177.171 144.972H175.549V144.784C175.549 144.784 175.592 144.784 175.678 144.784C175.764 144.784 175.807 144.784 175.807 144.784C176.114 144.784 176.366 144.684 176.562 144.484C176.771 144.284 176.882 144.046 176.894 143.771H176.931ZM176.931 134.901H176.894C176.882 134.613 176.771 134.376 176.562 134.188C176.366 134.001 176.114 133.907 175.807 133.907C175.807 133.907 175.764 133.907 175.678 133.907C175.592 133.907 175.549 133.907 175.549 133.907V133.719H177.171L176.931 134.901ZM178.019 143.771H178.055C178.068 144.046 178.172 144.284 178.369 144.484C178.578 144.684 178.836 144.784 179.143 144.784C179.143 144.784 179.186 144.784 179.272 144.784C179.358 144.784 179.401 144.784 179.401 144.784V144.972H177.779L178.019 143.771Z" fill="#F9EFD9"/>
<path d="M188.902 133.719V144.972H187.722V133.719H188.902ZM193.861 144.39L193.824 144.972L188.865 144.972V144.39H193.861ZM192.994 139.064V139.627H188.865V139.064H192.994ZM193.842 133.719V134.301H188.865V133.719H193.842ZM194.893 142.29L193.879 144.972L191.077 144.972L191.704 144.39C192.318 144.39 192.81 144.303 193.179 144.128C193.56 143.94 193.867 143.69 194.1 143.378C194.334 143.053 194.536 142.69 194.708 142.29H194.893ZM192.994 139.589V140.658H192.791V140.414C192.791 140.202 192.73 140.021 192.607 139.871C192.484 139.708 192.294 139.627 192.036 139.627V139.589H192.994ZM192.994 138.033V139.102H192.036V139.064C192.294 139.064 192.484 138.989 192.607 138.839C192.73 138.677 192.791 138.489 192.791 138.277V138.033H192.994ZM193.842 134.244V135.538H193.639V135.257C193.639 134.995 193.553 134.77 193.381 134.582C193.222 134.394 193 134.301 192.718 134.301V134.244H193.842ZM193.842 133.419V133.907L191.741 133.719C192.122 133.719 192.527 133.688 192.957 133.626C193.387 133.55 193.682 133.482 193.842 133.419ZM187.759 143.771L187.999 144.972H186.395V144.784C186.395 144.784 186.438 144.784 186.524 144.784C186.61 144.784 186.653 144.784 186.653 144.784C186.961 144.784 187.212 144.684 187.409 144.484C187.606 144.284 187.71 144.046 187.722 143.771H187.759ZM187.759 134.901H187.722C187.71 134.613 187.606 134.376 187.409 134.188C187.212 134.001 186.961 133.907 186.653 133.907C186.653 133.907 186.61 133.907 186.524 133.907C186.438 133.907 186.395 133.907 186.395 133.907V133.719H187.999L187.759 134.901Z" fill="#F9EFD9"/>
<path d="M199.72 133.719V140.808C199.72 142.021 200.021 142.978 200.624 143.678C201.238 144.378 202.074 144.728 203.13 144.728C204.298 144.728 205.213 144.397 205.877 143.734C206.553 143.071 206.891 142.165 206.891 141.015V133.719H207.739V141.015C207.739 142.315 207.327 143.346 206.504 144.109C205.693 144.859 204.574 145.234 203.149 145.234C201.736 145.234 200.611 144.859 199.776 144.109C198.952 143.359 198.541 142.334 198.541 141.033V133.719H199.72ZM198.578 133.719V134.713L198.541 134.713C198.528 134.488 198.436 134.301 198.264 134.151C198.104 133.988 197.902 133.907 197.656 133.907C197.656 133.907 197.607 133.907 197.508 133.907C197.422 133.907 197.379 133.907 197.379 133.907V133.719H198.578ZM200.882 133.719V133.907C200.882 133.907 200.832 133.907 200.734 133.907C200.648 133.907 200.605 133.907 200.605 133.907C200.372 133.907 200.163 133.988 199.978 134.151C199.806 134.301 199.72 134.488 199.72 134.713H199.684V133.719H200.882ZM206.928 133.719V134.713H206.891C206.891 134.488 206.805 134.301 206.633 134.151C206.461 133.988 206.252 133.907 206.006 133.907C206.006 133.907 205.957 133.907 205.859 133.907C205.773 133.907 205.73 133.907 205.73 133.907V133.719H206.928ZM208.9 133.719V133.907C208.9 133.907 208.851 133.907 208.753 133.907C208.667 133.907 208.623 133.907 208.623 133.907C208.39 133.907 208.187 133.988 208.015 134.151C207.843 134.301 207.751 134.488 207.739 134.713H207.702V133.719H208.9Z" fill="#F9EFD9"/>
<path d="M223.724 133.719C224.94 133.719 225.991 133.944 226.876 134.394C227.76 134.845 228.442 135.495 228.922 136.345C229.401 137.183 229.641 138.183 229.641 139.345C229.641 140.508 229.401 141.508 228.922 142.346C228.442 143.184 227.76 143.834 226.876 144.297C225.991 144.747 224.94 144.972 223.724 144.972H219.797L219.761 144.409C220.621 144.409 221.34 144.409 221.917 144.409C222.507 144.409 222.956 144.409 223.263 144.409C223.57 144.409 223.724 144.409 223.724 144.409C225.149 144.409 226.267 143.959 227.078 143.059C227.902 142.146 228.313 140.908 228.313 139.345C228.313 137.783 227.902 136.551 227.078 135.651C226.267 134.738 225.149 134.282 223.724 134.282C223.724 134.282 223.564 134.282 223.244 134.282C222.925 134.282 222.458 134.282 221.843 134.282C221.229 134.282 220.473 134.282 219.576 134.282V133.719H223.724ZM220.056 133.719V144.972H218.857V133.719H220.056ZM218.894 143.753V144.972H217.567V144.784C217.567 144.784 217.604 144.784 217.678 144.784C217.764 144.784 217.807 144.784 217.807 144.784C218.102 144.784 218.347 144.684 218.544 144.484C218.741 144.272 218.845 144.028 218.857 143.753H218.894ZM218.894 134.938H218.857C218.845 134.638 218.734 134.394 218.526 134.207C218.329 134.007 218.083 133.907 217.788 133.907C217.788 133.907 217.751 133.907 217.678 133.907C217.604 133.907 217.567 133.907 217.567 133.907V133.719H218.894V134.938Z" fill="#F9EFD9"/>
<path d="M235.007 133.719V144.972H233.827V133.719H235.007ZM239.965 144.39L239.928 144.972H234.97V144.39H239.965ZM239.099 139.064V139.627H234.97V139.064H239.099ZM239.947 133.719V134.301H234.97V133.719H239.947ZM240.997 142.29L239.984 144.972H237.182L237.809 144.39C238.423 144.39 238.915 144.303 239.283 144.128C239.664 143.94 239.971 143.69 240.205 143.378C240.438 143.053 240.641 142.69 240.813 142.29H240.997ZM239.099 139.589V140.658H238.896V140.414C238.896 140.202 238.835 140.021 238.712 139.871C238.589 139.708 238.398 139.627 238.14 139.627V139.589H239.099ZM239.099 138.033V139.102H238.14V139.064C238.398 139.064 238.589 138.989 238.712 138.839C238.835 138.677 238.896 138.489 238.896 138.277V138.033H239.099ZM239.947 134.244V135.538H239.744V135.257C239.744 134.995 239.658 134.77 239.486 134.582C239.326 134.394 239.105 134.301 238.822 134.301V134.244H239.947ZM239.947 133.419V133.907L237.845 133.719C238.226 133.719 238.632 133.688 239.062 133.626C239.492 133.551 239.787 133.482 239.947 133.419ZM233.864 143.771L234.104 144.972H232.5V144.784C232.5 144.784 232.543 144.784 232.629 144.784C232.715 144.784 232.758 144.784 232.758 144.784C233.065 144.784 233.317 144.684 233.514 144.484C233.71 144.284 233.815 144.047 233.827 143.771H233.864ZM233.864 134.901H233.827C233.815 134.613 233.71 134.376 233.514 134.188C233.317 134.001 233.065 133.907 232.758 133.907C232.758 133.907 232.715 133.907 232.629 133.907C232.543 133.907 232.5 133.907 232.5 133.907V133.719H234.104L233.864 134.901Z" fill="#F9EFD9"/>
<path d="M251.134 133.719H253.327C253.659 133.719 254.04 133.751 254.47 133.813C254.912 133.876 255.336 134.001 255.742 134.188C256.147 134.376 256.485 134.657 256.756 135.032C257.026 135.407 257.161 135.907 257.161 136.532C257.161 136.907 257.063 137.258 256.866 137.583C256.67 137.908 256.418 138.183 256.111 138.408C255.803 138.62 255.478 138.77 255.134 138.858C255.736 138.92 256.264 139.095 256.719 139.383C257.186 139.658 257.554 140.008 257.825 140.433C258.095 140.858 258.23 141.321 258.23 141.821C258.23 142.434 258.101 142.946 257.843 143.359C257.598 143.759 257.272 144.078 256.866 144.315C256.461 144.553 256.018 144.722 255.539 144.822C255.06 144.922 254.593 144.972 254.138 144.972H251.889C251.889 144.972 251.889 144.928 251.889 144.84C251.902 144.74 251.908 144.647 251.908 144.559C251.908 144.459 251.908 144.409 251.908 144.409H254.12C254.648 144.409 255.121 144.322 255.539 144.147C255.969 143.959 256.307 143.671 256.553 143.284C256.799 142.896 256.922 142.409 256.922 141.821C256.922 141.221 256.793 140.74 256.535 140.377C256.276 140.002 255.939 139.721 255.521 139.533C255.103 139.333 254.642 139.202 254.138 139.139C253.634 139.064 253.131 139.027 252.627 139.027V138.839C252.959 138.839 253.315 138.814 253.696 138.764C254.077 138.714 254.427 138.614 254.747 138.464C255.078 138.302 255.349 138.07 255.558 137.77C255.767 137.458 255.871 137.045 255.871 136.532C255.871 135.745 255.644 135.176 255.189 134.826C254.734 134.463 254.108 134.282 253.309 134.282H251.3C251.3 134.269 251.281 134.219 251.244 134.132C251.22 134.032 251.195 133.938 251.171 133.851C251.146 133.763 251.134 133.719 251.134 133.719ZM252.055 133.719V144.972H250.894V133.719H252.055ZM250.949 143.771V144.972H249.567V144.784C249.567 144.784 249.604 144.784 249.677 144.784C249.751 144.784 249.788 144.784 249.788 144.784C250.108 144.784 250.366 144.684 250.562 144.484C250.771 144.284 250.882 144.047 250.894 143.771H250.949ZM250.949 134.92H250.894C250.882 134.619 250.771 134.376 250.562 134.188C250.366 134.001 250.108 133.907 249.788 133.907C249.788 133.907 249.751 133.907 249.677 133.907C249.604 133.907 249.567 133.907 249.567 133.907V133.719H250.949V134.92Z" fill="#F9EFD9"/>
<path d="M267.487 133.457C268.348 133.457 269.152 133.601 269.902 133.888C270.664 134.163 271.328 134.563 271.893 135.088C272.47 135.613 272.919 136.239 273.238 136.964C273.558 137.676 273.718 138.47 273.718 139.346C273.718 140.221 273.558 141.021 273.238 141.746C272.919 142.459 272.47 143.078 271.893 143.603C271.328 144.128 270.664 144.534 269.902 144.822C269.152 145.097 268.348 145.234 267.487 145.234C266.627 145.234 265.822 145.097 265.073 144.822C264.323 144.534 263.659 144.128 263.082 143.603C262.517 143.078 262.074 142.459 261.755 141.746C261.435 141.021 261.275 140.221 261.275 139.346C261.275 138.47 261.435 137.676 261.755 136.964C262.074 136.239 262.517 135.613 263.082 135.088C263.659 134.563 264.323 134.163 265.073 133.888C265.822 133.601 266.627 133.457 267.487 133.457ZM267.487 144.672C268.397 144.672 269.22 144.447 269.957 143.997C270.695 143.546 271.278 142.921 271.708 142.121C272.139 141.321 272.354 140.396 272.354 139.346C272.354 138.283 272.139 137.358 271.708 136.57C271.278 135.77 270.695 135.145 269.957 134.695C269.22 134.244 268.397 134.019 267.487 134.019C266.59 134.019 265.773 134.244 265.036 134.695C264.298 135.145 263.715 135.77 263.285 136.57C262.855 137.358 262.639 138.283 262.639 139.346C262.639 140.396 262.855 141.321 263.285 142.121C263.715 142.921 264.298 143.546 265.036 143.997C265.773 144.447 266.59 144.672 267.487 144.672Z" fill="#F9EFD9"/>
<path d="M279.243 133.719V144.972H278.082V133.719H279.243ZM278.137 143.771V144.972H276.57V144.784C276.57 144.784 276.613 144.784 276.699 144.784C276.785 144.784 276.829 144.784 276.829 144.784C277.173 144.784 277.461 144.684 277.695 144.484C277.941 144.284 278.07 144.047 278.082 143.771H278.137ZM279.188 143.771H279.243C279.256 144.047 279.378 144.284 279.612 144.484C279.858 144.684 280.153 144.784 280.497 144.784C280.497 144.784 280.534 144.784 280.607 144.784C280.693 144.784 280.736 144.784 280.736 144.784L280.755 144.972H279.188V143.771ZM279.188 134.92V133.719H280.755L280.736 133.907C280.736 133.907 280.693 133.907 280.607 133.907C280.534 133.907 280.497 133.907 280.497 133.907C280.153 133.907 279.858 134.007 279.612 134.207C279.378 134.394 279.256 134.632 279.243 134.92H279.188ZM278.137 134.92H278.082C278.07 134.632 277.941 134.394 277.695 134.207C277.461 134.007 277.173 133.907 276.829 133.907C276.816 133.907 276.767 133.907 276.681 133.907C276.607 133.907 276.57 133.907 276.57 133.907V133.719H278.137V134.92Z" fill="#F9EFD9"/>
<path d="M287.26 133.457C287.604 133.457 287.906 133.469 288.164 133.494C288.422 133.519 288.643 133.551 288.827 133.588C289.024 133.613 289.19 133.651 289.325 133.701C289.472 133.738 289.601 133.776 289.712 133.813L289.73 135.67H289.509C289.509 135.157 289.337 134.757 288.993 134.469C288.649 134.169 288.114 134.019 287.389 134.019C286.775 134.019 286.247 134.194 285.804 134.544C285.374 134.882 285.165 135.301 285.177 135.801C285.177 135.964 285.196 136.132 285.233 136.307C285.282 136.47 285.356 136.632 285.454 136.795C285.565 136.957 285.712 137.12 285.896 137.283L289.62 140.208C289.902 140.446 290.111 140.752 290.247 141.127C290.382 141.49 290.455 141.852 290.468 142.215C290.48 142.765 290.339 143.271 290.044 143.734C289.749 144.197 289.349 144.565 288.846 144.84C288.354 145.103 287.807 145.234 287.205 145.234C286.849 145.234 286.462 145.203 286.044 145.14C285.638 145.078 285.257 144.984 284.901 144.859C284.545 144.722 284.25 144.553 284.016 144.353C283.979 144.178 283.961 143.959 283.961 143.696C283.961 143.421 283.979 143.134 284.016 142.834C284.065 142.534 284.127 142.265 284.201 142.027H284.422C284.373 142.59 284.452 143.071 284.661 143.471C284.87 143.871 285.177 144.178 285.583 144.39C285.989 144.59 286.462 144.684 287.002 144.672C287.764 144.647 288.36 144.453 288.79 144.09C289.233 143.715 289.454 143.221 289.454 142.609C289.454 142.309 289.399 142.04 289.288 141.802C289.19 141.552 289.024 141.321 288.79 141.108L285.104 138.22C284.76 137.92 284.526 137.589 284.403 137.226C284.28 136.864 284.219 136.52 284.219 136.195C284.219 135.682 284.354 135.22 284.624 134.807C284.895 134.394 285.257 134.069 285.712 133.832C286.179 133.582 286.695 133.457 287.26 133.457ZM289.694 133.626L289.712 133.963H288.403V133.626H289.694Z" fill="#F9EFD9"/>
<path d="M51.5015 126.194C51.2254 126.194 51.0015 126.418 51.0015 126.694C51.0015 126.97 51.2254 127.194 51.5015 127.194V126.194ZM301.799 127.194C302.075 127.194 302.299 126.97 302.299 126.694C302.299 126.418 302.075 126.194 301.799 126.194V127.194ZM51.5015 127.194H301.799V126.194H51.5015V127.194Z" fill="#303636"/>
<path d="M231.944 114.634C231.944 115.862 232.043 116.753 232.24 117.308C232.476 117.862 232.889 118.239 233.479 118.437C234.07 118.635 235.034 118.734 236.372 118.734C236.451 118.734 236.49 118.852 236.49 119.09C236.49 119.328 236.451 119.447 236.372 119.447C235.27 119.447 234.404 119.427 233.774 119.387L230.055 119.328L226.572 119.387C225.903 119.427 224.998 119.447 223.857 119.447C223.778 119.447 223.739 119.328 223.739 119.09C223.739 118.852 223.778 118.734 223.857 118.734C225.195 118.734 226.159 118.635 226.749 118.437C227.34 118.239 227.733 117.862 227.93 117.308C228.166 116.753 228.284 115.862 228.284 114.634V96.455C228.284 95.2668 228.166 94.3954 227.93 93.841C227.733 93.2865 227.32 92.9102 226.69 92.7122C226.1 92.4745 225.155 92.3557 223.857 92.3557C223.778 92.3557 223.739 92.2369 223.739 91.9993C223.739 91.7616 223.778 91.6428 223.857 91.6428L226.572 91.7022C227.989 91.7814 229.15 91.821 230.055 91.821C231.079 91.821 232.338 91.7814 233.833 91.7022L236.372 91.6428C236.451 91.6428 236.49 91.7616 236.49 91.9993C236.49 92.2369 236.451 92.3557 236.372 92.3557C235.113 92.3557 234.168 92.4745 233.538 92.7122C232.909 92.9498 232.476 93.3657 232.24 93.9598C232.043 94.5143 231.944 95.3856 231.944 96.5738V114.634Z" fill="#F9EFD9"/>
<path d="M260.397 92.9498L260.574 92.5934C260.574 92.5141 260.417 92.4745 260.102 92.4745C255.615 92.4745 252.486 92.5934 250.715 92.831C248.984 93.0686 247.744 93.5637 246.996 94.3162C246.288 95.0688 245.52 96.4748 244.694 98.5343C244.694 98.6135 244.615 98.6531 244.458 98.6531C244.34 98.6531 244.222 98.6333 244.104 98.5937C244.025 98.5145 244.005 98.4551 244.045 98.4155L246.17 89.8605C246.17 89.7813 246.248 89.7417 246.406 89.7417C246.524 89.7417 246.622 89.7813 246.701 89.8605C246.819 89.9001 246.859 89.9397 246.819 89.9793C246.74 90.6526 246.898 91.1081 247.291 91.3458C247.724 91.5438 248.708 91.6428 250.243 91.6428L264.411 91.6428C264.608 91.6428 264.746 91.7418 264.825 91.9399C264.943 92.0983 264.943 92.2567 264.825 92.4151L248.354 117.961C248.236 118.159 248.197 118.298 248.236 118.377C248.275 118.456 248.413 118.496 248.649 118.496H256.855C258.823 118.496 260.338 118.318 261.401 117.961C262.463 117.605 263.29 116.971 263.88 116.06C264.47 115.149 264.982 113.803 265.415 112.02C265.494 111.901 265.631 111.842 265.828 111.842C266.025 111.842 266.123 111.901 266.123 112.02L265.474 118.971C265.474 119.09 265.415 119.229 265.297 119.387C265.218 119.506 265.1 119.565 264.943 119.565L244.104 119.447C243.907 119.447 243.769 119.367 243.69 119.209C243.612 119.011 243.631 118.833 243.749 118.674L260.397 92.9498Z" fill="#F9EFD9"/>
<path d="M289.803 92.9498L289.98 92.5934C289.98 92.5141 289.823 92.4745 289.508 92.4745C285.022 92.4745 281.893 92.5934 280.122 92.831C278.39 93.0686 277.15 93.5637 276.403 94.3162C275.694 95.0688 274.927 96.4748 274.1 98.5343C274.1 98.6135 274.022 98.6531 273.864 98.6531C273.746 98.6531 273.628 98.6333 273.51 98.5937C273.431 98.5145 273.412 98.4551 273.451 98.4155L275.576 89.8605C275.576 89.7813 275.655 89.7417 275.812 89.7417C275.93 89.7417 276.029 89.7813 276.107 89.8605C276.226 89.9001 276.265 89.9397 276.226 89.9793C276.147 90.6526 276.304 91.1081 276.698 91.3458C277.131 91.5438 278.115 91.6428 279.65 91.6428H293.818C294.014 91.6428 294.152 91.7418 294.231 91.9399C294.349 92.0983 294.349 92.2567 294.231 92.4151L277.76 117.961C277.642 118.159 277.603 118.298 277.642 118.377C277.682 118.456 277.819 118.496 278.056 118.496H286.261C288.229 118.496 289.744 118.318 290.807 117.961C291.87 117.605 292.696 116.971 293.286 116.06C293.877 115.149 294.388 113.803 294.821 112.02C294.9 111.901 295.038 111.842 295.235 111.842C295.431 111.842 295.53 111.901 295.53 112.02L294.88 118.971C294.88 119.09 294.821 119.229 294.703 119.387C294.624 119.506 294.506 119.565 294.349 119.565L273.51 119.447C273.313 119.447 273.175 119.367 273.097 119.209C273.018 119.011 273.038 118.833 273.156 118.674L289.803 92.9498Z" fill="#F9EFD9"/>
<path d="M203.69 115.411C203.69 116.417 203.814 117.156 204.061 117.627C204.338 118.067 204.848 118.382 205.588 118.57C206.36 118.759 207.564 118.853 209.199 118.853C209.292 118.853 209.338 118.948 209.338 119.136C209.338 119.325 209.292 119.419 209.199 119.419C207.934 119.419 206.946 119.404 206.236 119.372L202.209 119.325L199.107 119.372C198.521 119.404 197.734 119.419 196.746 119.419C196.684 119.419 196.653 119.325 196.653 119.136C196.653 118.948 196.684 118.853 196.746 118.853C197.919 118.853 198.768 118.775 199.292 118.618C199.848 118.46 200.218 118.162 200.403 117.722C200.588 117.25 200.681 116.543 200.681 115.6V93.7668C200.681 92.8237 200.588 92.1321 200.403 91.692C200.218 91.2519 199.848 90.9532 199.292 90.796C198.768 90.6074 197.919 90.5131 196.746 90.5131C196.684 90.5131 196.653 90.4188 196.653 90.2302C196.653 90.0416 196.684 89.9473 196.746 89.9473L199.061 89.9944C200.357 90.0573 201.391 90.0887 202.162 90.0887C202.934 90.0887 203.798 90.0416 204.755 89.9473C205.125 89.9473 205.712 89.9315 206.514 89.9001C207.317 89.8372 208.011 89.8058 208.598 89.8058C211.437 89.8058 213.705 90.4502 215.403 91.7392C217.131 93.0281 217.996 94.9929 217.996 97.6336C217.996 99.7084 217.486 101.453 216.468 102.868C215.48 104.282 214.199 105.336 212.625 106.027C211.051 106.719 209.431 107.065 207.764 107.065C206.869 107.065 206.128 106.986 205.542 106.829C205.449 106.829 205.403 106.75 205.403 106.593C205.403 106.499 205.419 106.404 205.449 106.31C205.511 106.216 205.573 106.184 205.635 106.216C206.128 106.342 206.684 106.404 207.301 106.404C209.338 106.404 211.051 105.729 212.44 104.377C213.86 103.025 214.57 101.076 214.57 98.5295C214.57 96.046 213.906 94.0969 212.579 92.6823C211.252 91.2362 209.554 90.5131 207.486 90.5131C206.375 90.5131 205.573 90.576 205.079 90.7017C204.585 90.8275 204.23 91.1261 204.014 91.5977C203.798 92.0378 203.69 92.7923 203.69 93.8611V115.411Z" fill="#F9EFD9"/>
<path d="M306.697 88.0297C308.599 87.2394 310.428 86.8443 312.184 86.8443C313.647 86.8443 315.154 87.3858 316.705 88.4688C317.554 89.0542 318.505 90.1957 319.559 91.8934C320.261 93.0642 321.154 95.1863 322.236 98.2597L327.592 113.451C328.821 116.846 330.065 119.539 331.323 121.53C332.611 123.549 333.781 125.057 334.835 126.052C335.889 127.076 336.986 127.793 338.127 128.203C339.269 128.613 340.205 128.818 340.937 128.818C341.698 128.818 342.371 128.759 342.956 128.642L343 129.081C341.595 129.55 340.22 129.784 338.874 129.784C337.527 129.784 336.181 129.432 334.835 128.73C333.489 128.057 332.23 127.105 331.06 125.876C328.543 123.33 326.407 119.451 324.651 114.241L322.939 109.236H310.911L307.882 117.051C307.736 117.402 307.662 117.754 307.662 118.105C307.662 118.456 307.809 118.837 308.101 119.246C308.423 119.627 308.906 119.817 309.55 119.817H309.901V120.256H301.078V119.817H301.473C302.175 119.817 302.863 119.612 303.536 119.203C304.209 118.763 304.765 118.12 305.204 117.271L316.091 91.1909C314.51 88.9371 312.55 87.8102 310.208 87.8102C309.155 87.8102 308.028 88.0297 306.828 88.4688L306.697 88.0297ZM311.394 107.919H322.5L319.032 97.6889C318.359 95.7278 317.744 94.1911 317.188 93.0788L311.394 107.919Z" fill="#F9EFD9"/>
<path d="M53.2606 116.238C53.3787 116.238 53.4771 116.318 53.5558 116.476C53.6739 116.595 53.6935 116.714 53.6148 116.833C50.8206 119.05 47.7704 120.159 44.4645 120.159C41.6702 120.159 39.2695 119.506 37.2624 118.199C35.2946 116.852 33.799 115.11 32.7758 112.971C31.7919 110.832 31.2999 108.535 31.2999 106.079C31.2999 103.347 31.9493 100.832 33.2481 98.5344C34.5468 96.1976 36.2785 94.3559 38.4431 93.0093C40.6076 91.6626 42.969 90.9893 45.5272 90.9893C48.164 90.9893 50.1515 91.7221 51.4896 93.1875C52.8277 94.6529 53.4968 96.6332 53.4968 99.1285C53.4968 99.5245 53.4377 99.8216 53.3197 100.02C53.2409 100.178 53.0638 100.257 52.7883 100.257L35.6094 100.317C35.3733 101.426 35.2552 102.653 35.2552 104C35.2552 106.693 35.7078 109.129 36.613 111.307C37.5182 113.446 38.8169 115.129 40.5092 116.357C42.2409 117.585 44.2678 118.199 46.5898 118.199C49.2266 118.199 51.4306 117.545 53.2016 116.238H53.2606ZM43.6971 92.1775C41.808 92.1775 40.155 92.831 38.7382 94.138C37.3608 95.4054 36.3769 97.1679 35.7865 99.4255L49.3644 99.1879C49.4037 96.9303 48.9315 95.2074 47.9476 94.0192C47.003 92.7914 45.5862 92.1775 43.6971 92.1775Z" fill="#F9EFD9"/>
<path d="M64.74 96.455C64.74 97.6432 65.0352 98.6928 65.6255 99.6037C66.2552 100.475 67.0227 101.208 67.9278 101.802C68.833 102.396 70.0334 103.089 71.5289 103.881C73.1425 104.753 74.4413 105.525 75.4252 106.198C76.4091 106.832 77.2356 107.644 77.9046 108.634C78.5737 109.624 78.9082 110.812 78.9082 112.199C78.9082 113.664 78.495 115.011 77.6685 116.238C76.8814 117.427 75.74 118.377 74.2445 119.09C72.749 119.803 70.9976 120.159 68.9905 120.159C66.1175 120.159 63.7364 119.466 61.8473 118.08C61.6505 118.001 61.5128 117.882 61.4341 117.724C61.3947 117.565 61.3554 117.308 61.316 116.951L60.7257 111.07C60.6863 110.911 60.765 110.812 60.9618 110.773C61.1979 110.733 61.3554 110.793 61.4341 110.951C61.9851 113.248 63.0674 115.209 64.681 116.833C66.3339 118.417 68.164 119.209 70.1711 119.209C71.5486 119.209 72.7293 118.813 73.7132 118.021C74.7364 117.189 75.2481 115.922 75.2481 114.219C75.2481 112.397 74.6577 110.911 73.4771 109.763C72.2964 108.614 70.5844 107.446 68.3411 106.258C66.7668 105.386 65.5074 104.634 64.5629 104C63.6577 103.327 62.8903 102.515 62.2606 101.564C61.6309 100.614 61.316 99.4651 61.316 98.1185C61.316 95.8609 62.1818 94.0984 63.9135 92.831C65.6452 91.5636 67.7507 90.9299 70.2302 90.9299C72.316 90.9299 74.2839 91.3854 76.1336 92.2963C76.4878 92.4944 76.7042 92.6528 76.783 92.7716C76.901 92.8508 76.9798 93.0291 77.0191 93.3063L77.4323 98.4749C77.4323 98.6334 77.3143 98.7324 77.0781 98.772C76.8814 98.8116 76.7633 98.7522 76.7239 98.5938C76.5272 97.6036 76.0746 96.5936 75.3661 95.5639C74.6971 94.4945 73.8116 93.6034 72.7096 92.8904C71.647 92.1775 70.4663 91.8211 69.1676 91.8211C67.7507 91.8211 66.6488 92.2567 65.8616 93.1281C65.1139 93.9994 64.74 95.1084 64.74 96.455Z" fill="#F9EFD9"/>
<path d="M104.622 116.535C104.74 116.535 104.839 116.634 104.917 116.833C104.996 116.991 104.976 117.11 104.858 117.189C103.245 118.258 101.828 119.011 100.608 119.447C99.4272 119.922 98.1678 120.159 96.8297 120.159C94.5864 120.159 92.717 119.526 91.2214 118.258C89.7653 116.991 89.0372 114.892 89.0372 111.961V96.3956C89.0372 95.4055 88.9585 94.7123 88.801 94.3163C88.683 93.8806 88.4075 93.6034 87.9746 93.4845C87.581 93.3261 86.9119 93.2469 85.9674 93.2469C85.8493 93.2469 85.7903 93.1281 85.7903 92.8905C85.7903 92.6132 85.8493 92.4746 85.9674 92.4746C87.5416 92.4746 88.8601 92.0587 89.9227 91.227C91.0246 90.3952 91.615 89.3259 91.6937 88.0189C91.6937 87.9 91.8315 87.8406 92.1069 87.8406C92.4218 87.8406 92.5792 87.9 92.5792 88.0189V92.3558C95.8064 92.3161 99.3681 92.1379 103.264 91.8211C103.382 91.8211 103.481 91.9399 103.56 92.1775C103.638 92.4152 103.678 92.732 103.678 93.1281C103.678 93.4845 103.599 93.8608 103.441 94.2569C103.323 94.6529 103.205 94.8312 103.087 94.7916C99.9782 93.9598 96.4755 93.5043 92.5792 93.4251V110.06C92.5792 112.832 93.1105 114.892 94.1731 116.238C95.2358 117.545 96.8494 118.199 99.0139 118.199C101.1 118.199 102.93 117.664 104.504 116.595L104.622 116.535Z" fill="#F9EFD9"/>
<path d="M118.908 114.634C118.908 115.862 119.007 116.753 119.204 117.308C119.44 117.862 119.853 118.239 120.443 118.437C121.034 118.635 121.998 118.734 123.336 118.734C123.415 118.734 123.454 118.852 123.454 119.09C123.454 119.328 123.415 119.447 123.336 119.447C122.234 119.447 121.368 119.427 120.739 119.387L117.019 119.328L113.536 119.387C112.867 119.427 111.962 119.447 110.821 119.447C110.742 119.447 110.703 119.328 110.703 119.09C110.703 118.852 110.742 118.734 110.821 118.734C112.159 118.734 113.123 118.635 113.713 118.437C114.304 118.239 114.697 117.862 114.894 117.308C115.13 116.753 115.248 115.862 115.248 114.634V96.455C115.248 95.2668 115.13 94.3955 114.894 93.841C114.697 93.2865 114.284 92.9102 113.654 92.7122C113.064 92.4746 112.12 92.3558 110.821 92.3558C110.742 92.3558 110.703 92.2369 110.703 91.9993C110.703 91.7617 110.742 91.6428 110.821 91.6428L113.536 91.7023C114.953 91.7815 116.114 91.8211 117.019 91.8211C118.043 91.8211 119.302 91.7815 120.798 91.7023L123.336 91.6428C123.415 91.6428 123.454 91.7617 123.454 91.9993C123.454 92.2369 123.415 92.3558 123.336 92.3558C122.077 92.3558 121.132 92.4746 120.502 92.7122C119.873 92.9499 119.44 93.3657 119.204 93.9598C119.007 94.5143 118.908 95.3856 118.908 96.5738V114.634Z" fill="#F9EFD9"/>
<path d="M162.887 118.734C162.966 118.734 163.005 118.852 163.005 119.09C163.005 119.328 162.966 119.447 162.887 119.447C161.903 119.447 161.136 119.427 160.585 119.387L157.515 119.328L153.796 119.387C153.205 119.427 152.418 119.447 151.434 119.447C151.356 119.447 151.316 119.328 151.316 119.09C151.316 118.852 151.356 118.734 151.434 118.734C152.694 118.734 153.619 118.615 154.209 118.377C154.839 118.14 155.252 117.743 155.449 117.189C155.685 116.595 155.803 115.704 155.803 114.516V102.693C155.803 98.8908 155.134 96.257 153.796 94.7916C152.497 93.2865 150.608 92.534 148.129 92.534C146.357 92.534 144.705 92.9103 143.17 93.6628C141.674 94.3757 140.08 95.6431 138.388 97.465V114.516C138.388 115.704 138.486 116.595 138.683 117.189C138.919 117.743 139.332 118.14 139.923 118.377C140.513 118.615 141.418 118.734 142.638 118.734C142.756 118.734 142.815 118.852 142.815 119.09C142.815 119.328 142.756 119.447 142.638 119.447C141.576 119.447 140.73 119.427 140.1 119.387L136.499 119.328L133.016 119.387C132.386 119.427 131.52 119.447 130.418 119.447C130.34 119.447 130.3 119.328 130.3 119.09C130.3 118.852 130.34 118.734 130.418 118.734C131.678 118.734 132.603 118.635 133.193 118.437C133.823 118.199 134.255 117.803 134.492 117.248C134.728 116.694 134.846 115.823 134.846 114.634V96.455C134.846 95.2668 134.728 94.3955 134.492 93.841C134.295 93.2865 133.901 92.9102 133.311 92.7122C132.721 92.4746 131.815 92.3558 130.595 92.3558C130.477 92.3558 130.418 92.2369 130.418 91.9993C130.418 91.7617 130.477 91.6428 130.595 91.6428L134.433 91.7023L137.325 91.6428C137.798 91.6428 138.093 91.7221 138.211 91.8805C138.329 91.9993 138.388 92.2964 138.388 92.7716V96.2768C140.238 94.4153 142.068 93.0687 143.878 92.2369C145.688 91.3656 147.617 90.9299 149.663 90.9299C152.576 90.9299 154.917 91.7419 156.688 93.3657C158.459 94.95 159.345 97.4056 159.345 100.733V114.634C159.345 115.823 159.424 116.714 159.581 117.308C159.778 117.862 160.112 118.239 160.585 118.437C161.096 118.635 161.864 118.734 162.887 118.734Z" fill="#F9EFD9"/>
<path d="M176.741 114.634C176.741 115.862 176.84 116.753 177.036 117.308C177.272 117.862 177.686 118.239 178.276 118.437C178.866 118.635 179.831 118.734 181.169 118.734C181.247 118.734 181.287 118.852 181.287 119.09C181.287 119.328 181.247 119.447 181.169 119.447C180.067 119.447 179.201 119.427 178.571 119.387L174.852 119.328L171.369 119.387C170.7 119.427 169.795 119.447 168.653 119.447C168.575 119.447 168.535 119.328 168.535 119.09C168.535 118.852 168.575 118.734 168.653 118.734C169.992 118.734 170.956 118.635 171.546 118.437C172.136 118.239 172.53 117.862 172.727 117.308C172.963 116.753 173.081 115.862 173.081 114.634V96.455C173.081 95.2668 172.963 94.3955 172.727 93.841C172.53 93.2865 172.117 92.9102 171.487 92.7122C170.897 92.4746 169.952 92.3558 168.653 92.3558C168.575 92.3558 168.535 92.2369 168.535 91.9993C168.535 91.7617 168.575 91.6428 168.653 91.6428L171.369 91.7023C172.786 91.7815 173.947 91.8211 174.852 91.8211C175.875 91.8211 177.135 91.7815 178.63 91.7023L181.169 91.6428C181.247 91.6428 181.287 91.7617 181.287 91.9993C181.287 92.2369 181.247 92.3558 181.169 92.3558C179.909 92.3558 178.965 92.4746 178.335 92.7122C177.705 92.9499 177.272 93.3657 177.036 93.9598C176.84 94.5143 176.741 95.3856 176.741 96.5738V114.634Z" fill="#F9EFD9"/>
<path d="M5.09846 90.8842C5.09846 92.6071 5.51691 94.1091 6.3538 95.3902C7.1907 96.6713 8.20378 97.7536 9.39306 98.6372C10.5823 99.4765 12.2561 100.559 14.4144 101.884C16.7049 103.254 18.4888 104.402 19.7662 105.33C21.0435 106.258 22.1227 107.45 23.0036 108.908C23.9286 110.322 24.3911 112.023 24.3911 114.011C24.3911 116.131 23.8625 118.053 22.8054 119.776C21.7483 121.498 20.1846 122.868 18.1144 123.884C16.0882 124.856 13.6436 125.342 10.7805 125.342C7.38891 125.342 4.28359 124.569 1.46457 123.023C1.24433 122.89 1.09017 122.735 1.00207 122.559C0.958025 122.382 0.913978 122.117 0.869931 121.764L0.0110118 112.752C-0.0330354 112.575 0.0550586 112.464 0.275295 112.42C0.539577 112.376 0.693742 112.442 0.73779 112.619C1.44254 115.8 2.74194 118.539 4.63596 120.836C6.57404 123.133 9.12877 124.282 12.3002 124.282C14.5025 124.282 16.3525 123.685 17.8501 122.492C19.3918 121.255 20.1626 119.312 20.1626 116.661C20.1626 114.673 19.7221 112.95 18.8412 111.493C17.9602 110.035 16.8811 108.842 15.6037 107.914C14.3704 106.942 12.6746 105.816 10.5163 104.535C8.402 103.254 6.7282 102.149 5.49488 101.221C4.30561 100.294 3.29253 99.1231 2.45563 97.7095C1.61873 96.2958 1.20029 94.6392 1.20029 92.7396C1.20029 90.5308 1.7729 88.6533 2.91813 87.1071C4.1074 85.5168 5.62703 84.3461 7.47701 83.5951C9.37103 82.7999 11.3752 82.4023 13.4894 82.4023C16.0882 82.4023 18.665 82.9325 21.2197 83.9927C21.8804 84.2136 22.2108 84.5891 22.2108 85.1192L22.6733 92.7396C22.6733 92.9163 22.5632 93.0047 22.3429 93.0047C22.1227 93.0047 21.9905 92.9163 21.9465 92.7396C21.5941 90.4425 20.6471 88.322 19.1055 86.3782C17.5638 84.3903 15.3394 83.3963 12.4323 83.3963C9.96567 83.3963 8.11569 84.1252 6.88237 85.5831C5.6931 86.9967 5.09846 88.7637 5.09846 90.8842Z" fill="#F9EFD9"/>
<g filter="url(#filter0_d_175_3597)">
<path d="M226.532 75.6552C227.176 75.6552 227.7 75.1234 227.686 74.4676C227.552 68.3283 226.379 62.2584 224.22 56.5245C223.989 55.912 223.306 55.6216 222.71 55.87L215.151 59.0176C214.554 59.266 214.27 59.9589 214.497 60.5726C216.145 65.0202 217.052 69.7163 217.181 74.4676C217.199 75.1233 217.72 75.6552 218.364 75.6552H226.532Z" fill="#444444"/>
<path d="M221.528 53.1526C222.11 52.8702 222.358 52.1606 222.067 51.5751C219.349 46.0929 215.723 41.1285 211.348 36.9C210.881 36.4484 210.142 36.4855 209.709 36.971L204.218 43.1253C203.784 43.6109 203.821 44.3608 204.286 44.8151C207.654 48.1071 210.46 51.948 212.587 56.1793C212.88 56.7632 213.575 57.015 214.157 56.7326L221.528 53.1526Z" fill="#444444"/>
<path d="M207.613 35.1362C208.02 34.6276 207.946 33.8784 207.437 33.4756C202.676 29.7045 197.312 26.7968 191.58 24.8804C190.968 24.6756 190.316 25.031 190.128 25.6585L187.752 33.6126C187.565 34.2401 187.913 34.9019 188.524 35.1101C192.952 36.6186 197.103 38.8681 200.804 41.7662C201.315 42.1661 202.049 42.091 202.456 41.5824L207.613 35.1362Z" fill="#444444"/>
<path d="M186.598 24.7043C186.741 24.0648 186.348 23.4268 185.717 23.2954C179.807 22.0646 173.732 21.8798 167.76 22.7493C167.122 22.8421 166.692 23.455 166.797 24.1021L168.133 32.3037C168.238 32.9508 168.839 33.3867 169.477 33.2975C174.104 32.6507 178.804 32.7936 183.384 33.7204C184.016 33.8483 184.641 33.4497 184.784 32.8101L186.598 24.7043Z" fill="#444444"/>
<path d="M163.029 24.8867C162.876 24.2494 162.245 23.8575 161.622 24.027C155.794 25.6143 150.279 28.2121 145.317 31.7062C144.788 32.0794 144.672 32.8232 145.05 33.3542L149.846 40.0839C150.224 40.6149 150.953 40.7316 151.485 40.3614C155.34 37.6786 159.607 35.6688 164.111 34.4147C164.733 34.2416 165.117 33.6007 164.964 32.9635L163.029 24.8867Z" fill="#444444"/>
<path d="M142.66 35.2304C142.252 34.7229 141.516 34.6476 141.027 35.0744C136.446 39.0704 132.576 43.8402 129.587 49.1741C129.267 49.7439 129.479 50.4654 130.046 50.7776L137.228 54.7354C137.795 55.0477 138.502 54.8323 138.824 54.2644C141.16 50.1489 144.154 46.4586 147.683 43.3456C148.17 42.916 148.244 42.169 147.836 41.6616L142.66 35.2304Z" fill="#444444"/>
<path d="M128.409 54.1376C127.822 53.8676 127.129 54.1327 126.877 54.7363C124.516 60.3871 123.129 66.4101 122.777 72.5404C122.74 73.1952 123.244 73.7459 123.888 73.7696L132.05 74.0696C132.694 74.0933 133.234 73.5809 133.275 72.9263C133.573 68.1828 134.646 63.5231 136.45 59.1389C136.699 58.5339 136.439 57.831 135.852 57.5609L128.409 54.1376Z" fill="#444444"/>
<path d="M249.139 76.0511C249.784 76.0511 250.307 75.5193 250.297 74.8634C250.234 70.7588 249.845 66.6662 249.133 62.6255C249.019 61.9799 248.405 61.5602 247.773 61.6861L231.729 64.8786C231.097 65.0044 230.686 65.6281 230.796 66.2743C231.281 69.1123 231.554 71.9835 231.613 74.8635C231.627 75.5193 232.148 76.0511 232.792 76.0511H249.139Z" fill="#F9F0DC"/>
<path d="M247.049 58.3294C247.675 58.1741 248.06 57.5313 247.898 56.8965C245.652 48.1121 241.88 39.8076 236.759 32.3762C236.389 31.8392 235.659 31.7212 235.137 32.1062L221.902 41.8726C221.38 42.2575 221.265 42.9995 221.632 43.5384C225.332 48.9683 228.077 55.0115 229.745 61.398C229.91 62.0319 230.54 62.4231 231.166 62.2678L247.049 58.3294Z" fill="#F9F0DC"/>
<path d="M233.216 29.5283C233.721 29.1207 233.807 28.373 233.398 27.8655C227.749 20.8424 220.91 14.9052 213.205 10.335C212.648 10.0047 211.936 10.2086 211.621 10.7804L203.612 25.2862C203.296 25.858 203.496 26.581 204.051 26.9142C209.643 30.271 214.62 34.5915 218.759 39.6826C219.17 40.188 219.903 40.2751 220.408 39.8675L233.216 29.5283Z" fill="#F9F0DC"/>
<path d="M207.794 8.73911C208.076 8.14942 207.835 7.43763 207.251 7.15964C199.174 3.31266 190.486 0.968346 181.597 0.237692C180.955 0.184894 180.4 0.681941 180.358 1.33648L179.297 17.9411C179.255 18.5957 179.742 19.1595 180.384 19.2157C186.853 19.7819 193.175 21.4879 199.07 24.2574C199.655 24.5322 200.353 24.2883 200.635 23.6986L207.794 8.73911Z" fill="#F9F0DC"/>
<path d="M175.582 1.17852C175.582 0.522603 175.06 -0.0100961 174.416 0.00014524C165.499 0.141871 156.679 1.90707 148.374 5.21218C147.774 5.45102 147.488 6.14541 147.732 6.7525L153.922 22.1535C154.166 22.7606 154.847 23.0502 155.448 22.8145C161.507 20.4404 167.925 19.1558 174.416 19.0183C175.06 19.0046 175.582 18.4742 175.582 17.8183V1.17852Z" fill="#F9F0DC"/>
<path d="M144.882 8.01165C144.613 7.41559 143.92 7.15347 143.338 7.43651C135.294 11.3533 128.003 16.7043 121.811 23.2362C121.363 23.7082 121.388 24.4605 121.859 24.9085L133.799 36.2745C134.269 36.7225 135.007 36.6964 135.457 36.2268C139.989 31.4954 145.295 27.6015 151.137 24.719C151.716 24.4328 151.974 23.7289 151.705 23.1328L144.882 8.01165Z" fill="#F9F0DC"/>
<path d="M119.194 27.9724C118.7 27.5512 117.964 27.6169 117.558 28.1262C111.939 35.1747 107.605 43.1901 104.761 51.7931C104.555 52.4148 104.895 53.0834 105.509 53.2829L121.082 58.3429C121.696 58.5424 122.351 58.197 122.56 57.5765C124.662 51.3243 127.816 45.4915 131.881 40.3384C132.284 39.827 132.22 39.0787 131.726 38.6575L119.194 27.9724Z" fill="#F9F0DC"/>
<path d="M104.615 56.3588C103.993 56.1863 103.351 56.5593 103.191 57.1947C101.939 62.175 101.186 67.2716 100.944 72.4064C100.913 73.0616 101.42 73.6103 102.064 73.6315L118.403 74.1692C119.047 74.1904 119.584 73.6761 119.619 73.0211C119.809 69.3691 120.345 65.7443 121.217 62.1966C121.374 61.5603 121.009 60.9078 120.387 60.7352L104.615 56.3588Z" fill="#F9F0DC"/>
<path d="M157.242 63.9713L196.13 74.5776C197.485 77.2345 197.62 80.0668 194.07 82.4024L155.182 71.7961C152.732 68.8404 154.004 65.1213 157.242 63.9713Z" fill="#444444"/>
<path d="M159.27 65.5116L172.963 69.2462L172.838 69.7204L159.145 65.9858L159.27 65.5116Z" fill="#303636"/>
<path d="M168.082 69.948L187.252 75.1765L187.127 75.6507L167.957 70.4222L168.082 69.948Z" fill="#303636"/>
<path d="M158.694 69.929L172.387 73.6636L172.262 74.1378L158.57 70.4032L158.694 69.929Z" fill="#303636"/>
<path d="M180.603 75.9044L194.296 79.639L194.171 80.1132L180.478 76.3786L180.603 75.9044Z" fill="#303636"/>
<path d="M181.727 71.6363L195.419 75.3709L195.295 75.8452L181.602 72.1105L181.727 71.6363Z" fill="#303636"/>
<path d="M155.182 73.6771L194.07 63.0708C196.549 64.682 198.057 67.0662 196.13 70.8956L157.242 81.5019C153.668 80.1895 152.943 76.321 155.182 73.6771Z" fill="#444444"/>
<path d="M158.084 74.6647L171.777 70.9301L171.902 71.4043L158.209 75.1389L158.084 74.6647Z" fill="#303636"/>
<path d="M167.894 74.0221L187.065 68.7936L187.189 69.2679L168.019 74.4963L167.894 74.0221Z" fill="#303636"/>
<path d="M159.755 78.7834L173.448 75.0488L173.573 75.523L159.88 79.2576L159.755 78.7834Z" fill="#303636"/>
<path d="M181.664 72.808L195.357 69.0734L195.482 69.5476L181.789 73.2822L181.664 72.808Z" fill="#303636"/>
<path d="M180.54 68.5399L194.233 64.8053L194.358 65.2795L180.665 69.0142L180.54 68.5399Z" fill="#303636"/>
<path d="M176.468 72.7756C174.962 72.7845 174.343 72.8023 174.232 72.8189C174.203 72.8149 174.173 72.8111 174.142 72.8075C173.568 72.7408 172.673 72.505 172.069 72.2611C170.225 71.517 168.662 69.9658 168.062 68.2849C167.428 66.5083 167.613 64.8318 168.703 62.4895C169.648 60.4586 171.451 57.8004 173.637 55.2145C173.944 54.8505 174.252 54.5247 174.32 54.4905C174.492 54.4044 174.801 54.4794 174.904 54.6323C174.962 54.7199 175 55.0612 175.023 55.7294C175.062 56.8516 175.176 57.5176 175.474 58.3553C175.866 59.4591 176.392 60.2598 177.193 60.9765C178.061 61.7525 178.525 61.9573 178.83 61.6987C178.992 61.5616 179.258 60.9838 179.376 60.5103C179.517 59.9486 179.8 59.7264 180.15 59.9018C180.294 59.9738 180.888 60.9582 181.463 62.078C182.853 64.7836 183.046 66.7916 182.108 68.7827C181.753 69.5358 181.341 70.0839 180.628 70.756C179.459 71.8559 178.18 72.4769 176.468 72.7756Z" fill="#E0AA3E"/>
<path d="M176.841 43.5464C182.156 49.6463 185.754 55.3822 186.867 59.5295C187.546 62.0576 187.325 64.3411 186.186 66.575C185.606 67.7122 185.037 68.4837 184.11 69.3911C182.2 71.2599 179.636 72.4579 176.805 72.8038C176.283 72.8675 174.837 72.8625 174.365 72.8399C174.327 72.833 174.282 72.8258 174.232 72.8189C174.343 72.8023 174.962 72.7845 176.468 72.7756C178.18 72.4769 179.459 71.8559 180.628 70.756C181.341 70.0839 181.753 69.5358 182.108 68.7827C183.046 66.7916 182.853 64.7836 181.463 62.078C180.888 60.9582 180.294 59.9738 180.15 59.9018C179.8 59.7264 179.517 59.9486 179.376 60.5103C179.258 60.9838 178.992 61.5616 178.83 61.6987C178.525 61.9573 178.061 61.7525 177.193 60.9765C176.392 60.2598 175.866 59.4591 175.474 58.3553C175.176 57.5176 175.062 56.8516 175.023 55.7294C175 55.0612 174.962 54.7199 174.904 54.6323C174.801 54.4794 174.492 54.4044 174.32 54.4905C174.252 54.5247 173.944 54.8505 173.637 55.2145C171.451 57.8004 169.648 60.4586 168.703 62.4895C167.613 64.8318 167.428 66.5083 168.062 68.2849C168.662 69.9658 170.225 71.517 172.069 72.2611C172.673 72.505 173.568 72.7408 174.142 72.8075C174.173 72.8111 174.203 72.8149 174.232 72.8189C174.181 72.8265 174.238 72.8338 174.365 72.8399C174.442 72.8543 174.487 72.8677 174.478 72.8759C174.432 72.919 173.258 72.7814 172.585 72.6541C170.77 72.3106 168.821 71.4442 167.332 70.3192C166.672 69.8201 165.697 68.8501 165.189 68.1869C164.387 67.1386 163.628 65.531 163.36 64.3091C162.749 61.5252 163.371 58.7376 165.485 54.7888C166.128 53.5858 167.217 51.7762 167.42 51.5704C167.597 51.3918 167.926 51.3931 168.119 51.5732C168.232 51.6795 168.278 51.8204 168.335 52.2353C168.461 53.1554 168.763 54.0077 169.201 54.6826C169.443 55.0562 169.619 55.2003 169.832 55.2003C170.107 55.2003 171.298 54.3818 172.052 53.6743C172.929 52.8525 173.486 52.1294 174.024 51.1148C174.495 50.2262 174.729 49.6243 174.995 48.6114C175.344 47.2837 175.397 46.8099 175.417 44.8329C175.438 42.7669 175.431 42.7969 175.919 42.7969C176.187 42.7969 176.189 42.7981 176.841 43.5464Z" fill="#E0AA3E"/>
<path fill-rule="evenodd" clip-rule="evenodd" d="M174.108 55.2812C170.608 58.9399 168.239 62.3802 167.506 64.8677C167.059 66.384 167.204 67.7536 167.954 69.0935C168.336 69.7756 168.711 70.2383 169.321 70.7826C170.579 71.9035 172.268 72.622 174.132 72.8294C174.601 72.8816 176.15 72.8834 175.72 72.8545C175.566 72.8441 175.158 72.8298 174.354 72.8125C173.227 72.6334 172.384 72.2609 171.615 71.6012C171.145 71.1981 170.874 70.8693 170.64 70.4176C170.022 69.2234 170.149 68.0191 171.065 66.3963C171.444 65.7246 171.835 65.1342 171.929 65.091C172.16 64.9858 172.346 65.1191 172.439 65.456C172.517 65.74 172.692 66.0865 172.798 66.1688C173 66.3239 173.305 66.201 173.877 65.7356C174.404 65.3057 174.75 64.8255 175.009 64.1634C175.205 63.661 175.28 63.2615 175.306 62.5884C175.321 62.1877 175.345 61.9829 175.384 61.9304C175.452 61.8387 175.655 61.7938 175.768 61.8454C175.813 61.8659 176.016 62.0613 176.219 62.2796C177.658 63.8306 178.845 65.425 179.467 66.6431C180.185 68.048 180.307 69.0535 179.89 70.1191C179.495 71.1272 178.465 72.0577 177.251 72.504C176.853 72.6502 176.264 72.7916 175.886 72.8316C175.819 72.8387 175.76 72.847 175.72 72.8545C175.681 72.8618 175.66 72.8684 175.665 72.8727C175.695 72.8986 176.04 72.8899 176.911 72.7397C178.107 72.5336 179.39 72.0139 180.37 71.3392C180.805 71.0398 181.447 70.458 181.781 70.0603C182.31 69.4316 182.81 68.4673 182.986 67.7345C183.389 66.0647 182.979 64.3927 181.587 62.0243C181.163 61.3028 180.446 60.2174 180.312 60.0939C180.196 59.9869 179.979 59.9876 179.852 60.0956C179.778 60.1594 179.747 60.2439 179.71 60.4927C179.627 61.0446 179.428 61.5558 179.14 61.9606C178.98 62.1847 178.865 62.2711 178.724 62.2711C178.543 62.2711 177.759 61.7802 177.262 61.3559C176.685 60.8629 176.318 60.4292 175.963 59.8207C175.653 59.2877 175.499 58.9267 175.324 58.3192C175.094 57.5228 175.059 57.2387 175.046 56.0529C175.032 54.8138 175.037 54.8317 174.716 54.8317C174.539 54.8317 174.538 54.8325 174.108 55.2812Z" fill="#F9F0DC"/>
<path d="M174.354 72.8125C175.158 72.8298 175.566 72.8441 175.72 72.8545C175.76 72.847 175.819 72.8387 175.886 72.8316C176.264 72.7916 176.853 72.6502 177.251 72.504C178.465 72.0577 179.495 71.1272 179.89 70.1191C180.307 69.0535 180.185 68.048 179.467 66.6431C178.845 65.425 177.658 63.8306 176.219 62.2796C176.016 62.0613 175.813 61.8659 175.768 61.8454C175.655 61.7938 175.452 61.8387 175.384 61.9304C175.345 61.9829 175.321 62.1877 175.306 62.5884C175.28 63.2615 175.205 63.661 175.009 64.1634C174.75 64.8255 174.404 65.3057 173.877 65.7356C173.305 66.201 173 66.3239 172.798 66.1688C172.692 66.0865 172.517 65.74 172.439 65.456C172.346 65.1191 172.16 64.9858 171.929 65.091C171.835 65.1342 171.444 65.7246 171.065 66.3963C170.149 68.0191 170.022 69.2234 170.64 70.4176C170.874 70.8693 171.145 71.1981 171.615 71.6012C172.384 72.2609 173.227 72.6334 174.354 72.8125Z" fill="#F9F0DC"/>
</g>
<defs>
<filter id="filter0_d_175_3597" x="98.9429" y="0" width="157.354" height="92.4023" filterUnits="userSpaceOnUse" color-interpolation-filters="sRGB">
<feFlood flood-opacity="0" result="BackgroundImageFix"/>
<feColorMatrix in="SourceAlpha" type="matrix" values="0 0 0 0 0 0 0 0 0 0 0 0 0 0 0 0 0 0 127 0" result="hardAlpha"/>
<feOffset dx="2" dy="6"/>
<feGaussianBlur stdDeviation="2"/>
<feComposite in2="hardAlpha" operator="out"/>
<feColorMatrix type="matrix" values="0 0 0 0 0.188235 0 0 0 0 0.188235 0 0 0 0 0.188235 0 0 0 0.8 0"/>
<feBlend mode="normal" in2="BackgroundImageFix" result="effect1_dropShadow_175_3597"/>
<feBlend mode="normal" in="SourceGraphic" in2="effect1_dropShadow_175_3597" result="shape"/>
</filter>
</defs>
</svg>
