<svg width="101" height="54" viewBox="0 0 101 54" fill="none" xmlns="http://www.w3.org/2000/svg">
<path d="M84.9288 49.5784C85.3646 49.5784 85.7188 49.2299 85.7091 48.8002C85.6185 44.777 84.8255 40.7992 83.3652 37.0417C83.2092 36.6403 82.7476 36.45 82.3443 36.6127L77.2322 38.6755C76.8289 38.8382 76.6368 39.2923 76.7905 39.6945C77.9045 42.6091 78.5179 45.6866 78.6056 48.8002C78.6177 49.2299 78.9699 49.5784 79.4056 49.5784H84.9288Z" fill="#F9F0DC"/>
<path d="M81.5451 34.832C81.9384 34.6469 82.1059 34.1819 81.9096 33.7982C80.0714 30.2056 77.6193 26.9524 74.6608 24.1813C74.3448 23.8854 73.8452 23.9097 73.5522 24.2279L69.8389 28.2609C69.5459 28.5791 69.5708 29.0705 69.8851 29.3683C72.1629 31.5256 74.06 34.0426 75.4985 36.8155C75.697 37.1981 76.1669 37.3631 76.5602 37.178L81.5451 34.832Z" fill="#F9F0DC"/>
<path d="M72.1351 23.0255C72.4103 22.6922 72.36 22.2012 72.0161 21.9373C68.7963 19.466 65.1687 17.5605 61.2928 16.3046C60.8788 16.1705 60.4377 16.4033 60.3109 16.8146L58.7042 22.027C58.5774 22.4382 58.8131 22.8719 59.2263 23.0084C62.2209 23.9969 65.0274 25.4711 67.5304 27.3702C67.8758 27.6323 68.3721 27.5831 68.6473 27.2498L72.1351 23.0255Z" fill="#F9F0DC"/>
<path d="M57.924 16.1892C58.0208 15.7701 57.7549 15.3521 57.328 15.2659C53.3311 14.4594 49.223 14.3383 45.1844 14.9081C44.753 14.9689 44.4624 15.3706 44.5337 15.7946L45.4369 21.1693C45.5082 21.5934 45.9144 21.879 46.3461 21.8205C49.4745 21.3966 52.6528 21.4903 55.75 22.0977C56.1774 22.1815 56.6002 21.9203 56.697 21.5012L57.924 16.1892Z" fill="#F9F0DC"/>
<path d="M41.9853 16.3087C41.8821 15.8911 41.4549 15.6343 41.0339 15.7454C37.0928 16.7856 33.3629 18.4879 30.008 20.7777C29.6497 21.0223 29.5716 21.5097 29.8275 21.8577L33.0704 26.2678C33.3262 26.6158 33.819 26.6923 34.1787 26.4497C36.7854 24.6915 39.6712 23.3745 42.7171 22.5527C43.1374 22.4393 43.3973 22.0192 43.294 21.6016L41.9853 16.3087Z" fill="#F9F0DC"/>
<path d="M28.2112 23.0872C27.935 22.7547 27.4373 22.7053 27.1064 22.985C24.0086 25.6036 21.3915 28.7294 19.3701 32.2248C19.1541 32.5982 19.2974 33.071 19.6806 33.2756L24.5378 35.8693C24.921 36.0739 25.3989 35.9327 25.6169 35.5606C27.1968 32.8636 29.2216 30.4453 31.6079 28.4053C31.9372 28.1238 31.9874 27.6342 31.7112 27.3017L28.2112 23.0872Z" fill="#F9F0DC"/>
<path d="M18.5739 35.4775C18.1767 35.3005 17.7085 35.4743 17.5379 35.8698C15.9411 39.5729 15.0031 43.5199 14.7654 47.5372C14.74 47.9663 15.0812 48.3272 15.5167 48.3428L21.0363 48.5393C21.4718 48.5548 21.8364 48.2191 21.8642 47.7901C22.0658 44.6816 22.7914 41.628 24.0113 38.7549C24.1796 38.3585 24.0042 37.8978 23.6071 37.7208L18.5739 35.4775Z" fill="#F9F0DC"/>
<path d="M100.217 49.8378C100.653 49.8378 101.007 49.4893 101 49.0596C100.957 46.3697 100.694 43.6877 100.213 41.0398C100.136 40.6167 99.7206 40.3417 99.293 40.4242L88.4435 42.5163C88.0158 42.5987 87.7377 43.0074 87.8124 43.4309C88.1404 45.2907 88.3251 47.1723 88.365 49.0596C88.374 49.4893 88.7264 49.8378 89.1622 49.8378H100.217Z" fill="#F9F0DC"/>
<path d="M98.8036 38.2244C99.227 38.1227 99.4872 37.7015 99.3775 37.2855C97.8588 31.5288 95.3077 26.0867 91.8449 21.2168C91.5947 20.8649 91.1008 20.7876 90.748 21.0399L81.7976 27.44C81.4447 27.6922 81.3668 28.1784 81.6152 28.5316C84.1174 32.09 85.9738 36.0502 87.1015 40.2354C87.2135 40.6508 87.6395 40.9071 88.0629 40.8054L98.8036 38.2244Z" fill="#F9F0DC"/>
<path d="M89.449 19.3505C89.7905 19.0834 89.8482 18.5934 89.5722 18.2608C85.7518 13.6584 81.127 9.76766 75.9166 6.77273C75.5401 6.55631 75.0587 6.68988 74.8452 7.0646L69.429 16.5706C69.2155 16.9453 69.3509 17.4191 69.7263 17.6374C73.5079 19.8372 76.8734 22.6685 79.6724 26.0049C79.9502 26.336 80.4458 26.3931 80.7873 26.126L89.449 19.3505Z" fill="#F9F0DC"/>
<path d="M72.2571 5.72692C72.4479 5.34048 72.2852 4.87403 71.8905 4.69186C66.4285 2.17085 60.5529 0.634577 54.5421 0.155765C54.1077 0.121165 53.7321 0.44689 53.7039 0.875822L52.9862 11.7572C52.9579 12.1861 53.2876 12.5556 53.7217 12.5924C58.0959 12.9635 62.3715 14.0814 66.3576 15.8963C66.7533 16.0765 67.2253 15.9166 67.4161 15.5302L72.2571 5.72692Z" fill="#F9F0DC"/>
<path d="M50.4745 0.772311C50.4745 0.342473 50.1211 -0.00661621 49.6854 9.51788e-05C43.6557 0.0929712 37.6915 1.24975 32.075 3.41565C31.6692 3.57216 31.4761 4.02722 31.6411 4.42506L35.8267 14.5176C35.9916 14.9155 36.4521 15.1052 36.8588 14.9508C40.9559 13.395 45.2961 12.5532 49.6855 12.4631C50.1211 12.4541 50.4745 12.1065 50.4745 11.6767V0.772311Z" fill="#F9F0DC"/>
<path d="M29.7134 5.2502C29.5315 4.85959 29.0627 4.68782 28.6696 4.8733C23.2295 7.44006 18.299 10.9467 14.1116 15.2272C13.809 15.5365 13.8262 16.0295 14.1444 16.3231L22.2184 23.7714C22.5367 24.065 23.0354 24.0479 23.3397 23.7402C26.4046 20.6396 29.9925 18.0878 33.9431 16.1988C34.3352 16.0114 34.5092 15.55 34.3274 15.1594L29.7134 5.2502Z" fill="#F9F0DC"/>
<path d="M12.3424 18.3309C12.0084 18.0549 11.5102 18.0979 11.2356 18.4317C7.43588 23.0507 4.505 28.3034 2.58172 33.9411C2.44274 34.3485 2.67244 34.7867 3.08757 34.9174L13.6189 38.2333C14.034 38.364 14.4772 38.1377 14.6183 37.731C16.0401 33.6339 18.1729 29.8115 20.9214 26.4346C21.1942 26.0994 21.151 25.6091 20.8169 25.333L12.3424 18.3309Z" fill="#F9F0DC"/>
<path d="M2.48317 36.9331C2.06274 36.8201 1.62838 37.0645 1.52035 37.4809C0.673642 40.7445 0.164559 44.0845 0.000906904 47.4494C-0.019974 47.8788 0.322332 48.2384 0.757874 48.2523L11.8069 48.6046C12.2425 48.6185 12.6061 48.2814 12.6293 47.8522C12.7583 45.459 13.1204 43.0836 13.7105 40.7587C13.8163 40.3418 13.5692 39.9141 13.1488 39.8011L2.48317 36.9331Z" fill="#F9F0DC"/>
<path d="M38.0721 41.9217L64.3698 48.8723C65.2863 50.6134 65.3776 52.4694 62.9769 54L36.6792 47.0495C35.0219 45.1126 35.8825 42.6753 38.0721 41.9217Z" fill="#F9F0DC"/>
<path d="M39.4434 42.9311L48.7032 45.3784L48.6188 45.6892L39.359 43.2418L39.4434 42.9311Z" fill="#F9F0DC"/>
<path d="M45.4024 45.8384L58.3661 49.2647L58.2817 49.5755L45.318 46.1491L45.4024 45.8384Z" fill="#F9F0DC"/>
<path d="M39.054 45.8259L48.3138 48.2733L48.2294 48.5841L38.9696 46.1367L39.054 45.8259Z" fill="#F9F0DC"/>
<path d="M53.8697 49.7417L63.1294 52.1891L63.045 52.4999L53.7852 50.0525L53.8697 49.7417Z" fill="#F9F0DC"/>
<path d="M54.6295 46.9448L63.8892 49.3921L63.8048 49.7029L54.545 47.2555L54.6295 46.9448Z" fill="#F9F0DC"/>
<path d="M36.6791 48.2822L62.9768 41.3316C64.653 42.3875 65.6729 43.9499 64.3697 46.4594L38.072 53.4099C35.6549 52.5498 35.1648 50.0147 36.6791 48.2822Z" fill="#F9F0DC"/>
<path d="M38.6412 48.9293L47.901 46.482L47.9854 46.7927L38.7257 49.2401L38.6412 48.9293Z" fill="#F9F0DC"/>
<path d="M45.2756 48.5082L58.2392 45.0819L58.3237 45.3927L45.36 48.819L45.2756 48.5082Z" fill="#F9F0DC"/>
<path d="M39.7714 51.6284L49.0312 49.181L49.1156 49.4918L39.8558 51.9392L39.7714 51.6284Z" fill="#F9F0DC"/>
<path d="M54.587 47.7126L63.8468 45.2652L63.9312 45.576L54.6715 48.0234L54.587 47.7126Z" fill="#F9F0DC"/>
<path d="M53.8273 44.9156L63.087 42.4683L63.1714 42.779L53.9117 45.2264L53.8273 44.9156Z" fill="#F9F0DC"/>
<path d="M51.0733 47.6913C50.0547 47.6972 49.6363 47.7089 49.5613 47.7197C49.542 47.7171 49.5216 47.7146 49.5003 47.7122C49.112 47.6685 48.507 47.514 48.0984 47.3542C46.8515 46.8666 45.7944 45.85 45.3887 44.7485C44.96 43.5843 45.0855 42.4856 45.8226 40.9507C46.4616 39.6198 47.6806 37.8778 49.1587 36.1832C49.3668 35.9447 49.5749 35.7312 49.6211 35.7088C49.7373 35.6523 49.9461 35.7015 50.0155 35.8017C50.0553 35.8591 50.0803 36.0827 50.096 36.5206C50.1223 37.256 50.1997 37.6925 50.4012 38.2414C50.6666 38.9648 51.0217 39.4895 51.5636 39.9592C52.1505 40.4677 52.4644 40.6019 52.6708 40.4324C52.7802 40.3426 52.9598 39.9639 53.04 39.6537C53.1353 39.2855 53.3264 39.1399 53.5633 39.2549C53.6604 39.3021 54.0621 39.9472 54.4512 40.681C55.3914 42.454 55.522 43.7699 54.8872 45.0747C54.6471 45.5682 54.3691 45.9275 53.8863 46.3679C53.0962 47.0887 52.2312 47.4956 51.0733 47.6913Z" fill="#F9F0DC"/>
<path d="M51.3256 28.5368C54.9199 32.5343 57.3532 36.2931 58.1059 39.0109C58.5647 40.6676 58.4153 42.164 57.645 43.628C57.2529 44.3732 56.8684 44.8788 56.2413 45.4734C54.9499 46.6981 53.2157 47.4832 51.3012 47.7098C50.9481 47.7516 49.9704 47.7483 49.651 47.7335C49.6257 47.7289 49.5952 47.7242 49.5613 47.7197C49.6363 47.7089 50.0547 47.6972 51.0733 47.6913C52.2312 47.4956 53.0962 47.0887 53.8863 46.3679C54.3691 45.9275 54.6471 45.5682 54.8872 45.0747C55.522 43.7699 55.3914 42.454 54.4512 40.681C54.0621 39.9472 53.6604 39.3021 53.5633 39.2549C53.3264 39.1399 53.1353 39.2855 53.04 39.6537C52.9598 39.9639 52.7802 40.3426 52.6708 40.4324C52.4644 40.6019 52.1505 40.4677 51.5636 39.9592C51.0217 39.4895 50.6666 38.9648 50.4012 38.2414C50.1997 37.6925 50.1223 37.256 50.096 36.5206C50.0803 36.0827 50.0553 35.8591 50.0155 35.8017C49.9461 35.7015 49.7373 35.6523 49.6211 35.7088C49.5749 35.7312 49.3668 35.9447 49.1587 36.1832C47.6806 37.8778 46.4616 39.6198 45.8226 40.9507C45.0855 42.4856 44.96 43.5843 45.3887 44.7485C45.7944 45.85 46.8515 46.8666 48.0984 47.3542C48.507 47.514 49.112 47.6685 49.5003 47.7122C49.5216 47.7146 49.542 47.7171 49.5613 47.7197C49.5268 47.7247 49.565 47.7295 49.651 47.7335C49.7031 47.7429 49.7334 47.7517 49.7275 47.7571C49.6964 47.7854 48.9023 47.6952 48.4472 47.6117C47.2199 47.3867 45.9018 46.8188 44.8955 46.0816C44.449 45.7545 43.7898 45.1189 43.4463 44.6843C42.9034 43.9973 42.3905 42.9438 42.2091 42.1431C41.7959 40.3188 42.2166 38.4919 43.6459 35.9042C44.0813 35.1159 44.8173 33.93 44.9548 33.7951C45.0741 33.6781 45.2971 33.679 45.4272 33.797C45.504 33.8667 45.5351 33.959 45.5735 34.2309C45.6588 34.8338 45.8626 35.3924 46.1588 35.8346C46.3228 36.0794 46.4416 36.1739 46.5857 36.1739C46.7715 36.1739 47.5769 35.6375 48.0873 35.1739C48.6802 34.6353 49.0569 34.1614 49.4207 33.4966C49.7394 32.9143 49.8973 32.5199 50.0774 31.856C50.3135 30.986 50.3493 30.6755 50.3628 29.3799C50.3769 28.0261 50.372 28.0457 50.7021 28.0457C50.8836 28.0457 50.8846 28.0465 51.3256 28.5368Z" fill="#F9F0DC"/>
<path fill-rule="evenodd" clip-rule="evenodd" d="M49.4778 36.2269C47.1108 38.6245 45.5083 40.8791 45.0127 42.5092C44.7105 43.5028 44.8089 44.4004 45.3162 45.2784C45.5744 45.7254 45.8276 46.0286 46.2406 46.3853C47.091 47.1198 48.233 47.5907 49.4938 47.7266C49.8111 47.7608 50.8582 47.762 50.5677 47.7431C50.4635 47.7363 50.1873 47.7269 49.6439 47.7155C48.8814 47.5982 48.3117 47.3541 47.7915 46.9218C47.4735 46.6576 47.2904 46.4421 47.1323 46.1461C46.7142 45.3635 46.8002 44.5743 47.4194 43.5109C47.6757 43.0707 47.9402 42.6838 48.0041 42.6555C48.1601 42.5865 48.286 42.6739 48.3487 42.8947C48.4016 43.0807 48.5198 43.3079 48.5919 43.3618C48.7278 43.4634 48.9345 43.3829 49.321 43.0779C49.6779 42.7962 49.9118 42.4815 50.0865 42.0476C50.2192 41.7184 50.2702 41.4566 50.2875 41.0155C50.2978 40.7529 50.3143 40.6187 50.3405 40.5843C50.3862 40.5242 50.5237 40.4947 50.6002 40.5286C50.6307 40.542 50.7677 40.6701 50.9047 40.8131C51.8781 41.8295 52.6809 42.8743 53.1017 43.6726C53.5871 44.5932 53.6697 45.2522 53.3874 45.9505C53.1203 46.6112 52.4241 47.2209 51.603 47.5133C51.3339 47.6092 50.9355 47.7019 50.6798 47.7281C50.6345 47.7327 50.5948 47.7381 50.5677 47.7431C50.5413 47.7478 50.5267 47.7522 50.5301 47.755C50.5506 47.7719 50.7839 47.7662 51.3732 47.6678C52.1815 47.5328 53.0495 47.1922 53.7122 46.7501C54.0062 46.5539 54.4404 46.1726 54.6666 45.9119C55.0241 45.4999 55.3618 44.868 55.4813 44.3878C55.7534 43.2936 55.4763 42.1979 54.5351 40.6458C54.2484 40.173 53.7637 39.4617 53.6731 39.3808C53.5946 39.3106 53.4478 39.3111 53.3621 39.3819C53.3115 39.4237 53.291 39.4791 53.2657 39.6421C53.2095 40.0038 53.0753 40.3388 52.8802 40.6041C52.7723 40.7509 52.694 40.8075 52.5991 40.8075C52.4768 40.8075 51.9464 40.4858 51.6103 40.2078C51.2199 39.8847 50.9718 39.6005 50.7322 39.2017C50.5223 38.8525 50.4183 38.6159 50.2997 38.2178C50.1442 37.6959 50.1207 37.5097 50.1118 36.7326C50.1025 35.9206 50.1058 35.9324 49.8884 35.9324C49.7688 35.9324 49.7681 35.9328 49.4778 36.2269Z" fill="#F9F0DC"/>
<path d="M49.6439 47.7155C50.1873 47.7269 50.4635 47.7363 50.5677 47.7431C50.5948 47.7381 50.6345 47.7327 50.6798 47.7281C50.9355 47.7019 51.3339 47.6092 51.603 47.5133C52.4241 47.2209 53.1203 46.6112 53.3874 45.9505C53.6697 45.2522 53.5871 44.5932 53.1017 43.6726C52.6809 42.8743 51.8781 41.8295 50.9047 40.8131C50.7677 40.6701 50.6307 40.542 50.6002 40.5286C50.5237 40.4947 50.3862 40.5242 50.3405 40.5843C50.3143 40.6187 50.2978 40.7529 50.2875 41.0155C50.2702 41.4566 50.2192 41.7184 50.0865 42.0476C49.9118 42.4815 49.6779 42.7962 49.321 43.0779C48.9345 43.3829 48.7278 43.4634 48.5919 43.3618C48.5198 43.3079 48.4016 43.0807 48.3487 42.8947C48.286 42.6739 48.1601 42.5865 48.0041 42.6555C47.9402 42.6838 47.6757 43.0707 47.4194 43.5109C46.8002 44.5743 46.7142 45.3635 47.1323 46.1461C47.2904 46.4421 47.4735 46.6576 47.7915 46.9218C48.3117 47.3541 48.8814 47.5982 49.6439 47.7155Z" fill="#F9F0DC"/>
</svg>
