<svg width="71" height="70" viewBox="0 0 71 70" fill="none" xmlns="http://www.w3.org/2000/svg">
<path d="M59.8211 35.0041C60.1239 35.0041 60.37 34.761 60.3633 34.4612C60.3003 31.6548 59.7493 28.88 58.7346 26.2589C58.6263 25.9789 58.3055 25.8461 58.0253 25.9597L54.4733 27.3986C54.1931 27.5121 54.0596 27.8288 54.1664 28.1094C54.9404 30.1425 55.3667 32.2893 55.4276 34.4612C55.436 34.761 55.6807 35.0041 55.9834 35.0041L59.8211 35.0041Z" fill="#9E9E9E"/>
<path d="M57.47 24.7175C57.7433 24.5884 57.8597 24.264 57.7233 23.9963C56.4461 21.4903 54.7422 19.2209 52.6867 17.2879C52.4671 17.0814 52.1199 17.0984 51.9164 17.3204L49.3363 20.1337C49.1327 20.3557 49.15 20.6985 49.3684 20.9061C50.951 22.411 52.2692 24.1668 53.2687 26.1011C53.4066 26.368 53.7331 26.4831 54.0064 26.354L57.47 24.7175Z" fill="#9E9E9E"/>
<path d="M50.9318 16.4816C51.123 16.2491 51.088 15.9066 50.849 15.7225C48.6118 13.9986 46.0913 12.6694 43.3982 11.7933C43.1106 11.6998 42.8041 11.8622 42.716 12.1491L41.5996 15.7851C41.5115 16.072 41.6752 16.3745 41.9624 16.4697C44.0431 17.1592 45.9931 18.1876 47.7322 19.5124C47.9722 19.6952 48.3171 19.6609 48.5083 19.4284L50.9318 16.4816Z" fill="#9E9E9E"/>
<path d="M41.0575 11.7129C41.1247 11.4205 40.94 11.1289 40.6434 11.0688C37.8662 10.5062 35.0119 10.4217 32.2057 10.8192C31.906 10.8616 31.7041 11.1418 31.7536 11.4376L32.3812 15.1868C32.4307 15.4826 32.7129 15.6819 33.0129 15.6411C35.1866 15.3454 37.395 15.4107 39.547 15.8344C39.8439 15.8929 40.1377 15.7106 40.2049 15.4183L41.0575 11.7129Z" fill="#9E9E9E"/>
<path d="M29.9829 11.7962C29.9112 11.5049 29.6144 11.3258 29.3219 11.4033C26.5835 12.1288 23.9919 13.3164 21.6608 14.9137C21.4118 15.0843 21.3576 15.4243 21.5354 15.667L23.7886 18.7434C23.9664 18.9861 24.3088 19.0394 24.5587 18.8702C26.3699 17.6438 28.375 16.7251 30.4914 16.1518C30.7834 16.0727 30.964 15.7797 30.8923 15.4884L29.9829 11.7962Z" fill="#9E9E9E"/>
<path d="M20.4123 16.5247C20.2205 16.2927 19.8746 16.2582 19.6447 16.4534C17.4923 18.28 15.6739 20.4605 14.2693 22.8988C14.1193 23.1592 14.2188 23.4891 14.4851 23.6318L17.86 25.441C18.1263 25.5838 18.4583 25.4853 18.6098 25.2257C19.7075 23.3444 21.1144 21.6574 22.7724 20.2344C23.0012 20.038 23.0361 19.6965 22.8443 19.4646L20.4123 16.5247Z" fill="#9E9E9E"/>
<path d="M13.7161 25.1678C13.4402 25.0443 13.1148 25.1655 12.9963 25.4414C11.8868 28.0246 11.2351 30.7779 11.0699 33.5802C11.0522 33.8796 11.2893 34.1313 11.5919 34.1421L15.4271 34.2793C15.7296 34.2901 15.983 34.0559 16.0023 33.7566C16.1424 31.5883 16.6466 29.4581 17.4941 27.454C17.6111 27.1774 17.4892 26.8561 17.2133 26.7326L13.7161 25.1678Z" fill="#9E9E9E"/>
<path d="M70.4437 35.1851C70.7465 35.1851 70.9924 34.942 70.9877 34.6422C70.9581 32.7658 70.7752 30.8949 70.4407 29.0478C70.3872 28.7527 70.0988 28.5609 69.8016 28.6184L62.2632 30.0778C61.966 30.1353 61.7728 30.4204 61.8247 30.7158C62.0526 32.0131 62.1809 33.3257 62.2086 34.6422C62.2149 34.942 62.4598 35.1851 62.7626 35.1851L70.4437 35.1851Z" fill="#9E9E9E"/>
<path d="M69.4616 27.0839C69.7558 27.013 69.9366 26.7191 69.8604 26.4289C68.8052 22.4133 67.0326 18.617 64.6266 15.2199C64.4527 14.9744 64.1095 14.9205 63.8644 15.0965L57.6454 19.561C57.4003 19.737 57.3461 20.0762 57.5187 20.3225C59.2573 22.8047 60.5472 25.5672 61.3308 28.4867C61.4085 28.7765 61.7045 28.9553 61.9987 28.8843L69.4616 27.0839Z" fill="#9E9E9E"/>
<path d="M62.9618 13.9181C63.1991 13.7317 63.2392 13.39 63.0474 13.158C60.3929 9.94746 57.1795 7.23338 53.5592 5.14421C53.2976 4.99324 52.9631 5.08641 52.8148 5.3478L49.0515 11.9789C48.9031 12.2403 48.9972 12.5707 49.258 12.7231C51.8856 14.2576 54.224 16.2326 56.1688 18.5599C56.3618 18.7909 56.7062 18.8308 56.9435 18.6445L62.9618 13.9181Z" fill="#9E9E9E"/>
<path d="M51.0165 4.41468C51.1491 4.14512 51.036 3.81973 50.7618 3.69266C46.9666 1.93408 42.8842 0.862422 38.7077 0.528417C38.4059 0.504281 38.1449 0.731497 38.1253 1.03071L37.6266 8.6212C37.6069 8.92041 37.836 9.17817 38.1377 9.20386C41.1769 9.46269 44.1477 10.2425 46.9174 11.5086C47.1923 11.6342 47.5202 11.5227 47.6528 11.2531L51.0165 4.41468Z" fill="#9E9E9E"/>
<path d="M35.8814 0.9585C35.8814 0.658658 35.6359 0.415145 35.3332 0.419826C31.1436 0.484613 26.9995 1.29154 23.097 2.80241C22.815 2.91159 22.6809 3.22902 22.7955 3.50654L25.7038 10.5468C25.8184 10.8243 26.1383 10.9567 26.4209 10.849C29.2677 9.76369 32.2834 9.17649 35.3332 9.11361C35.6359 9.10737 35.8814 8.86489 35.8814 8.56504L35.8814 0.9585Z" fill="#9E9E9E"/>
<path d="M21.4561 4.08213C21.3297 3.80966 21.004 3.68983 20.7309 3.81922C16.951 5.60971 13.5251 8.05582 10.6156 11.0417C10.4054 11.2575 10.4173 11.6014 10.6384 11.8062L16.2484 17.002C16.4696 17.2068 16.8161 17.1948 17.0275 16.9802C19.1571 14.8173 21.65 13.0373 24.395 11.7196C24.6675 11.5888 24.7884 11.267 24.662 10.9945L21.4561 4.08213Z" fill="#9E9E9E"/>
<path d="M9.38635 13.2068C9.15424 13.0143 8.80809 13.0443 8.61731 13.2771C5.97717 16.4992 3.94072 20.1633 2.60438 24.096C2.50781 24.3802 2.66742 24.6858 2.95586 24.777L10.2733 27.0901C10.5617 27.1813 10.8696 27.0234 10.9677 26.7398C11.9556 23.8817 13.4375 21.2153 15.3473 18.8597C15.5368 18.6259 15.5067 18.2838 15.2746 18.0913L9.38635 13.2068Z" fill="#9E9E9E"/>
<path d="M2.53591 26.1831C2.24379 26.1043 1.94198 26.2748 1.86692 26.5652C1.2786 28.8419 0.924881 31.1717 0.811171 33.519C0.796663 33.8185 1.0345 34.0693 1.33713 34.079L9.01428 34.3248C9.3169 34.3345 9.56956 34.0994 9.58565 33.8C9.67532 32.1305 9.92689 30.4735 10.3369 28.8518C10.4104 28.5609 10.2388 28.2626 9.94664 28.1837L2.53591 26.1831Z" fill="#9E9E9E"/>
<path d="M11.9767 35.3661C11.6739 35.3661 11.4279 35.6092 11.4346 35.9089C11.4976 38.7154 12.0485 41.4902 13.0632 44.1113C13.1716 44.3913 13.4923 44.524 13.7726 44.4105L17.3245 42.9716C17.6048 42.8581 17.7382 42.5413 17.6314 42.2608C16.8574 40.2276 16.4312 38.0809 16.3702 35.9089C16.3618 35.6092 16.1172 35.3661 15.8144 35.3661L11.9767 35.3661Z" fill="#9E9E9E"/>
<path d="M14.3278 45.6527C14.0545 45.7818 13.9381 46.1061 14.0746 46.3738C15.3518 48.8799 17.0556 51.1493 19.1112 53.0823C19.3307 53.2887 19.6779 53.2718 19.8815 53.0498L22.4616 50.2365C22.6652 50.0145 22.6479 49.6717 22.4295 49.464C20.8468 47.9591 19.5286 46.2034 18.5292 44.2691C18.3913 44.0022 18.0647 43.887 17.7914 44.0162L14.3278 45.6527Z" fill="#9E9E9E"/>
<path d="M20.8661 53.8885C20.6749 54.121 20.7098 54.4635 20.9488 54.6477C23.186 56.3715 25.7065 57.7007 28.3996 58.5768C28.6873 58.6704 28.9938 58.508 29.0818 58.2211L30.1982 54.5851C30.2863 54.2982 30.1226 53.9957 29.8355 53.9005C27.7548 53.2109 25.8047 52.1826 24.0656 50.8578C23.8256 50.675 23.4807 50.7093 23.2895 50.9418L20.8661 53.8885Z" fill="#9E9E9E"/>
<path d="M30.7404 58.6573C30.6731 58.9496 30.8578 59.2413 31.1544 59.3014C33.9316 59.864 36.786 59.9485 39.5921 59.551C39.8918 59.5086 40.0938 59.2284 40.0443 58.9326L39.4166 55.1834C39.3671 54.8876 39.0849 54.6883 38.7849 54.7291C36.6112 55.0248 34.4029 54.9594 32.2509 54.5358C31.9539 54.4773 31.6602 54.6595 31.5929 54.9519L30.7404 58.6573Z" fill="#9E9E9E"/>
<path d="M41.8149 58.5739C41.8866 58.8652 42.1835 59.0444 42.476 58.9669C45.2143 58.2413 47.806 57.0538 50.137 55.4565C50.386 55.2859 50.4402 54.9459 50.2625 54.7032L48.0092 51.6268C47.8314 51.3841 47.4891 51.3307 47.2391 51.5C45.4279 52.7264 43.4228 53.6451 41.3065 54.2184C41.0144 54.2975 40.8338 54.5905 40.9056 54.8818L41.8149 58.5739Z" fill="#9E9E9E"/>
<path d="M51.3855 53.8455C51.5774 54.0775 51.9232 54.1119 52.1531 53.9168C54.3055 52.0901 56.124 49.9097 57.5285 47.4714C57.6786 47.2109 57.579 46.8811 57.3127 46.7384L53.9379 44.9291C53.6716 44.7864 53.3396 44.8849 53.1881 45.1445C52.0903 47.0258 50.6835 48.7127 49.0254 50.1358C48.7966 50.3321 48.7617 50.6736 48.9536 50.9056L51.3855 53.8455Z" fill="#9E9E9E"/>
<path d="M58.0818 45.2024C58.3577 45.3259 58.683 45.2047 58.8015 44.9287C59.9111 42.3456 60.5628 39.5923 60.728 36.7899C60.7456 36.4906 60.5085 36.2388 60.206 36.228L56.3708 36.0909C56.0682 36.0801 55.8148 36.3143 55.7955 36.6135C55.6555 38.7819 55.1513 40.912 54.3037 42.9162C54.1867 43.1927 54.3086 43.5141 54.5845 43.6375L58.0818 45.2024Z" fill="#9E9E9E"/>
<path d="M1.35412 35.1851C1.05134 35.1851 0.805446 35.4282 0.810176 35.728C0.839763 37.6043 1.02268 39.4752 1.35717 41.3223C1.41062 41.6174 1.69905 41.8093 1.99621 41.7518L9.53468 40.2924C9.83184 40.2349 10.025 39.9498 9.97316 39.6544C9.74526 38.357 9.61692 37.0445 9.58924 35.728C9.58293 35.4282 9.33807 35.1851 9.03529 35.1851L1.35412 35.1851Z" fill="#9E9E9E"/>
<path d="M2.33622 43.2862C2.04204 43.3572 1.86122 43.651 1.93747 43.9412C2.99268 47.9569 4.76526 51.7531 7.17127 55.1502C7.34513 55.3957 7.6883 55.4496 7.93344 55.2736L14.1524 50.8091C14.3976 50.6332 14.4517 50.294 14.2791 50.0476C12.5405 47.5655 11.2507 44.8029 10.4671 41.8835C10.3893 41.5937 10.0933 41.4149 9.79913 41.4858L2.33622 43.2862Z" fill="#9E9E9E"/>
<path d="M8.83599 56.4521C8.59876 56.6384 8.55863 56.9802 8.75044 57.2122C11.4049 60.4227 14.6184 63.1368 18.2386 65.226C18.5002 65.3769 18.8347 65.2838 18.9831 65.0224L22.7464 58.3913C22.8947 58.1299 22.8007 57.7994 22.5398 57.6471C19.9123 56.1126 17.5738 54.1375 15.6291 51.8102C15.436 51.5792 15.0916 51.5394 14.8544 51.7257L8.83599 56.4521Z" fill="#9E9E9E"/>
<path d="M20.7814 65.9555C20.6488 66.225 20.7618 66.5504 21.0361 66.6775C24.8312 68.4361 28.9137 69.5077 33.0902 69.8417C33.392 69.8659 33.6529 69.6387 33.6726 69.3395L34.1713 61.749C34.1909 61.4498 33.9618 61.192 33.6602 61.1663C30.6209 60.9075 27.6501 60.1276 24.8804 58.8616C24.6055 58.7359 24.2776 58.8475 24.145 59.117L20.7814 65.9555Z" fill="#9E9E9E"/>
<path d="M35.9164 69.4117C35.9164 69.7115 36.1619 69.955 36.4647 69.9503C40.6543 69.8856 44.7984 69.0786 48.7008 67.5678C48.9828 67.4586 49.1169 67.1411 49.0023 66.8636L46.0941 59.8234C45.9795 59.5458 45.6595 59.4135 45.377 59.5212C42.5301 60.6065 39.5145 61.1937 36.4647 61.2566C36.162 61.2628 35.9164 61.5053 35.9164 61.8051L35.9164 69.4117Z" fill="#9E9E9E"/>
<path d="M50.3417 66.288C50.4681 66.5605 50.7938 66.6803 51.067 66.5509C54.8469 64.7605 58.2727 62.3143 61.1822 59.3284C61.3925 59.1126 61.3806 58.7688 61.1594 58.5639L55.5494 53.3682C55.3283 53.1634 54.9817 53.1753 54.7704 53.39C52.6408 55.5529 50.1478 57.3329 47.4028 58.6506C47.1304 58.7814 47.0095 59.1032 47.1358 59.3757L50.3417 66.288Z" fill="#9E9E9E"/>
<path d="M62.4115 57.1633C62.6436 57.3559 62.9898 57.3259 63.1805 57.093C65.8207 53.871 67.8571 50.2068 69.1935 46.2741C69.29 45.99 69.1304 45.6843 68.842 45.5931L61.5246 43.28C61.2361 43.1889 60.9282 43.3467 60.8302 43.6304C59.8422 46.4884 58.3603 49.1548 56.4506 51.5104C56.261 51.7443 56.2911 52.0863 56.5232 52.2789L62.4115 57.1633Z" fill="#9E9E9E"/>
<path d="M69.2619 44.187C69.5541 44.2659 69.8559 44.0954 69.9309 43.8049C70.5192 41.5283 70.873 39.1985 70.9867 36.8512C71.0012 36.5517 70.7633 36.3008 70.4607 36.2911L62.7836 36.0453C62.4809 36.0356 62.2283 36.2708 62.2122 36.5702C62.1225 38.2396 61.871 39.8967 61.4609 41.5184C61.3874 41.8093 61.5591 42.1076 61.8512 42.1864L69.2619 44.187Z" fill="#9E9E9E"/>
<path d="M25.0555 36.006L47.3549 42.3538C48.132 43.9439 48.2094 45.6391 46.1737 47.0369L23.8743 40.6891C22.469 38.9202 23.1987 36.6943 25.0555 36.006Z" fill="#9E9E9E"/>
<path d="M26.2183 36.9278L34.0702 39.163L33.9986 39.4468L26.1467 37.2117L26.2183 36.9278Z" fill="#9E9E9E"/>
<path d="M31.2713 39.583L42.2639 42.7122L42.1924 42.996L31.1997 39.8669L31.2713 39.583Z" fill="#9E9E9E"/>
<path d="M25.8881 39.5717L33.74 41.8068L33.6684 42.0906L25.8165 39.8555L25.8881 39.5717Z" fill="#9E9E9E"/>
<path d="M38.4512 43.1479L46.3031 45.383L46.2315 45.6668L38.3796 43.4317L38.4512 43.1479Z" fill="#9E9E9E"/>
<path d="M39.0954 40.5935L46.9474 42.8286L46.8758 43.1124L39.0238 40.8773L39.0954 40.5935Z" fill="#9E9E9E"/>
<path d="M23.8742 41.8149L46.1736 35.4671C47.595 36.4314 48.4599 37.8583 47.3548 40.1502L25.0553 46.498C23.0058 45.7125 22.5901 43.3972 23.8742 41.8149Z" fill="#9E9E9E"/>
<path d="M25.5381 42.4059L33.39 40.1708L33.4616 40.4546L25.6097 42.6898L25.5381 42.4059Z" fill="#9E9E9E"/>
<path d="M31.1637 42.0213L42.1564 38.8921L42.228 39.176L31.2353 42.3052L31.1637 42.0213Z" fill="#9E9E9E"/>
<path d="M26.4964 44.8709L34.3483 42.6358L34.4199 42.9196L26.568 45.1548L26.4964 44.8709Z" fill="#9E9E9E"/>
<path d="M39.0595 41.2947L46.9114 39.0596L46.983 39.3434L39.1311 41.5785L39.0595 41.2947Z" fill="#9E9E9E"/>
<path d="M38.4152 38.7403L46.2671 36.5052L46.3387 36.789L38.4868 39.0241L38.4152 38.7403Z" fill="#9E9E9E"/>
<path d="M36.0799 41.2753C35.2163 41.2806 34.8615 41.2913 34.7979 41.3012C34.7815 41.2989 34.7641 41.2966 34.7461 41.2944C34.4169 41.2545 33.9038 41.1134 33.5573 40.9674C32.5 40.5221 31.6036 39.5937 31.2597 38.5877C30.8961 37.5244 31.0026 36.521 31.6275 35.1192C32.1694 33.9037 33.2031 32.3128 34.4565 30.7652C34.6329 30.5473 34.8093 30.3523 34.8485 30.3319C34.9471 30.2803 35.1242 30.3252 35.183 30.4167C35.2167 30.4691 35.238 30.6734 35.2513 31.0733C35.2735 31.7449 35.3392 32.1435 35.51 32.6449C35.7351 33.3055 36.0362 33.7847 36.4958 34.2137C36.9933 34.6781 37.2595 34.8007 37.4346 34.6459C37.5274 34.5638 37.6796 34.218 37.7477 33.9346C37.8285 33.5985 37.9905 33.4655 38.1914 33.5705C38.2738 33.6135 38.6143 34.2027 38.9443 34.8729C39.7416 36.4922 39.8523 37.6939 39.314 38.8856C39.1104 39.3363 38.8746 39.6644 38.4652 40.0666C37.7953 40.7249 37.0618 41.0966 36.0799 41.2753Z" fill="#9E9E9E"/>
<path d="M36.2939 23.7819C39.3418 27.4326 41.4051 30.8655 42.0433 33.3476C42.4324 34.8607 42.3057 36.2273 41.6525 37.5643C41.3201 38.2449 40.994 38.7067 40.4622 39.2497C39.3671 40.3682 37.8967 41.0852 36.2732 41.2922C35.9738 41.3303 35.1447 41.3273 34.8739 41.3138C34.8524 41.3097 34.8266 41.3054 34.7979 41.3012C34.8615 41.2913 35.2163 41.2806 36.0799 41.2753C37.0618 41.0966 37.7953 40.7249 38.4652 40.0666C38.8746 39.6644 39.1104 39.3363 39.314 38.8856C39.8523 37.6939 39.7416 36.4922 38.9443 34.8729C38.6143 34.2027 38.2738 33.6135 38.1914 33.5705C37.9905 33.4655 37.8285 33.5985 37.7477 33.9346C37.6796 34.218 37.5274 34.5638 37.4346 34.6459C37.2595 34.8007 36.9933 34.6781 36.4958 34.2137C36.0362 33.7847 35.7351 33.3055 35.51 32.6449C35.3392 32.1435 35.2735 31.7449 35.2513 31.0733C35.238 30.6734 35.2167 30.4691 35.183 30.4167C35.1242 30.3252 34.9471 30.2803 34.8485 30.3319C34.8093 30.3523 34.6329 30.5473 34.4565 30.7652C33.2031 32.3128 32.1694 33.9037 31.6275 35.1192C31.0026 36.521 30.8961 37.5244 31.2597 38.5877C31.6036 39.5937 32.5 40.5221 33.5573 40.9674C33.9038 41.1134 34.4169 41.2545 34.7461 41.2944C34.7641 41.2966 34.7815 41.2989 34.7979 41.3012C34.7686 41.3058 34.801 41.3102 34.8739 41.3138C34.9181 41.3224 34.9438 41.3305 34.9388 41.3354C34.9124 41.3612 34.239 41.2788 33.8532 41.2026C32.8124 40.997 31.6948 40.4785 30.8414 39.8052C30.4628 39.5065 29.9038 38.9259 29.6125 38.529C29.1522 37.9016 28.7173 36.9395 28.5635 36.2082C28.2131 34.5421 28.5699 32.8737 29.7818 30.5104C30.151 29.7904 30.7751 28.7074 30.8917 28.5842C30.9929 28.4773 31.1819 28.4781 31.2923 28.5859C31.3574 28.6495 31.3838 28.7338 31.4164 28.9821C31.4887 29.5328 31.6615 30.0429 31.9127 30.4468C32.0517 30.6704 32.1525 30.7566 32.2747 30.7566C32.4322 30.7566 33.1152 30.2668 33.5479 29.8434C34.0507 29.3515 34.3701 28.9187 34.6787 28.3115C34.9489 27.7797 35.0828 27.4195 35.2355 26.8132C35.4357 26.0186 35.466 25.735 35.4775 24.5518C35.4894 23.3154 35.4852 23.3333 35.7652 23.3333C35.9191 23.3333 35.92 23.334 36.2939 23.7819Z" fill="#9E9E9E"/>
<path fill-rule="evenodd" clip-rule="evenodd" d="M34.727 30.8051C32.7199 32.9948 31.3611 35.0538 30.9408 36.5425C30.6846 37.45 30.768 38.2697 31.1981 39.0716C31.4171 39.4798 31.6318 39.7568 31.982 40.0825C32.7031 40.7533 33.6715 41.1834 34.7406 41.3075C35.0097 41.3388 35.8976 41.3398 35.6512 41.3225C35.5629 41.3163 35.3287 41.3078 34.8679 41.2974C34.2213 41.1902 33.7383 40.9673 33.2971 40.5725C33.0275 40.3312 32.8722 40.1344 32.7382 39.8641C32.3836 39.1494 32.4566 38.4286 32.9816 37.4574C33.1989 37.0554 33.4232 36.702 33.4774 36.6762C33.6097 36.6132 33.7164 36.6929 33.7696 36.8946C33.8144 37.0645 33.9147 37.272 33.9758 37.3212C34.0911 37.414 34.2664 37.3405 34.5941 37.0619C34.8967 36.8047 35.095 36.5173 35.2432 36.121C35.3557 35.8203 35.3989 35.5812 35.4136 35.1784C35.4224 34.9385 35.4363 34.816 35.4585 34.7846C35.4973 34.7297 35.6139 34.7028 35.6788 34.7337C35.7046 34.746 35.8208 34.8629 35.937 34.9936C36.7624 35.9218 37.4431 36.876 37.8 37.6051C38.2115 38.4459 38.2816 39.0477 38.0422 39.6854C37.8157 40.2888 37.2254 40.8456 36.5291 41.1127C36.301 41.2003 35.9631 41.2849 35.7462 41.3089C35.7079 41.3131 35.6742 41.318 35.6512 41.3225C35.6289 41.3269 35.6165 41.3309 35.6194 41.3334C35.6367 41.3489 35.8345 41.3437 36.3343 41.2538C37.0197 41.1305 37.7557 40.8195 38.3176 40.4157C38.567 40.2365 38.9351 39.8883 39.1269 39.6502C39.4301 39.2739 39.7165 38.6969 39.8178 38.2582C40.0485 37.2589 39.8135 36.2582 39.0154 34.8408C38.7723 34.4089 38.3613 33.7594 38.2845 33.6855C38.2179 33.6214 38.0934 33.6218 38.0208 33.6865C37.9779 33.7246 37.9605 33.7752 37.939 33.9241C37.8914 34.2544 37.7776 34.5604 37.6122 34.8026C37.5206 34.9367 37.4543 34.9885 37.3738 34.9885C37.2701 34.9885 36.8203 34.6947 36.5353 34.4407C36.2042 34.1457 35.9939 33.8861 35.7907 33.5219C35.6128 33.2029 35.5246 32.9869 35.424 32.6233C35.2921 32.1467 35.2722 31.9766 35.2646 31.2669C35.2567 30.5253 35.2595 30.536 35.0752 30.536C34.9738 30.536 34.9732 30.5365 34.727 30.8051Z" fill="#9E9E9E"/>
<path d="M34.8679 41.2974C35.3287 41.3078 35.5629 41.3163 35.6512 41.3225C35.6742 41.318 35.7079 41.3131 35.7462 41.3089C35.9631 41.2849 36.301 41.2003 36.5291 41.1127C37.2254 40.8456 37.8157 40.2888 38.0422 39.6854C38.2816 39.0477 38.2115 38.4459 37.8 37.6051C37.4431 36.876 36.7624 35.9218 35.937 34.9936C35.8208 34.8629 35.7046 34.746 35.6788 34.7337C35.6139 34.7028 35.4973 34.7297 35.4585 34.7846C35.4363 34.816 35.4224 34.9385 35.4136 35.1784C35.3989 35.5812 35.3557 35.8203 35.2432 36.121C35.095 36.5173 34.8967 36.8047 34.5941 37.0619C34.2664 37.3405 34.0911 37.414 33.9758 37.3212C33.9147 37.272 33.8144 37.0645 33.7696 36.8946C33.7164 36.6929 33.6097 36.6132 33.4774 36.6762C33.4232 36.702 33.1989 37.0554 32.9816 37.4574C32.4566 38.4286 32.3836 39.1494 32.7382 39.8641C32.8722 40.1344 33.0275 40.3312 33.2971 40.5725C33.7383 40.9673 34.2213 41.1902 34.8679 41.2974Z" fill="#9E9E9E"/>
</svg>
