<svg width="13" height="20" viewBox="0 0 13 20" fill="none" xmlns="http://www.w3.org/2000/svg">
<path fill-rule="evenodd" clip-rule="evenodd" d="M5.31074 0.102785C2.17098 0.763088 -0.0227903 3.66073 0.000178674 7.11709C0.0148861 9.32421 1.50424 12.5904 4.51871 17.0261C5.65772 18.7022 5.86399 18.9454 6.24947 19.0673C6.78629 19.2371 7.07227 19.0184 7.93755 17.7768C9.63817 15.3367 11.5337 12.0396 12.2814 10.221C12.6633 9.29238 13.0019 7.7882 13 7.02921C12.9933 4.42193 11.5744 1.93766 9.40085 0.727555C8.2701 0.0979802 6.56904 -0.161857 5.31074 0.102785ZM7.38258 5.00196C8.75227 5.72382 9.07438 7.69652 8.00909 8.83906C7.53982 9.34232 7.13382 9.51989 6.46491 9.51468C5.4461 9.50667 4.7002 8.876 4.40814 7.77559C4.00268 6.248 5.14959 4.68987 6.60109 4.79617C6.85075 4.81439 7.20236 4.90707 7.38258 5.00196Z" fill="#303636"/>
</svg>
