<svg width="21" height="21" viewBox="0 0 21 21" fill="none" xmlns="http://www.w3.org/2000/svg">
<path d="M3.98754 0H11.259C12.0285 0.03836 12.5841 0.66129 12.5934 1.34572V4.60257C13.3083 5.5335 14.3005 6.19327 15.019 7.09046C15.2716 7.4071 15.5524 7.65212 15.8615 7.82551C16.969 8.38925 18.2582 8.04767 19.141 8.84893C19.8319 10.4591 18.8654 12.388 17.3486 12.9313C16.11 13.3584 14.8747 13.0722 13.7807 12.5412C13.7839 14.4636 13.7683 16.3861 13.7581 18.3085C13.6413 19.8736 12.5875 20.9896 11.0893 21C9.57949 20.9957 8.48151 19.6941 8.45442 18.3085V16.0468C8.00962 15.9714 7.60628 15.8244 7.2444 15.6058C6.31436 15.7325 5.40257 15.4426 4.7452 14.8821C-0.622942 14.5745 2.56188 7.5418 2.64181 4.90789V1.34572C2.6785 0.570798 3.29965 0.00924 3.98754 0ZM3.98754 4.85137C3.9422 6.95881 0.756024 14.1598 5.32195 13.4685C5.73268 14.2305 6.83196 14.5238 7.52711 14.0565C8.2272 14.7664 9.10675 14.9686 9.80015 14.2827C9.80015 14.9612 9.80391 15.6322 9.81146 16.2956C9.819 16.9591 9.82276 17.6301 9.82276 18.3086C9.83909 19.085 10.4088 19.6232 11.0893 19.6317C11.8939 19.6139 12.4042 19.0032 12.4124 18.3086C12.4126 15.6768 12.4347 13.0825 12.435 10.6413C14.1984 10.8611 16.5928 12.9648 17.9819 10.8166C18.1508 10.4727 18.2225 10.1977 18.1572 9.83847C18.127 9.77816 18.0969 9.74423 18.0667 9.73669C18.0365 9.72914 17.9875 9.71785 17.9197 9.70277C16.522 9.4745 15.1244 9.2614 14.1992 8.17612C13.2832 6.98152 11.8411 6.27713 11.259 4.90796V4.85142L3.98754 4.85137V4.85137Z" fill="#F9F0DC"/>
</svg>
